<svg width="259" height="53" viewBox="0 0 259 53" fill="none" xmlns="http://www.w3.org/2000/svg">
<path d="M175.496 4.82776L175.573 5.94781C175.341 5.87056 175.032 5.79332 174.762 5.7547C174.492 5.71607 174.183 5.71607 173.874 5.71607C172.638 5.71607 171.672 6.02505 171.016 6.68163C170.32 7.3382 169.973 8.26513 169.973 9.4238C169.973 10.6211 170.282 11.5094 170.861 12.1273C171.479 12.7839 172.367 13.0929 173.487 13.0929C173.874 13.0929 174.26 13.0543 174.685 12.977C175.071 12.8612 175.457 12.7453 175.882 12.5908L175.65 13.7109C175.303 13.8653 174.955 13.9812 174.569 14.0585C174.183 14.1357 173.835 14.1357 173.449 14.1357C171.904 14.1357 170.707 13.7495 169.857 12.977C169.007 12.2046 168.582 11.0846 168.582 9.69415C168.582 8.14927 169.046 6.91336 169.973 6.02505C170.861 5.13674 172.136 4.67328 173.758 4.67328C174.183 4.67328 174.53 4.67328 174.762 4.7119C175.032 4.75052 175.264 4.78914 175.496 4.82776ZM182.332 5.56159C181.25 5.56159 180.401 5.87056 179.821 6.52714C179.281 7.18371 179.01 8.14927 179.01 9.4238C179.01 10.6597 179.281 11.6253 179.86 12.2818C180.401 12.9384 181.25 13.286 182.332 13.286C183.452 13.286 184.263 12.9384 184.842 12.3205C185.383 11.6639 185.653 10.6983 185.653 9.4238C185.653 8.11065 185.383 7.14509 184.842 6.52714C184.263 5.87056 183.452 5.56159 182.332 5.56159ZM182.332 4.55741C183.877 4.55741 185.074 4.98225 185.924 5.83194C186.735 6.68163 187.16 7.87891 187.16 9.4238C187.16 10.9687 186.735 12.166 185.885 13.0157C185.035 13.8653 183.877 14.2902 182.332 14.2902C180.826 14.2902 179.628 13.8653 178.779 13.0157C177.929 12.1273 177.504 10.9301 177.504 9.4238C177.504 7.87891 177.929 6.68163 178.779 5.83194C179.628 4.98225 180.826 4.55741 182.332 4.55741ZM195.309 0.038621L195.463 1.12004C195.27 1.12004 195.116 1.08142 194.961 1.08142C194.845 1.08142 194.691 1.08142 194.537 1.08142C193.648 1.08142 192.953 1.31315 192.528 1.85386C192.065 2.35595 191.872 3.20564 191.872 4.28706C191.872 4.44154 191.872 4.55741 191.872 4.63465C191.872 4.7119 191.872 4.78914 191.91 4.82777L194.459 4.82777L194.189 5.83194L191.91 5.83194C191.91 8.11065 191.91 9.88726 191.91 11.0846C191.949 12.2818 191.987 13.2474 192.026 13.9812L190.365 13.9812C190.404 13.4405 190.443 12.5522 190.443 11.3163C190.481 10.119 190.481 8.30376 190.481 5.83194L189.129 5.83194L189.052 4.98225L190.481 4.82777C190.481 4.78914 190.481 4.7119 190.481 4.59603C190.481 4.51879 190.481 4.44154 190.481 4.40292C190.481 3.05115 190.79 1.96973 191.408 1.19728C192.026 0.38622 192.837 -1.2476e-06 193.803 -1.20539e-06C194.034 -1.19527e-06 194.228 -1.18682e-06 194.343 -1.18176e-06C194.498 -1.17501e-06 194.652 -1.16825e-06 194.807 0.038621C194.884 0.038621 194.961 0.038621 195.077 0.038621C195.193 0.038621 195.27 0.038621 195.309 0.038621ZM201.875 0.0386213L202.068 1.12004C201.875 1.12004 201.72 1.08142 201.566 1.08142C201.411 1.08142 201.257 1.08142 201.141 1.08142C200.214 1.08142 199.557 1.31315 199.094 1.85386C198.669 2.35595 198.437 3.20564 198.437 4.28706C198.437 4.44154 198.476 4.55741 198.476 4.63465C198.476 4.7119 198.476 4.78914 198.476 4.82777L201.064 4.82777L200.793 5.83194L198.476 5.83194C198.476 8.11065 198.515 9.88727 198.515 11.0846C198.553 12.2818 198.592 13.2474 198.63 13.9812L196.97 13.9812C197.008 13.4405 197.047 12.5522 197.047 11.3163C197.086 10.119 197.086 8.30376 197.086 5.83194L195.734 5.83194L195.618 4.98225L197.086 4.82777C197.086 4.78914 197.086 4.7119 197.047 4.59603C197.047 4.51879 197.047 4.44154 197.047 4.40292C197.047 3.05115 197.356 1.96973 197.974 1.19729C198.592 0.38622 199.403 -9.60601e-07 200.407 -9.16708e-07C200.639 -9.06578e-07 200.793 -8.99825e-07 200.948 -8.93072e-07C201.102 -8.86319e-07 201.257 -8.79567e-07 201.373 0.0386213C201.45 0.0386213 201.566 0.0386213 201.682 0.0386213C201.797 0.0386213 201.875 0.0386213 201.875 0.0386213ZM210.912 9.46242L203.844 9.46242C203.844 10.6983 204.153 11.6639 204.771 12.2818C205.351 12.8612 206.239 13.1701 207.436 13.1701C207.9 13.1701 208.363 13.1315 208.827 13.0543C209.29 12.9384 209.792 12.8225 210.256 12.6294L210.178 13.6722C209.638 13.8267 209.136 13.9812 208.672 14.0585C208.209 14.1357 207.707 14.2129 207.243 14.2129C205.66 14.2129 204.424 13.7881 203.574 12.977C202.763 12.1273 202.338 10.9301 202.338 9.34656C202.338 7.87891 202.724 6.72025 203.535 5.83194C204.308 4.98225 205.389 4.55741 206.741 4.55741C208.054 4.55741 209.058 4.94363 209.792 5.79332C210.526 6.60438 210.912 7.72443 210.912 9.19207L210.912 9.46242ZM209.445 8.53549C209.406 7.53132 209.174 6.7975 208.711 6.29541C208.247 5.79332 207.591 5.56159 206.702 5.56159C205.891 5.56159 205.235 5.79332 204.733 6.33403C204.231 6.83612 203.96 7.56994 203.922 8.53549L209.445 8.53549ZM221.379 9.46242L214.311 9.46242C214.311 10.6983 214.62 11.6639 215.238 12.2818C215.817 12.8612 216.706 13.1701 217.864 13.1701C218.366 13.1701 218.83 13.1315 219.293 13.0543C219.757 12.9384 220.259 12.8225 220.722 12.6294L220.606 13.6722C220.104 13.8267 219.602 13.9812 219.139 14.0585C218.637 14.1357 218.173 14.2129 217.71 14.2129C216.126 14.2129 214.89 13.7881 214.041 12.977C213.23 12.1274 212.805 10.9301 212.805 9.34656C212.805 7.87891 213.191 6.72025 214.002 5.83194C214.775 4.98225 215.856 4.55741 217.208 4.55741C218.521 4.55741 219.525 4.94363 220.259 5.79332C220.993 6.60439 221.379 7.72443 221.379 9.19207L221.379 9.46242ZM219.911 8.53549C219.873 7.53132 219.641 6.7975 219.177 6.29541C218.714 5.79332 218.057 5.56159 217.169 5.56159C216.358 5.56159 215.701 5.79332 215.199 6.33403C214.697 6.83612 214.427 7.56994 214.35 8.53549L219.911 8.53549Z" fill="#262829"/>
<path d="M6.94914 4.13243L16.3343 4.13243C17.6475 9.03744 19.3468 14.8308 21.4324 21.4351C23.518 28.0782 25.9126 35.2233 28.6162 42.9477C30.8176 35.9185 32.8646 29.121 34.7185 22.5938C36.5723 16.0667 38.1945 9.92575 39.6235 4.13243L49.1631 4.13243C49.5107 11.8182 50.2446 19.6199 51.326 27.5761C52.446 35.5322 53.9137 43.6429 55.8062 51.8694L49.2018 51.8694C48.9314 46.8871 48.3521 40.7076 47.5024 33.3308C46.6527 25.9153 45.5327 17.1481 44.065 6.99047C41.7477 13.3245 39.469 20.122 37.3062 27.4602C35.1047 34.7984 32.9032 42.9477 30.7018 51.8694L26.6464 51.8694C23.7884 42.1366 21.2007 33.7556 18.8834 26.6878C16.5274 19.6585 14.1329 13.0928 11.7383 6.99047C10.7341 13.5562 9.80719 20.6241 8.9575 28.1554C8.1078 35.7253 7.37399 43.6043 6.75604 51.8694L0.730985 51.8694C2.46896 42.9477 3.82075 34.5281 4.86355 26.6105C5.90634 18.6544 6.60155 11.1617 6.94914 4.13243ZM90.7978 49.5907L90.5275 51.7922C90.064 51.9466 89.5619 52.0625 88.9826 52.1398C88.4419 52.2556 87.7853 52.2556 87.0128 52.2556C85.5838 52.2556 84.4252 51.908 83.4982 51.1742C82.6099 50.4404 81.992 49.3203 81.6444 47.8913C79.7905 49.4362 77.8594 50.5562 75.8897 51.2901C73.9586 52.0239 71.9116 52.4101 69.7874 52.4101C66.9293 52.4101 64.7279 51.599 63.1444 50.0155C61.5608 48.3934 60.7498 46.1919 60.7498 43.3339C60.7498 39.5489 62.4878 36.575 66.0024 34.3736C69.4784 32.2493 74.4993 31.0134 81.0264 30.7817L81.0264 29.623C81.0264 26.6105 80.4085 24.4091 79.1339 23.0959C77.898 21.7441 75.8124 21.0876 72.993 21.0876C71.3323 21.0876 69.7874 21.2807 68.3584 21.7055C66.9293 22.0917 65.5776 22.7097 64.303 23.5207L63.9554 19.1178C65.3458 18.5385 66.8135 18.1136 68.397 17.8433C69.9419 17.5729 71.6026 17.4571 73.302 17.4571C75.8897 17.4571 78.0525 17.8433 79.8291 18.6157C81.6444 19.4268 82.9575 20.5855 83.8072 22.0917C84.4252 23.1345 84.8114 24.4091 85.0817 25.9153C85.3135 27.383 85.4293 29.5072 85.4293 32.2107L85.4293 36.884L85.4293 38.313C85.468 43.3339 85.8156 46.5009 86.4335 47.7368C87.0901 49.0114 88.2101 49.6293 89.8709 49.6293C90.1026 49.6293 90.2957 49.6293 90.4502 49.6293C90.5661 49.5907 90.682 49.5907 90.7978 49.5907ZM81.0264 33.6397C75.8897 33.7556 71.9888 34.6439 69.2853 36.2661C66.5817 37.8882 65.23 40.1669 65.23 43.1408C65.23 44.8402 65.8093 46.2306 66.9293 47.2734C68.0108 48.3162 69.517 48.8182 71.3709 48.8182C73.0316 48.8182 74.731 48.5479 76.3918 47.9299C78.0525 47.3506 79.7133 46.4623 81.3354 45.3036C81.2195 44.3767 81.1423 43.2567 81.1037 41.9435C81.065 40.6304 81.0264 39.0082 81.0264 37.1157L81.0264 33.6397ZM102.423 33.2149C104.702 30.7431 106.903 28.2326 108.989 25.6836C111.074 23.1345 113.006 20.5855 114.821 17.9592L120.769 17.9592C118.606 20.1606 116.404 22.5166 114.164 24.9884C111.963 27.4216 109.723 30.0093 107.483 32.6742C109.066 34.1805 111.731 37.2316 115.516 41.7504C119.301 46.3078 122.545 49.6679 125.249 51.8694L117.795 51.8694C114.473 47.3506 111.654 43.7587 109.336 41.0938C106.98 38.4289 104.702 36.1116 102.423 34.1418C102.384 34.6439 102.346 35.1846 102.346 35.764C102.346 36.3047 102.307 36.9999 102.307 37.8496C102.307 39.24 102.384 41.1711 102.5 43.5656C102.616 45.9602 102.809 48.741 103.002 51.8694L97.1705 51.8694C97.4022 48.5093 97.5567 44.5698 97.6726 40.051C97.7884 35.5322 97.8271 30.55 97.8271 25.1429C97.8271 21.0103 97.7498 16.9936 97.5953 13.0928C97.4408 9.15331 97.1705 5.40696 96.8615 1.85373C97.7884 1.66061 98.754 1.4675 99.6809 1.19715C100.646 0.965416 101.612 0.695061 102.539 0.424706C102.462 3.51448 102.423 6.75874 102.384 10.1575C102.346 13.5949 102.307 17.1095 102.307 20.74C102.307 24.1001 102.346 26.6105 102.346 28.3485C102.346 30.0479 102.384 31.67 102.423 33.2149ZM136.913 24.5635C137.26 24.6408 137.608 24.6794 137.994 24.6794C138.38 24.6794 138.96 24.6794 139.693 24.6794C144.328 24.6794 147.765 23.9842 149.967 22.6324C152.168 21.242 153.25 19.1564 153.25 16.2598C153.25 13.3245 152.207 11.1617 150.16 9.80989C148.074 8.41949 144.83 7.72429 140.427 7.72429C139.771 7.72429 138.767 7.76291 137.415 7.84016C137.26 7.84016 137.144 7.87878 137.067 7.87878C137.029 9.23056 137.029 11.8569 136.99 15.7191C136.99 19.5813 136.951 22.5166 136.913 24.5635ZM136.99 48.0844C137.029 48.0844 137.106 48.0844 137.183 48.0844C138.767 48.1617 139.887 48.2003 140.582 48.2003C145.371 48.2003 148.963 47.4279 151.319 45.883C153.713 44.3767 154.911 42.0594 154.911 38.931C154.911 35.3777 153.636 32.6742 151.126 30.859C148.615 29.0437 144.907 28.1168 139.964 28.1168C139.384 28.1168 138.458 28.194 137.144 28.2713L136.913 28.2713L136.913 34.7984C136.913 38.7379 136.913 41.5959 136.951 43.3725C136.951 45.1491 136.99 46.7327 136.99 48.0844ZM131.235 51.8694C131.506 48.2003 131.699 44.3767 131.815 40.4372C131.969 36.4592 132.008 32.3266 132.008 28.0782C132.008 23.7911 131.969 19.6585 131.815 15.6805C131.699 11.7024 131.506 7.84016 131.235 4.13243L137.531 4.13243C141.895 4.13243 145.062 4.2483 146.954 4.48003C148.847 4.75039 150.469 5.13661 151.744 5.67732C153.675 6.48838 155.181 7.80154 156.301 9.53953C157.382 11.2775 157.962 13.2859 157.962 15.526C157.962 18.3068 157.189 20.6627 155.644 22.5166C154.1 24.3704 151.859 25.6836 148.963 26.3788C152.362 27.1126 154.988 28.5416 156.842 30.6658C158.657 32.7901 159.584 35.455 159.584 38.5834C159.584 42.9863 158 46.2692 154.911 48.5093C151.782 50.7494 147.225 51.8694 141.2 51.8694L131.235 51.8694ZM190.713 47.6596C187.624 49.4362 185.036 50.7107 182.95 51.4832C180.826 52.2556 178.972 52.6418 177.389 52.6418C174.453 52.6418 172.291 51.6763 170.939 49.7452C168.737 46.6168 168.892 41.8663 168.892 38.1585C168.892 33.2535 168.815 29.0051 168.699 25.5291C168.583 22.0145 168.39 19.5813 168.158 18.2295C169.201 18.1909 170.244 18.1523 171.248 18.075C172.252 17.9978 173.217 17.9205 174.106 17.8433C173.874 22.2462 173.72 25.9539 173.604 28.9665C173.488 31.979 173.449 34.6439 173.449 36.9226C173.449 41.5573 173.874 44.6084 174.724 46.1533C175.573 47.6596 177.08 48.432 179.281 48.432C180.787 48.432 182.487 48.1617 184.341 47.621C186.195 47.0803 188.164 46.2692 190.25 45.2264L190.25 42.3684C190.25 37.8109 190.173 33.5239 190.018 29.5072C189.864 25.5291 189.632 21.7828 189.323 18.2295C190.134 18.1909 191.022 18.1523 191.988 18.075C192.953 18.0364 194.035 17.9592 195.193 17.8433C195.039 20.5082 194.962 23.0959 194.885 25.6063C194.807 28.1168 194.807 30.55 194.807 32.9059C194.807 37.1544 194.885 40.7848 195.078 43.7974C195.271 46.8099 195.58 49.4748 196.005 51.7922C195.889 51.7922 195.773 51.7535 195.657 51.7535C195.502 51.7535 195.309 51.7535 195.039 51.7535C194.653 51.7535 194.228 51.7535 193.803 51.8308C193.34 51.8694 192.838 51.9466 192.297 52.0625L190.713 47.6596ZM221.611 17.9592L221.959 21.86C220.916 21.4738 219.95 21.2034 218.946 21.0103C217.981 20.8558 217.015 20.74 216.127 20.74C213.655 20.74 211.762 21.2034 210.449 22.0917C209.097 22.98 208.441 24.2546 208.441 25.9153C208.441 27.0354 208.827 28.0395 209.561 28.8892C210.295 29.7389 211.917 30.8976 214.427 32.3266C218.212 34.4894 220.607 36.2661 221.611 37.6565C222.615 39.0469 223.117 40.7462 223.117 42.716C223.117 45.6899 221.997 48.0844 219.796 49.8997C217.594 51.7149 214.659 52.6418 211.029 52.6418C209.947 52.6418 208.827 52.526 207.63 52.3329C206.471 52.1011 205.235 51.7922 203.961 51.4059L203.304 47.1961C204.733 47.8527 206.162 48.3162 207.514 48.6251C208.904 48.9341 210.295 49.0886 211.647 49.0886C213.964 49.0886 215.702 48.6251 216.899 47.621C218.096 46.6554 218.714 45.2264 218.714 43.3339C218.714 42.098 218.328 41.0166 217.594 40.0897C216.861 39.1627 215.045 37.8882 212.11 36.2274C208.673 34.2191 206.471 32.597 205.544 31.3224C204.579 30.0479 204.115 28.4644 204.115 26.6491C204.115 23.7525 205.158 21.4352 207.244 19.7358C209.329 18.075 212.187 17.2253 215.779 17.2253C216.513 17.2253 217.324 17.264 218.251 17.3798C219.178 17.5343 220.298 17.7274 221.611 17.9592ZM236.635 0.424712C236.558 2.23995 236.519 4.48004 236.481 7.22221C236.442 9.92576 236.442 14.7535 236.442 21.7055C239.03 20.122 241.424 18.9247 243.587 18.075C245.75 17.264 247.681 16.8777 249.38 16.8777C251.852 16.8777 253.822 17.6502 255.29 19.2337C256.757 20.8172 257.607 23.0573 257.839 25.9926L257.839 28.194C257.839 33.1763 257.916 37.4633 258.109 41.1325C258.263 44.7629 258.495 48.3548 258.843 51.8694L253.011 51.8694C253.204 48.2775 253.32 45.1105 253.397 42.3684C253.474 39.6262 253.513 37.0771 253.513 34.7212C253.513 28.6575 253.049 24.8725 252.2 23.3663C251.311 21.8214 249.689 21.0876 247.295 21.0876C245.982 21.0876 244.398 21.3579 242.544 21.8986C240.729 22.4393 238.643 23.2504 236.326 24.3704C236.326 24.8725 236.326 25.7222 236.287 26.8036C236.287 27.9237 236.249 28.7734 236.249 29.3527C236.249 32.9446 236.326 36.6137 236.481 40.3986C236.635 44.145 236.828 47.9686 237.099 51.8694L231.267 51.8694C231.46 48.5093 231.653 44.5698 231.73 40.051C231.846 35.5322 231.923 30.55 231.923 25.1429C231.923 21.0103 231.846 16.9936 231.653 13.0928C231.498 9.15332 231.267 5.40697 230.919 1.85373C231.885 1.66062 232.811 1.46751 233.777 1.19715C234.704 0.965422 235.669 0.695067 236.635 0.424712Z" fill="#262829"/>
</svg>
