<svg width="230" height="47" viewBox="0 0 230 47" fill="none" xmlns="http://www.w3.org/2000/svg">
<path d="M155.73 4.30196L155.799 5.30002C155.593 5.23119 155.317 5.16236 155.076 5.12794C154.836 5.09353 154.56 5.09353 154.285 5.09353C153.184 5.09353 152.323 5.36885 151.738 5.95392C151.119 6.53898 150.809 7.36496 150.809 8.39743C150.809 9.46432 151.084 10.2559 151.6 10.8065C152.151 11.3916 152.943 11.6669 153.941 11.6669C154.285 11.6669 154.629 11.6325 155.008 11.5637C155.352 11.4604 155.696 11.3572 156.075 11.2195L155.868 12.2176C155.558 12.3552 155.249 12.4585 154.904 12.5273C154.56 12.5961 154.251 12.5961 153.906 12.5961C152.53 12.5961 151.463 12.252 150.706 11.5637C149.949 10.8754 149.57 9.8773 149.57 8.63834C149.57 7.26171 149.983 6.16041 150.809 5.36885C151.6 4.57729 152.736 4.1643 154.182 4.1643C154.56 4.1643 154.87 4.1643 155.076 4.19872C155.317 4.23313 155.524 4.26755 155.73 4.30196ZM161.822 4.95586C160.858 4.95586 160.101 5.23119 159.585 5.81625C159.103 6.40132 158.862 7.26171 158.862 8.39743C158.862 9.49873 159.103 10.3591 159.619 10.9442C160.101 11.5293 160.858 11.839 161.822 11.839C162.82 11.839 163.543 11.5293 164.059 10.9786C164.541 10.3935 164.782 9.53315 164.782 8.39743C164.782 7.2273 164.541 6.36691 164.059 5.81625C163.543 5.23119 162.82 4.95586 161.822 4.95586ZM161.822 4.06106C163.199 4.06106 164.265 4.43963 165.023 5.19677C165.745 5.95392 166.124 7.0208 166.124 8.39743C166.124 9.77406 165.745 10.8409 164.988 11.5981C164.231 12.3552 163.199 12.7338 161.822 12.7338C160.48 12.7338 159.413 12.3552 158.656 11.5981C157.899 10.8065 157.52 9.73964 157.52 8.39743C157.52 7.0208 157.899 5.95392 158.656 5.19677C159.413 4.43963 160.48 4.06106 161.822 4.06106ZM173.386 0.0344223L173.523 0.998061C173.351 0.998061 173.214 0.963645 173.076 0.963645C172.973 0.963645 172.835 0.963645 172.697 0.963645C171.906 0.963645 171.286 1.17014 170.908 1.65196C170.495 2.09936 170.323 2.85651 170.323 3.82015C170.323 3.95781 170.323 4.06106 170.323 4.12989C170.323 4.19872 170.323 4.26755 170.357 4.30197L172.628 4.30197L172.388 5.19677L170.357 5.19677C170.357 7.2273 170.357 8.81042 170.357 9.8773C170.391 10.9442 170.426 11.8046 170.46 12.4585L168.98 12.4585C169.015 11.9767 169.049 11.1851 169.049 10.0838C169.084 9.01691 169.084 7.39938 169.084 5.19677L167.879 5.19677L167.81 4.43963L169.084 4.30197C169.084 4.26755 169.084 4.19872 169.084 4.09547C169.084 4.02664 169.084 3.95781 169.084 3.92339C169.084 2.71884 169.359 1.75521 169.91 1.06689C170.46 0.344163 171.183 6.51767e-06 172.043 6.55528e-06C172.25 6.56431e-06 172.422 6.57183e-06 172.525 6.57634e-06C172.663 6.58236e-06 172.801 6.58838e-06 172.938 0.0344223C173.007 0.0344223 173.076 0.0344223 173.179 0.0344223C173.282 0.0344223 173.351 0.0344223 173.386 0.0344223ZM179.236 0.0344225L179.408 0.998061C179.236 0.998061 179.099 0.963646 178.961 0.963646C178.823 0.963646 178.686 0.963646 178.582 0.963646C177.756 0.963646 177.171 1.17014 176.758 1.65196C176.38 2.09936 176.173 2.85651 176.173 3.82015C176.173 3.95781 176.208 4.06106 176.208 4.12989C176.208 4.19872 176.208 4.26755 176.208 4.30197L178.514 4.30197L178.273 5.19677L176.208 5.19677C176.208 7.2273 176.242 8.81042 176.242 9.8773C176.277 10.9442 176.311 11.8046 176.345 12.4585L174.865 12.4585C174.9 11.9767 174.934 11.1851 174.934 10.0838C174.969 9.01691 174.969 7.39938 174.969 5.19677L173.764 5.19677L173.661 4.43963L174.969 4.30197C174.969 4.26755 174.969 4.19872 174.934 4.09547C174.934 4.02664 174.934 3.95781 174.934 3.92339C174.934 2.71884 175.21 1.75521 175.76 1.06689C176.311 0.344163 177.034 6.77342e-06 177.928 6.81253e-06C178.135 6.82155e-06 178.273 6.82757e-06 178.41 6.83359e-06C178.548 6.83961e-06 178.686 6.84562e-06 178.789 0.0344225C178.858 0.0344225 178.961 0.0344225 179.064 0.0344225C179.167 0.0344225 179.236 0.0344225 179.236 0.0344225ZM187.29 8.43185L180.991 8.43185C180.991 9.53315 181.267 10.3935 181.817 10.9442C182.334 11.4604 183.125 11.7358 184.192 11.7358C184.605 11.7358 185.018 11.7013 185.431 11.6325C185.844 11.5293 186.292 11.426 186.704 11.2539L186.636 12.1832C186.154 12.3208 185.706 12.4585 185.293 12.5273C184.88 12.5961 184.433 12.665 184.02 12.665C182.609 12.665 181.508 12.2864 180.751 11.5637C180.028 10.8065 179.649 9.73964 179.649 8.3286C179.649 7.0208 179.993 5.98833 180.716 5.19677C181.404 4.43963 182.368 4.06106 183.573 4.06106C184.743 4.06106 185.638 4.40521 186.292 5.16236C186.945 5.88509 187.29 6.88314 187.29 8.19094L187.29 8.43185ZM185.982 7.60587C185.947 6.71106 185.741 6.05717 185.328 5.60976C184.915 5.16236 184.33 4.95586 183.538 4.95586C182.816 4.95586 182.23 5.16236 181.783 5.64418C181.336 6.09158 181.095 6.74548 181.06 7.60587L185.982 7.60587ZM196.616 8.43185L190.318 8.43185C190.318 9.53315 190.593 10.3935 191.144 10.9442C191.66 11.4604 192.452 11.7358 193.484 11.7358C193.932 11.7358 194.345 11.7013 194.758 11.6325C195.171 11.5293 195.618 11.426 196.031 11.2539L195.928 12.1832C195.48 12.3208 195.033 12.4585 194.62 12.5273C194.173 12.5961 193.76 12.665 193.347 12.665C191.936 12.665 190.834 12.2864 190.077 11.5637C189.355 10.8065 188.976 9.73964 188.976 8.3286C188.976 7.0208 189.32 5.98833 190.043 5.19677C190.731 4.43963 191.695 4.06106 192.899 4.06106C194.069 4.06106 194.964 4.40521 195.618 5.16236C196.272 5.88509 196.616 6.88314 196.616 8.19094L196.616 8.43185ZM195.308 7.60587C195.274 6.71106 195.068 6.05717 194.655 5.60976C194.242 5.16236 193.656 4.95586 192.865 4.95586C192.142 4.95586 191.557 5.16236 191.11 5.64418C190.662 6.09158 190.421 6.74548 190.353 7.60587L195.308 7.60587Z" fill="#262829"/>
<path d="M5.54092 3.68236L13.9039 3.68236C15.0741 8.05315 16.5884 13.2155 18.4468 19.1006C20.3053 25.0201 22.439 31.387 24.8481 38.2701C26.8098 32.0065 28.6338 25.9493 30.2858 20.1331C31.9378 14.3168 33.3832 8.84471 34.6566 3.68236L43.1573 3.68236C43.467 10.5311 44.1209 17.483 45.0845 24.5727C46.0826 31.6623 47.3904 38.8896 49.0768 46.2201L43.1917 46.2201C42.9508 41.7805 42.4345 36.274 41.6774 29.7006C40.9202 23.0928 39.9222 15.2804 38.6144 6.22912C36.5495 11.8733 34.5189 17.9305 32.5917 24.4694C30.63 31.0084 28.6683 38.2701 26.7066 46.2201L23.0929 46.2201C20.5462 37.5474 18.2403 30.0792 16.1754 23.7811C14.076 17.5175 11.9422 11.6668 9.80847 6.22912C8.91367 12.0798 8.08769 18.3779 7.33055 25.0889C6.57339 31.8344 5.91949 38.8552 5.36885 46.2201L-2.0038e-06 46.2201C1.5487 38.2701 2.75326 30.7675 3.68248 23.7123C4.61171 16.6227 5.23119 9.94601 5.54092 3.68236ZM80.2574 44.1896L80.0165 46.1513C79.6035 46.289 79.1561 46.3922 78.6398 46.461C78.158 46.5643 77.573 46.5643 76.8846 46.5643C75.6112 46.5643 74.5788 46.2546 73.7528 45.6007C72.9612 44.9468 72.4106 43.9487 72.1009 42.6753C70.4489 44.052 68.7281 45.05 66.9729 45.7039C65.2521 46.3578 63.4281 46.702 61.5352 46.702C58.9885 46.702 57.0268 45.9792 55.6157 44.5682C54.2047 43.1227 53.482 41.161 53.482 38.6143C53.482 35.2415 55.0307 32.5915 58.1625 30.6298C61.2599 28.737 65.7339 27.6357 71.5502 27.4292L71.5502 26.3967C71.5502 23.7123 70.9996 21.7506 69.8638 20.5805C68.7625 19.3759 66.9041 18.7908 64.3917 18.7908C62.9119 18.7908 61.5352 18.9629 60.2619 19.3415C58.9885 19.6857 57.7839 20.2363 56.6482 20.959L56.3385 17.0356C57.5774 16.5194 58.8852 16.1408 60.2963 15.8999C61.6729 15.659 63.1528 15.5558 64.6671 15.5558C66.9729 15.5558 68.9002 15.8999 70.4833 16.5882C72.1009 17.311 73.271 18.3434 74.0281 19.6857C74.5788 20.6149 74.9229 21.7506 75.1638 23.0928C75.3703 24.4006 75.4736 26.2935 75.4736 28.7026L75.4736 32.8669L75.4736 34.1402C75.508 38.6143 75.8177 41.4364 76.3684 42.5377C76.9535 43.6734 77.9515 44.224 79.4314 44.224C79.6379 44.224 79.81 44.224 79.9476 44.224C80.0509 44.1896 80.1541 44.1896 80.2574 44.1896ZM71.5502 29.9759C66.9729 30.0792 63.4969 30.8707 61.0878 32.3162C58.6787 33.7617 57.4742 35.7922 57.4742 38.4422C57.4742 39.9565 57.9904 41.1954 58.9885 42.1247C59.9521 43.0539 61.2943 43.5013 62.9463 43.5013C64.4262 43.5013 65.9404 43.2604 67.4203 42.7097C68.9002 42.1935 70.3801 41.4019 71.8255 40.3695C71.7223 39.5435 71.6535 38.5454 71.619 37.3753C71.5846 36.2052 71.5502 34.7597 71.5502 33.0733L71.5502 29.9759ZM90.6165 29.5974C92.647 27.3948 94.6087 25.1577 96.4672 22.8863C98.3256 20.6149 100.046 18.3434 101.664 16.0032L106.964 16.0032C105.037 17.9649 103.075 20.0642 101.079 22.2668C99.1172 24.435 97.1211 26.7409 95.1249 29.1155C96.536 30.4578 98.9107 33.1766 102.283 37.2032C105.656 41.2643 108.547 44.2584 110.956 46.2201L104.314 46.2201C101.354 42.1935 98.8418 38.9928 96.7769 36.6182C94.6775 34.2435 92.647 32.1785 90.6165 30.4233C90.5821 30.8707 90.5477 31.3526 90.5477 31.8688C90.5477 32.3506 90.5132 32.9701 90.5132 33.7273C90.5132 34.9662 90.5821 36.687 90.6853 38.8208C90.7886 40.9545 90.9606 43.4325 91.1327 46.2201L85.936 46.2201C86.1425 43.226 86.2801 39.7156 86.3834 35.6889C86.4866 31.6623 86.521 27.2227 86.521 22.4045C86.521 18.722 86.4522 15.1428 86.3145 11.6668C86.1769 8.1564 85.936 4.81808 85.6606 1.65184C86.4866 1.47976 87.347 1.30768 88.173 1.06677C89.0334 0.860277 89.8938 0.619367 90.7197 0.378458C90.6509 3.13171 90.6165 6.02263 90.5821 9.05121C90.5477 12.1142 90.5132 15.246 90.5132 18.4811C90.5132 21.4753 90.5477 23.7123 90.5477 25.261C90.5477 26.7753 90.5821 28.2207 90.6165 29.5974ZM121.35 21.8883C121.659 21.9571 121.969 21.9915 122.313 21.9915C122.657 21.9915 123.174 21.9915 123.828 21.9915C127.958 21.9915 131.02 21.372 132.982 20.1675C134.944 18.9285 135.908 17.0701 135.908 14.4889C135.908 11.8733 134.978 9.94602 133.154 8.74147C131.296 7.5025 128.405 6.88302 124.482 6.88302C123.896 6.88302 123.002 6.91744 121.797 6.98627C121.659 6.98627 121.556 7.02068 121.487 7.02068C121.453 8.22523 121.453 10.5655 121.419 14.0071C121.419 17.4486 121.384 20.0642 121.35 21.8883ZM121.419 42.8474C121.453 42.8474 121.522 42.8474 121.591 42.8474C123.002 42.9162 124 42.9507 124.619 42.9507C128.887 42.9507 132.087 42.2623 134.187 40.8857C136.321 39.5435 137.387 37.4786 137.387 34.6909C137.387 31.5246 136.252 29.1156 134.015 27.498C131.778 25.8805 128.474 25.0545 124.069 25.0545C123.552 25.0545 122.726 25.1233 121.556 25.1922L121.35 25.1922L121.35 31.0084C121.35 34.5188 121.35 37.0656 121.384 38.6487C121.384 40.2318 121.419 41.6429 121.419 42.8474ZM116.291 46.2201C116.531 42.9507 116.704 39.5435 116.807 36.0331C116.944 32.4883 116.979 28.8058 116.979 25.0201C116.979 21.1999 116.944 17.5175 116.807 13.9727C116.704 10.4278 116.532 6.98627 116.291 3.68236L121.9 3.68236C125.789 3.68236 128.611 3.78561 130.298 3.99211C131.984 4.23302 133.43 4.57717 134.565 5.05899C136.286 5.78172 137.628 6.95185 138.626 8.50056C139.59 10.0493 140.106 11.8389 140.106 13.835C140.106 16.3129 139.418 18.4123 138.041 20.0642C136.665 21.7162 134.669 22.8863 132.087 23.5058C135.116 24.1597 137.456 25.4331 139.108 27.3259C140.726 29.2188 141.552 31.5935 141.552 34.3811C141.552 38.3045 140.141 41.2299 137.387 43.226C134.6 45.2221 130.539 46.2201 125.17 46.2201L116.291 46.2201ZM169.291 42.4688C166.537 44.052 164.232 45.1877 162.373 45.876C160.48 46.5643 158.828 46.9085 157.417 46.9085C154.802 46.9085 152.874 46.0481 151.67 44.3273C149.708 41.5396 149.846 37.3065 149.846 34.0026C149.846 29.6318 149.777 25.8461 149.674 22.7486C149.571 19.6168 149.398 17.4486 149.192 16.2441C150.121 16.2097 151.05 16.1753 151.945 16.1064C152.84 16.0376 153.7 15.9688 154.492 15.8999C154.285 19.8233 154.148 23.1272 154.045 25.8116C153.941 28.4961 153.907 30.8708 153.907 32.9013C153.907 37.0312 154.285 39.75 155.043 41.1266C155.8 42.4688 157.142 43.1571 159.104 43.1571C160.446 43.1571 161.96 42.9162 163.612 42.4344C165.264 41.9526 167.019 41.2299 168.878 40.3006L168.878 37.7539C168.878 33.6928 168.809 29.8727 168.671 26.2935C168.534 22.7487 168.327 19.4103 168.052 16.2441C168.775 16.2097 169.566 16.1753 170.426 16.1064C171.287 16.072 172.25 16.0032 173.283 15.8999C173.145 18.2746 173.076 20.5805 173.008 22.8175C172.939 25.0545 172.939 27.2227 172.939 29.322C172.939 33.1078 173.008 36.3428 173.18 39.0273C173.352 41.7117 173.627 44.0864 174.006 46.1513C173.902 46.1513 173.799 46.1169 173.696 46.1169C173.558 46.1169 173.386 46.1169 173.145 46.1169C172.801 46.1169 172.423 46.1169 172.044 46.1857C171.631 46.2201 171.184 46.289 170.702 46.3922L169.291 42.4688ZM196.823 16.0032L197.133 19.4792C196.204 19.135 195.343 18.8941 194.449 18.722C193.588 18.5844 192.728 18.4811 191.936 18.4811C189.734 18.4811 188.047 18.8941 186.877 19.6857C185.673 20.4772 185.088 21.6129 185.088 23.0928C185.088 24.0909 185.432 24.9857 186.086 25.7428C186.739 26.5 188.185 27.5324 190.422 28.8058C193.795 30.7331 195.928 32.3162 196.823 33.5552C197.718 34.7941 198.165 36.3084 198.165 38.0636C198.165 40.7136 197.167 42.8474 195.206 44.4649C193.244 46.0825 190.628 46.9085 187.393 46.9085C186.43 46.9085 185.432 46.8052 184.365 46.6331C183.332 46.4266 182.231 46.1513 181.095 45.8072L180.51 42.0558C181.784 42.6409 183.057 43.0539 184.262 43.3292C185.501 43.6046 186.739 43.7422 187.944 43.7422C190.009 43.7422 191.558 43.3292 192.625 42.4344C193.691 41.574 194.242 40.3006 194.242 38.6143C194.242 37.513 193.898 36.5493 193.244 35.7234C192.59 34.8974 190.973 33.7617 188.357 32.2818C185.294 30.4922 183.332 29.0467 182.506 27.911C181.646 26.7753 181.233 25.3642 181.233 23.7467C181.233 21.1655 182.162 19.1006 184.021 17.5863C185.879 16.1064 188.426 15.3493 191.627 15.3493C192.28 15.3493 193.003 15.3837 193.829 15.4869C194.655 15.6246 195.653 15.7967 196.823 16.0032ZM210.211 0.378463C210.142 1.996 210.108 3.99211 210.073 6.43562C210.039 8.84472 210.039 13.1467 210.039 19.3415C212.345 17.9305 214.479 16.8636 216.406 16.1064C218.333 15.3837 220.054 15.0395 221.568 15.0395C223.771 15.0395 225.526 15.7279 226.834 17.1389C228.142 18.5499 228.899 20.5461 229.105 23.1616L229.105 25.1233C229.105 29.563 229.174 33.3831 229.346 36.6526C229.484 39.8877 229.69 43.0883 230 46.2201L224.803 46.2201C224.975 43.0195 225.079 40.1974 225.147 37.7539C225.216 35.3104 225.251 33.0389 225.251 30.9396C225.251 25.5363 224.838 22.1636 224.081 20.8214C223.289 19.4447 221.843 18.7909 219.71 18.7909C218.54 18.7909 217.129 19.0318 215.477 19.5136C213.859 19.9954 212.001 20.7181 209.936 21.7162C209.936 22.1636 209.936 22.9207 209.901 23.8844C209.901 24.8824 209.867 25.6396 209.867 26.1558C209.867 29.3565 209.936 32.626 210.073 35.9987C210.211 39.337 210.383 42.7442 210.624 46.2201L205.427 46.2201C205.599 43.226 205.771 39.7156 205.84 35.6889C205.943 31.6623 206.012 27.2227 206.012 22.4045C206.012 18.722 205.943 15.1428 205.771 11.6668C205.634 8.15641 205.427 4.81809 205.117 1.65184C205.978 1.47976 206.804 1.30769 207.664 1.06678C208.49 0.860282 209.351 0.619373 210.211 0.378463Z" fill="#262829"/>
</svg>
