<svg width="157" height="32" viewBox="0 0 157 32" fill="none" xmlns="http://www.w3.org/2000/svg">
<path d="M106.237 2.93472L106.284 3.61558C106.143 3.56862 105.955 3.52166 105.791 3.49819C105.626 3.47471 105.438 3.47471 105.251 3.47471C104.499 3.47471 103.912 3.66253 103.513 4.06165C103.091 4.46077 102.879 5.02424 102.879 5.72857C102.879 6.45639 103.067 6.99637 103.419 7.37202C103.795 7.77114 104.335 7.95896 105.016 7.95896C105.251 7.95896 105.485 7.93549 105.744 7.88853C105.978 7.8181 106.213 7.74766 106.471 7.65375L106.331 8.33461C106.119 8.42852 105.908 8.49895 105.673 8.54591C105.438 8.59286 105.227 8.59286 104.992 8.59286C104.053 8.59286 103.325 8.35808 102.809 7.88853C102.292 7.41897 102.034 6.73812 102.034 5.89292C102.034 4.95381 102.316 4.20252 102.879 3.66253C103.419 3.12254 104.194 2.84081 105.18 2.84081C105.438 2.84081 105.65 2.84081 105.791 2.86429C105.955 2.88776 106.096 2.91124 106.237 2.93472ZM110.392 3.3808C109.735 3.3808 109.218 3.56862 108.866 3.96774C108.538 4.36686 108.373 4.95381 108.373 5.72857C108.373 6.47986 108.538 7.06681 108.89 7.46593C109.218 7.86505 109.735 8.07635 110.392 8.07635C111.073 8.07635 111.566 7.86505 111.918 7.48941C112.247 7.09029 112.411 6.50334 112.411 5.72857C112.411 4.93033 112.247 4.34339 111.918 3.96774C111.566 3.56862 111.073 3.3808 110.392 3.3808ZM110.392 2.77038C111.331 2.77038 112.059 3.02863 112.576 3.54514C113.069 4.06165 113.327 4.78946 113.327 5.72857C113.327 6.66769 113.069 7.3955 112.552 7.91201C112.036 8.42852 111.331 8.68677 110.392 8.68677C109.477 8.68677 108.749 8.42852 108.232 7.91201C107.716 7.37202 107.458 6.64421 107.458 5.72857C107.458 4.78946 107.716 4.06165 108.232 3.54514C108.749 3.02863 109.477 2.77038 110.392 2.77038ZM118.281 0.0234771L118.375 0.680855C118.257 0.680855 118.163 0.657377 118.069 0.657377C117.999 0.657377 117.905 0.657377 117.811 0.657377C117.271 0.657377 116.849 0.798243 116.59 1.12693C116.309 1.43214 116.191 1.94865 116.191 2.60603C116.191 2.69994 116.191 2.77038 116.191 2.81733C116.191 2.86429 116.191 2.91124 116.215 2.93472L117.764 2.93472L117.6 3.54514L116.215 3.54514C116.215 4.93033 116.215 6.01031 116.215 6.73812C116.238 7.46593 116.262 8.05287 116.285 8.49895L115.276 8.49895C115.299 8.17026 115.323 7.63027 115.323 6.87899C115.346 6.15117 115.346 5.04772 115.346 3.54514L114.524 3.54514L114.477 3.02863L115.346 2.93472C115.346 2.91124 115.346 2.86429 115.346 2.79385C115.346 2.7469 115.346 2.69994 115.346 2.67646C115.346 1.85474 115.534 1.19737 115.91 0.72781C116.285 0.234777 116.778 -7.58396e-07 117.365 -7.3274e-07C117.506 -7.26582e-07 117.623 -7.21451e-07 117.694 -7.18372e-07C117.788 -7.14267e-07 117.882 -7.10162e-07 117.976 0.0234771C118.023 0.0234771 118.069 0.0234771 118.14 0.0234771C118.21 0.0234771 118.257 0.0234771 118.281 0.0234771ZM122.272 0.0234773L122.389 0.680855C122.272 0.680855 122.178 0.657377 122.084 0.657377C121.99 0.657377 121.896 0.657377 121.826 0.657377C121.262 0.657377 120.863 0.798244 120.582 1.12693C120.323 1.43214 120.182 1.94865 120.182 2.60603C120.182 2.69994 120.206 2.77038 120.206 2.81733C120.206 2.86429 120.206 2.91124 120.206 2.93472L121.779 2.93472L121.615 3.54514L120.206 3.54514C120.206 4.93033 120.229 6.01031 120.229 6.73812C120.253 7.46593 120.276 8.05287 120.3 8.49895L119.29 8.49895C119.314 8.17026 119.337 7.63027 119.337 6.87899C119.361 6.15117 119.361 5.04772 119.361 3.54514L118.539 3.54514L118.469 3.02863L119.361 2.93472C119.361 2.91124 119.361 2.86429 119.337 2.79385C119.337 2.7469 119.337 2.69994 119.337 2.67647C119.337 1.85474 119.525 1.19737 119.901 0.72781C120.276 0.234777 120.769 -5.83934e-07 121.38 -5.57252e-07C121.521 -5.51094e-07 121.615 -5.46989e-07 121.709 -5.42884e-07C121.802 -5.38779e-07 121.896 -5.34674e-07 121.967 0.0234772C122.014 0.0234772 122.084 0.0234772 122.155 0.0234772C122.225 0.0234772 122.272 0.0234773 122.272 0.0234773ZM127.766 5.75205L123.469 5.75205C123.469 6.50334 123.657 7.09029 124.033 7.46593C124.385 7.8181 124.925 8.00592 125.653 8.00592C125.935 8.00592 126.216 7.98244 126.498 7.93549C126.78 7.86505 127.085 7.79462 127.367 7.67723L127.32 8.31113C126.991 8.40504 126.686 8.49895 126.404 8.54591C126.122 8.59286 125.817 8.63982 125.535 8.63982C124.573 8.63982 123.822 8.38156 123.305 7.88853C122.812 7.37202 122.554 6.64421 122.554 5.68162C122.554 4.78946 122.789 4.08513 123.282 3.54514C123.751 3.02863 124.408 2.77038 125.23 2.77038C126.028 2.77038 126.639 3.00515 127.085 3.52167C127.531 4.0147 127.766 4.69555 127.766 5.58771L127.766 5.75205ZM126.874 5.18859C126.85 4.57816 126.709 4.13209 126.428 3.82688C126.146 3.52166 125.747 3.3808 125.207 3.3808C124.714 3.3808 124.315 3.52166 124.009 3.85035C123.704 4.15556 123.54 4.60164 123.516 5.18859L126.874 5.18859ZM134.128 5.75205L129.832 5.75205C129.832 6.50334 130.02 7.09029 130.395 7.46593C130.747 7.8181 131.287 8.00592 131.992 8.00592C132.297 8.00592 132.579 7.98244 132.86 7.93549C133.142 7.86505 133.447 7.79462 133.729 7.67723L133.659 8.31113C133.354 8.40504 133.048 8.49895 132.767 8.54591C132.461 8.59286 132.18 8.63982 131.898 8.63982C130.935 8.63982 130.184 8.38156 129.668 7.88853C129.174 7.37202 128.916 6.64421 128.916 5.68162C128.916 4.78946 129.151 4.08513 129.644 3.54514C130.114 3.02863 130.771 2.77038 131.593 2.77038C132.391 2.77038 133.001 3.00515 133.447 3.52167C133.894 4.0147 134.128 4.69555 134.128 5.58771L134.128 5.75205ZM133.236 5.18859C133.213 4.57817 133.072 4.13209 132.79 3.82688C132.508 3.52167 132.109 3.3808 131.569 3.3808C131.076 3.3808 130.677 3.52166 130.372 3.85035C130.067 4.15556 129.902 4.60164 129.855 5.18859L133.236 5.18859Z" fill="#262829"/>
<path d="M3.77994 2.51192L9.48503 2.51192C10.2833 5.49359 11.3163 9.01526 12.5841 13.03C13.8519 17.0681 15.3075 21.4115 16.951 26.1071C18.2892 21.8341 19.5335 17.702 20.6605 13.7343C21.7874 9.76655 22.7735 6.03358 23.6421 2.51192L29.4411 2.51192C29.6524 7.18399 30.0985 11.9265 30.7559 16.7629C31.4368 21.5993 32.3289 26.5297 33.4793 31.5304L29.4646 31.5304C29.3003 28.5018 28.9481 24.7454 28.4316 20.2611C27.9151 15.7534 27.2342 10.4239 26.3421 4.24927C24.9334 8.09963 23.5482 12.2317 22.2335 16.6925C20.8952 21.1533 19.557 26.1071 18.2188 31.5304L15.7536 31.5304C14.0162 25.614 12.4432 20.5194 11.0346 16.2229C9.60242 11.95 8.1468 7.95876 6.69118 4.24927C6.08075 8.24049 5.51729 12.5369 5.00078 17.1151C4.48427 21.7167 4.03819 26.5062 3.66255 31.5304L1.38918e-05 31.5304C1.05652 26.1071 1.87823 20.9889 2.51213 16.176C3.14604 11.3396 3.56863 6.78487 3.77994 2.51192ZM54.7502 30.1453L54.5858 31.4835C54.3041 31.5774 53.9989 31.6478 53.6467 31.6948C53.318 31.7652 52.9189 31.7652 52.4494 31.7652C51.5807 31.7652 50.8763 31.5539 50.3129 31.1078C49.7729 30.6618 49.3972 29.9809 49.1859 29.1122C48.059 30.0513 46.8851 30.7322 45.6878 31.1783C44.5139 31.6244 43.2696 31.8591 41.9783 31.8591C40.2409 31.8591 38.9027 31.3661 37.9401 30.4035C36.9775 29.4174 36.4845 28.0792 36.4845 26.3419C36.4845 24.041 37.541 22.2332 39.6775 20.895C41.7905 19.6037 44.8426 18.8524 48.8103 18.7116L48.8103 18.0072C48.8103 16.176 48.4347 14.8377 47.6599 14.0395C46.9086 13.2178 45.6408 12.8187 43.9269 12.8187C42.9174 12.8187 41.9783 12.936 41.1096 13.1943C40.2409 13.4291 39.4192 13.8047 38.6444 14.2978L38.4331 11.6213C39.2783 11.2691 40.1705 11.0109 41.1331 10.8465C42.0722 10.6822 43.0817 10.6117 44.1148 10.6117C45.6878 10.6117 47.0025 10.8465 48.0825 11.3161C49.186 11.8091 49.9842 12.5134 50.5007 13.4291C50.8763 14.063 51.1111 14.8377 51.2755 15.7534C51.4163 16.6455 51.4868 17.9368 51.4868 19.5803L51.4868 22.4211L51.4868 23.2897C51.5102 26.3419 51.7215 28.267 52.0972 29.0183C52.4963 29.7931 53.1772 30.1687 54.1867 30.1687C54.3276 30.1687 54.445 30.1687 54.5389 30.1687C54.6093 30.1453 54.6797 30.1453 54.7502 30.1453ZM48.8103 20.4489C45.6878 20.5194 43.3165 21.0594 41.6731 22.0454C40.0296 23.0315 39.2079 24.4167 39.2079 26.2245C39.2079 27.2575 39.5601 28.1027 40.2409 28.7366C40.8983 29.3705 41.8139 29.6757 42.9409 29.6757C43.9504 29.6757 44.9834 29.5114 45.993 29.1357C47.0025 28.7835 48.0121 28.2436 48.9981 27.5392C48.9277 26.9758 48.8807 26.2949 48.8573 25.4967C48.8338 24.6984 48.8103 23.7123 48.8103 22.5619L48.8103 20.4489ZM61.817 20.1907C63.2022 18.6881 64.5404 17.162 65.8082 15.6125C67.076 14.063 68.2499 12.5134 69.3534 10.917L72.9689 10.917C71.6542 12.2552 70.3159 13.6873 68.9542 15.1899C67.616 16.669 66.2543 18.242 64.8926 19.862C65.8552 20.7776 67.4751 22.6324 69.776 25.3793C72.0768 28.1496 74.0489 30.1922 75.6924 31.5304L71.1611 31.5304C69.1421 28.7835 67.4282 26.6001 66.0195 24.9801C64.5874 23.3602 63.2022 21.9515 61.817 20.7541C61.7935 21.0594 61.77 21.388 61.77 21.7402C61.77 22.0689 61.7466 22.4915 61.7466 23.008C61.7466 23.8532 61.7935 25.0271 61.8639 26.4827C61.9344 27.9383 62.0518 29.6287 62.1692 31.5304L58.624 31.5304C58.7649 29.4879 58.8588 27.0931 58.9292 24.3462C58.9997 21.5993 59.0231 18.5707 59.0231 15.2838C59.0231 12.7717 58.9762 10.33 58.8823 7.95876C58.7884 5.56403 58.624 3.28668 58.4362 1.12673C58.9997 1.00934 59.5866 0.891952 60.1501 0.727608C60.737 0.586741 61.324 0.422397 61.8874 0.258052C61.8405 2.13627 61.817 4.10841 61.7935 6.17445C61.77 8.26397 61.7466 10.4005 61.7466 12.6074C61.7466 14.6499 61.77 16.176 61.77 17.2325C61.77 18.2655 61.7935 19.2516 61.817 20.1907ZM82.7826 14.9317C82.9939 14.9786 83.2052 15.0021 83.44 15.0021C83.6748 15.0021 84.027 15.0021 84.473 15.0021C87.2904 15.0021 89.3799 14.5795 90.7181 13.7578C92.0564 12.9126 92.7137 11.6448 92.7137 9.88394C92.7137 8.09963 92.0798 6.78487 90.8355 5.96315C89.5677 5.11795 87.5956 4.69535 84.9191 4.69535C84.52 4.69535 83.9096 4.71883 83.0879 4.76579C82.9939 4.76579 82.9235 4.78926 82.8766 4.78926C82.8531 5.61099 82.8531 7.20747 82.8296 9.55525C82.8296 11.903 82.8061 13.6873 82.7826 14.9317ZM82.8296 29.2296C82.8531 29.2296 82.9 29.2296 82.947 29.2296C83.9096 29.2766 84.5904 29.3001 85.013 29.3001C87.9243 29.3001 90.1077 28.8305 91.5399 27.8914C92.9955 26.9758 93.7233 25.5671 93.7233 23.6654C93.7233 21.5054 92.9485 19.862 91.4225 18.7585C89.8964 17.6551 87.6425 17.0916 84.6374 17.0916C84.2852 17.0916 83.7218 17.1386 82.9235 17.1855L82.7826 17.1855L82.7826 21.1533C82.7826 23.548 82.7826 25.2854 82.8061 26.3653C82.8061 27.4453 82.8296 28.4079 82.8296 29.2296ZM79.3314 31.5304C79.4958 29.3001 79.6131 26.9758 79.6836 24.581C79.7775 22.1628 79.801 19.6507 79.801 17.0681C79.801 14.4621 79.7775 11.95 79.6836 9.53177C79.6131 7.11356 79.4958 4.76579 79.3314 2.51192L83.1583 2.51192C85.8113 2.51192 87.7365 2.58235 88.8869 2.72322C90.0373 2.88756 91.0233 3.12234 91.7981 3.45103C92.972 3.94406 93.8876 4.74231 94.5685 5.79881C95.2259 6.85531 95.578 8.07615 95.578 9.43786C95.578 11.1283 95.1085 12.5604 94.1694 13.6873C93.2303 14.8143 91.8685 15.6125 90.1077 16.0351C92.1738 16.4812 93.7702 17.3499 94.8972 18.6411C96.0006 19.9324 96.5641 21.5524 96.5641 23.4541C96.5641 26.1306 95.6015 28.1262 93.7233 29.4879C91.8216 30.8496 89.0512 31.5304 85.3887 31.5304L79.3314 31.5304ZM115.487 28.9714C113.609 30.0513 112.036 30.8261 110.768 31.2957C109.477 31.7652 108.35 32 107.387 32C105.603 32 104.288 31.4131 103.467 30.2392C102.128 28.3375 102.222 25.4497 102.222 23.1958C102.222 20.2142 102.175 17.6316 102.105 15.5186C102.034 13.3821 101.917 11.903 101.776 11.0813C102.41 11.0578 103.044 11.0344 103.654 10.9874C104.265 10.9404 104.852 10.8935 105.392 10.8465C105.251 13.523 105.157 15.7769 105.087 17.6081C105.016 19.4394 104.993 21.0594 104.993 22.4445C104.993 25.2619 105.251 27.1166 105.767 28.0557C106.284 28.9714 107.2 29.4409 108.538 29.4409C109.453 29.4409 110.486 29.2766 111.613 28.9479C112.74 28.6192 113.938 28.1262 115.205 27.4923L115.205 25.7549C115.205 22.9845 115.158 20.3785 115.065 17.9368C114.971 15.5186 114.83 13.2413 114.642 11.0813C115.135 11.0578 115.675 11.0344 116.262 10.9874C116.849 10.9639 117.506 10.917 118.211 10.8465C118.117 12.4665 118.07 14.0395 118.023 15.5656C117.976 17.0916 117.976 18.5707 117.976 20.0029C117.976 22.5854 118.023 24.7923 118.14 26.6236C118.258 28.4549 118.445 30.0748 118.704 31.4835C118.633 31.4835 118.563 31.46 118.492 31.46C118.398 31.46 118.281 31.46 118.117 31.46C117.882 31.46 117.624 31.46 117.365 31.507C117.084 31.5304 116.778 31.5774 116.45 31.6478L115.487 28.9714ZM134.269 10.917L134.481 13.2882C133.847 13.0534 133.26 12.8891 132.649 12.7717C132.062 12.6778 131.476 12.6074 130.936 12.6074C129.433 12.6074 128.283 12.8891 127.484 13.4291C126.663 13.9691 126.263 14.7438 126.263 15.7534C126.263 16.4342 126.498 17.0447 126.944 17.5612C127.39 18.0777 128.376 18.782 129.903 19.6507C132.203 20.9655 133.659 22.0454 134.269 22.8906C134.88 23.7358 135.185 24.7688 135.185 25.9662C135.185 27.774 134.504 29.2296 133.166 30.3331C131.828 31.4365 130.043 32 127.836 32C127.179 32 126.498 31.9296 125.77 31.8122C125.066 31.6713 124.315 31.4835 123.54 31.2487L123.141 28.6896C124.01 29.0888 124.878 29.3705 125.7 29.5583C126.545 29.7461 127.39 29.84 128.212 29.84C129.621 29.84 130.677 29.5583 131.405 28.9479C132.133 28.3609 132.509 27.4923 132.509 26.3419C132.509 25.5906 132.274 24.9332 131.828 24.3697C131.382 23.8063 130.278 23.0315 128.494 22.022C126.404 20.8011 125.066 19.815 124.503 19.0403C123.916 18.2655 123.634 17.3029 123.634 16.1995C123.634 14.4386 124.268 13.03 125.536 11.9969C126.803 10.9874 128.541 10.4709 130.724 10.4709C131.17 10.4709 131.663 10.4944 132.227 10.5648C132.79 10.6587 133.471 10.7761 134.269 10.917ZM143.402 0.258056C143.355 1.36151 143.332 2.72322 143.308 4.39014C143.285 6.03359 143.285 8.96831 143.285 13.1943C144.858 12.2317 146.314 11.5039 147.628 10.9874C148.943 10.4944 150.117 10.2596 151.15 10.2596C152.653 10.2596 153.85 10.7291 154.742 11.6917C155.634 12.6543 156.151 14.016 156.292 15.8003L156.292 17.1386C156.292 20.1672 156.339 22.7732 156.456 25.0036C156.55 27.2105 156.691 29.394 156.902 31.5304L153.357 31.5304C153.474 29.347 153.545 27.4218 153.592 25.7549C153.639 24.088 153.662 22.5385 153.662 21.1063C153.662 17.4203 153.38 15.1195 152.864 14.2039C152.324 13.2647 151.338 12.8187 149.882 12.8187C149.084 12.8187 148.121 12.983 146.994 13.3117C145.891 13.6404 144.623 14.1334 143.214 14.8143C143.214 15.1195 143.214 15.636 143.191 16.2934C143.191 16.9742 143.167 17.4907 143.167 17.8429C143.167 20.0263 143.214 22.2567 143.308 24.5575C143.402 26.8349 143.52 29.1592 143.684 31.5304L140.139 31.5304C140.256 29.4879 140.374 27.0932 140.421 24.3462C140.491 21.5994 140.538 18.5707 140.538 15.2838C140.538 12.7717 140.491 10.33 140.374 7.95877C140.28 5.56403 140.139 3.28669 139.928 1.12673C140.514 1.00934 141.078 0.891956 141.665 0.727611C142.228 0.586745 142.815 0.4224 143.402 0.258056Z" fill="#262829"/>
</svg>
