<svg width="10" height="8" viewBox="0 0 10 8" fill="none" xmlns="http://www.w3.org/2000/svg">
<path d="M4.82218 3.29491C6.75729 1.90373 8.6924 2.43719 9.70702 2.90789C9.83254 2.97065 9.95806 2.84513 9.91622 2.71961C9.38276 1.16107 7.39535 0.01046 5 0C2.48959 1.10292e-07 0.387121 1.28659 0.010559 2.98111C-0.0312812 3.19031 0.052399 3.39952 0.24068 3.50412C0.972883 3.9016 2.87661 4.69656 4.82218 3.29491Z" fill="#262829"/>
<path d="M5.17782 3.77607C4.24688 4.45597 3.31593 4.67563 2.48959 4.66517C1.59002 4.66517 0.826441 4.40367 0.292979 4.16309C0.167458 4.10033 0.0419377 4.22585 0.0837778 4.35137C0.61724 5.90992 2.60465 7.06052 5 7.07098C7.51041 7.07098 9.61288 5.7844 9.98944 4.08987C10.0313 3.88067 9.9476 3.67147 9.75932 3.56687C9.02712 3.16939 7.12339 2.37442 5.17782 3.77607Z" fill="#262829"/>
</svg>
