<svg width="20" height="27" viewBox="0 0 20 27" fill="none" xmlns="http://www.w3.org/2000/svg">
<path d="M15.1155 6.29883V8.17064H16.095V9.69866H12.608V8.17064H13.5875V6.29883H6.41246V8.17064H7.39191V9.69866H3.90499V8.17064H4.88444V6.29883H0V26.0781H20V6.29883H15.1155ZM13.803 17.9287C13.803 19.5612 13.0151 20.9827 11.8506 21.7256V19.6868C11.8506 18.6462 11.2724 17.7107 10.3417 17.2453C9.93198 17.0404 9.67746 16.6286 9.67746 16.1705V13.599C9.78391 13.5887 9.89128 13.5823 10 13.5823C12.1003 13.5824 13.803 15.5283 13.803 17.9287ZM8.1494 14.1318V16.1706C8.1494 17.2112 8.7276 18.1467 9.65831 18.6121C10.068 18.8169 10.3225 19.2288 10.3225 19.6869V22.2584C10.2161 22.2686 10.1087 22.2751 9.99997 22.2751C7.89962 22.2751 6.1969 20.3292 6.1969 17.9288C6.1969 16.2962 6.98485 14.8747 8.1494 14.1318Z" fill="#262829"/>
<path d="M6.41253 5.11553C6.41253 3.13737 8.02189 1.52801 10.0001 1.52801C11.9782 1.52801 13.5876 3.13737 13.5876 5.11553V6.29882H15.1156V5.11553C15.1156 2.29482 12.8208 0 10.0001 0C7.17934 0 4.88452 2.29482 4.88452 5.11553V6.29882H6.41253V5.11553Z" fill="#262829"/>
</svg>
