<svg width="20" height="20" viewBox="0 0 20 20" fill="none" xmlns="http://www.w3.org/2000/svg">
<path d="M19.6111 15.9032L17.3939 14.425L15.4229 13.1112C15.0425 12.8581 14.5313 12.9411 14.2505 13.3015L13.0308 14.8695C12.7688 15.2097 12.2976 15.3075 11.9219 15.0995C11.0943 14.6391 10.1157 14.2057 7.95638 12.0436C5.79711 9.88158 5.3609 8.90573 4.90056 8.07816C4.69255 7.70246 4.79032 7.23118 5.13055 6.96923L6.69847 5.74959C7.05889 5.46881 7.1419 4.95761 6.88882 4.57718L5.61539 2.66685L4.09678 0.388903C3.8383 0.00117269 3.32088 -0.115232 2.92128 0.124414L1.16989 1.17511C0.696575 1.45397 0.348649 1.90428 0.198182 2.43267C-0.280758 4.17886 -0.37732 8.03089 5.79605 14.2043C11.9694 20.3776 15.8211 20.2808 17.5673 19.8018C18.0957 19.6514 18.546 19.3034 18.8249 18.8301L19.8756 17.0787C20.1152 16.6791 19.9988 16.1617 19.6111 15.9032Z" fill="#262829"/>
</svg>
