<svg width="140" height="29" viewBox="0 0 140 29" fill="none" xmlns="http://www.w3.org/2000/svg">
<path d="M94.7925 2.61858L94.8344 3.22609C94.7087 3.1842 94.5412 3.1423 94.3945 3.12135C94.2479 3.1004 94.0803 3.1004 93.9127 3.1004C93.2423 3.1004 92.7186 3.26799 92.3625 3.62412C91.9854 3.98025 91.7969 4.48301 91.7969 5.11147C91.7969 5.76088 91.9645 6.2427 92.2787 6.57788C92.6139 6.93401 93.0957 7.1016 93.7032 7.1016C93.9127 7.1016 94.1222 7.08065 94.3526 7.03875C94.5621 6.97591 94.7716 6.91306 95.002 6.82927L94.8763 7.43678C94.6878 7.52057 94.4993 7.58342 94.2898 7.62532C94.0803 7.66721 93.8917 7.66721 93.6823 7.66721C92.8443 7.66721 92.1949 7.45773 91.734 7.03875C91.2732 6.61978 91.0427 6.01227 91.0427 5.25811C91.0427 4.42017 91.2941 3.74981 91.7969 3.26799C92.2787 2.78617 92.97 2.53479 93.8498 2.53479C94.0803 2.53479 94.2688 2.53479 94.3945 2.55574C94.5412 2.57669 94.6668 2.59763 94.7925 2.61858ZM98.5005 3.01661C97.9139 3.01661 97.453 3.1842 97.1388 3.54032C96.8455 3.89645 96.6989 4.42017 96.6989 5.11147C96.6989 5.78183 96.8455 6.30555 97.1597 6.66168C97.453 7.0178 97.9139 7.20634 98.5005 7.20634C99.108 7.20634 99.5479 7.0178 99.8621 6.68262C100.155 6.3265 100.302 5.80278 100.302 5.11148C100.302 4.39922 100.155 3.8755 99.8621 3.54032C99.5479 3.1842 99.108 3.01661 98.5005 3.01661ZM98.5005 2.47194C99.3384 2.47194 99.9878 2.70238 100.449 3.16325C100.889 3.62412 101.119 4.27353 101.119 5.11148C101.119 5.94942 100.889 6.59883 100.428 7.0597C99.9669 7.52057 99.3384 7.75101 98.5005 7.75101C97.6835 7.75101 97.034 7.52057 96.5732 7.0597C96.1123 6.57788 95.8819 5.92847 95.8819 5.11147C95.8819 4.27353 96.1123 3.62412 96.5732 3.16325C97.034 2.70238 97.6835 2.47194 98.5005 2.47194ZM105.539 0.0209481L105.623 0.607511C105.518 0.607511 105.434 0.586562 105.351 0.586562C105.288 0.586562 105.204 0.586562 105.12 0.586562C104.638 0.586562 104.261 0.712254 104.031 1.00554C103.78 1.27787 103.675 1.73874 103.675 2.3253C103.675 2.4091 103.675 2.47194 103.675 2.51384C103.675 2.55574 103.675 2.59763 103.696 2.61858L105.078 2.61858L104.932 3.16325L103.696 3.16325C103.696 4.39922 103.696 5.36286 103.696 6.01227C103.717 6.66168 103.738 7.18539 103.759 7.58342L102.858 7.58342C102.879 7.29014 102.9 6.80832 102.9 6.13796C102.921 5.48855 102.921 4.50396 102.921 3.16325L102.187 3.16325L102.146 2.70238L102.921 2.61858C102.921 2.59763 102.921 2.55574 102.921 2.49289C102.921 2.45099 102.921 2.4091 102.921 2.38815C102.921 1.65494 103.088 1.06838 103.423 0.649408C103.759 0.209486 104.198 -6.76699e-07 104.722 -6.53807e-07C104.848 -6.48313e-07 104.953 -6.43734e-07 105.015 -6.40987e-07C105.099 -6.37324e-07 105.183 -6.33662e-07 105.267 0.020948C105.309 0.020948 105.351 0.020948 105.414 0.020948C105.476 0.020948 105.518 0.0209481 105.539 0.0209481ZM109.1 0.0209482L109.205 0.607511C109.1 0.607511 109.017 0.586562 108.933 0.586562C108.849 0.586562 108.765 0.586562 108.702 0.586562C108.2 0.586562 107.844 0.712254 107.592 1.00554C107.362 1.27787 107.236 1.73874 107.236 2.3253C107.236 2.4091 107.257 2.47194 107.257 2.51384C107.257 2.55574 107.257 2.59763 107.257 2.61858L108.661 2.61858L108.514 3.16325L107.257 3.16325C107.257 4.39922 107.278 5.36286 107.278 6.01227C107.299 6.66168 107.32 7.18539 107.341 7.58342L106.44 7.58342C106.461 7.29014 106.482 6.80832 106.482 6.13796C106.503 5.48855 106.503 4.50396 106.503 3.16325L105.77 3.16325L105.707 2.70238L106.503 2.61858C106.503 2.59763 106.503 2.55574 106.482 2.49289C106.482 2.45099 106.482 2.4091 106.482 2.38815C106.482 1.65494 106.649 1.06838 106.985 0.649408C107.32 0.209486 107.76 -5.21031e-07 108.304 -4.97223e-07C108.43 -4.91729e-07 108.514 -4.88066e-07 108.598 -4.84403e-07C108.682 -4.8074e-07 108.765 -4.77078e-07 108.828 0.0209482C108.87 0.0209482 108.933 0.0209482 108.996 0.0209482C109.059 0.0209482 109.1 0.0209482 109.1 0.0209482ZM114.002 5.13242L110.169 5.13242C110.169 5.80278 110.336 6.3265 110.672 6.66168C110.986 6.97591 111.468 7.1435 112.117 7.1435C112.368 7.1435 112.62 7.12255 112.871 7.08065C113.123 7.0178 113.395 6.95496 113.646 6.85021L113.604 7.41583C113.311 7.49962 113.039 7.58342 112.787 7.62532C112.536 7.66721 112.264 7.70911 112.012 7.70911C111.153 7.70911 110.483 7.47868 110.022 7.03875C109.582 6.57788 109.352 5.92847 109.352 5.06958C109.352 4.27353 109.561 3.64507 110.001 3.16325C110.42 2.70238 111.007 2.47194 111.74 2.47194C112.452 2.47194 112.997 2.68143 113.395 3.1423C113.793 3.58222 114.002 4.18973 114.002 4.98578L114.002 5.13242ZM113.206 4.62966C113.185 4.08499 113.06 3.68697 112.808 3.41463C112.557 3.1423 112.201 3.01661 111.719 3.01661C111.279 3.01661 110.923 3.1423 110.651 3.43558C110.378 3.70791 110.232 4.10594 110.211 4.62966L113.206 4.62966ZM119.68 5.13242L115.846 5.13242C115.846 5.80278 116.014 6.3265 116.349 6.66168C116.663 6.97591 117.145 7.1435 117.773 7.1435C118.046 7.1435 118.297 7.12255 118.548 7.08065C118.8 7.0178 119.072 6.95496 119.323 6.85021L119.261 7.41583C118.988 7.49962 118.716 7.58342 118.465 7.62532C118.192 7.66721 117.941 7.70911 117.689 7.70911C116.831 7.70911 116.16 7.47868 115.699 7.03875C115.259 6.57788 115.029 5.92847 115.029 5.06958C115.029 4.27353 115.238 3.64507 115.678 3.16325C116.097 2.70238 116.684 2.47194 117.417 2.47194C118.129 2.47194 118.674 2.68143 119.072 3.1423C119.47 3.58222 119.68 4.18973 119.68 4.98578L119.68 5.13242ZM118.884 4.62966C118.863 4.08499 118.737 3.68697 118.485 3.41463C118.234 3.1423 117.878 3.01661 117.396 3.01661C116.956 3.01661 116.6 3.1423 116.328 3.43558C116.055 3.70791 115.909 4.10594 115.867 4.62966L118.884 4.62966Z" fill="#262829"/>
<path d="M3.37273 2.24154L8.46326 2.24154C9.17552 4.90202 10.0973 8.04432 11.2285 11.6265C12.3597 15.2297 13.6585 19.1052 15.1249 23.295C16.319 19.4823 17.4293 15.7953 18.4348 12.255C19.4404 8.71468 20.3202 5.38384 21.0953 2.24154L26.2696 2.24154C26.4582 6.41032 26.8562 10.642 27.4428 14.9574C28.0503 19.2728 28.8463 23.672 29.8728 28.1341L26.2906 28.1341C26.1439 25.4317 25.8297 22.0799 25.3688 18.0787C24.908 14.0566 24.3005 9.30124 23.5044 3.79174C22.2475 7.22732 21.0115 10.9143 19.8384 14.8945C18.6443 18.8748 17.4502 23.295 16.2562 28.1341L14.0566 28.1341C12.5064 22.855 11.1028 18.3092 9.84587 14.4756C8.56801 10.6629 7.26918 7.10163 5.97037 3.79174C5.4257 7.35301 4.92293 11.1866 4.46207 15.2716C4.00119 19.3775 3.60316 23.6511 3.26799 28.1341L-1.21971e-06 28.1341C0.942687 23.295 1.67589 18.7281 2.2415 14.4337C2.80711 10.1182 3.18419 6.05419 3.37273 2.24154ZM48.8523 26.8981L48.7057 28.0922C48.4543 28.176 48.182 28.2388 47.8677 28.2807C47.5744 28.3436 47.2183 28.3436 46.7993 28.3436C46.0242 28.3436 45.3958 28.155 44.893 27.757C44.4112 27.359 44.076 26.7515 43.8875 25.9764C42.8819 26.8143 41.8345 27.4218 40.7661 27.8199C39.7187 28.2179 38.6084 28.4274 37.4562 28.4274C35.906 28.4274 34.712 27.9875 33.8531 27.1286C32.9942 26.2487 32.5542 25.0546 32.5542 23.5044C32.5542 21.4515 33.4969 19.8384 35.4033 18.6443C37.2886 17.4922 40.012 16.8218 43.5523 16.6961L43.5523 16.0677C43.5523 14.4337 43.2171 13.2396 42.5258 12.5273C41.8555 11.7941 40.7242 11.438 39.195 11.438C38.2942 11.438 37.4562 11.5427 36.6811 11.7732C35.906 11.9827 35.1728 12.3178 34.4815 12.7578L34.293 10.3696C35.0471 10.0554 35.8432 9.82496 36.7021 9.67832C37.54 9.53167 38.4408 9.46883 39.3626 9.46883C40.7661 9.46883 41.9392 9.67832 42.9029 10.0973C43.8875 10.5372 44.5997 11.1657 45.0606 11.9827C45.3958 12.5483 45.6053 13.2396 45.7519 14.0566C45.8776 14.8526 45.9404 16.0048 45.9404 17.4712L45.9404 20.006L45.9404 20.7811C45.9614 23.5044 46.1499 25.2222 46.4851 25.8926C46.8412 26.5839 47.4487 26.9191 48.3495 26.9191C48.4752 26.9191 48.58 26.9191 48.6638 26.9191C48.7266 26.8981 48.7895 26.8981 48.8523 26.8981ZM43.5523 18.2463C40.7661 18.3092 38.6503 18.791 37.1839 19.6708C35.7175 20.5507 34.9843 21.7866 34.9843 23.3997C34.9843 24.3214 35.2985 25.0756 35.906 25.6412C36.4926 26.2068 37.3096 26.4792 38.3151 26.4792C39.2159 26.4792 40.1377 26.3325 41.0385 25.9973C41.9392 25.6831 42.84 25.2013 43.7199 24.5728C43.657 24.0701 43.6151 23.4625 43.5942 22.7503C43.5732 22.038 43.5523 21.1582 43.5523 20.1317L43.5523 18.2463ZM55.1579 18.0159C56.3938 16.6752 57.5879 15.3135 58.7191 13.9309C59.8504 12.5483 60.8978 11.1657 61.8824 9.74116L65.1085 9.74116C63.9354 10.9352 62.7413 12.2131 61.5263 13.5538C60.3322 14.8736 59.1172 16.2771 57.9021 17.7226C58.761 18.5396 60.2065 20.1945 62.2595 22.6455C64.3124 25.1175 66.0721 26.94 67.5385 28.1341L63.4954 28.1341C61.6938 25.6831 60.1646 23.7349 58.9077 22.2894C57.6298 20.844 56.3938 19.587 55.1579 18.5187C55.1369 18.791 55.116 19.0843 55.116 19.3985C55.116 19.6918 55.095 20.0689 55.095 20.5297C55.095 21.2839 55.1369 22.3313 55.1998 23.6301C55.2626 24.9289 55.3673 26.4373 55.4721 28.1341L52.3088 28.1341C52.4345 26.3116 52.5183 24.1748 52.5812 21.7238C52.644 19.2728 52.665 16.5704 52.665 13.6376C52.665 11.3961 52.6231 9.21745 52.5393 7.10163C52.4555 4.96486 52.3088 2.93284 52.1413 1.00557C52.644 0.900822 53.1677 0.796079 53.6705 0.649438C54.1942 0.523746 54.7179 0.377106 55.2207 0.230465C55.1788 1.90636 55.1579 3.66605 55.1369 5.50953C55.116 7.37396 55.095 9.28029 55.095 11.2495C55.095 13.072 55.116 14.4337 55.116 15.3764C55.116 16.2981 55.1369 17.1779 55.1579 18.0159ZM73.865 13.3234C74.0536 13.3653 74.2421 13.3862 74.4516 13.3862C74.6611 13.3862 74.9753 13.3862 75.3733 13.3862C77.8872 13.3862 79.7516 13.0092 80.9457 12.276C82.1398 11.5218 82.7263 10.3906 82.7263 8.81942C82.7263 7.22732 82.1607 6.0542 81.0504 5.32099C79.9192 4.56684 78.1595 4.18977 75.7714 4.18977C75.4152 4.18977 74.8706 4.21071 74.1374 4.25261C74.0536 4.25261 73.9907 4.27356 73.9488 4.27356C73.9279 5.00676 73.9279 6.43127 73.9069 8.52614C73.9069 10.621 73.886 12.2131 73.865 13.3234ZM73.9069 26.0811C73.9279 26.0811 73.9698 26.0811 74.0117 26.0811C74.8706 26.123 75.4781 26.144 75.8552 26.144C78.4528 26.144 80.401 25.725 81.6789 24.8871C82.9777 24.0701 83.6271 22.8131 83.6271 21.1163C83.6271 19.189 82.9358 17.7226 81.5741 16.738C80.2125 15.7534 78.2014 15.2507 75.52 15.2507C75.2057 15.2507 74.703 15.2926 73.9907 15.3345L73.865 15.3345L73.865 18.8748C73.865 21.0115 73.865 22.5618 73.886 23.5254C73.886 24.489 73.9069 25.3479 73.9069 26.0811ZM70.7856 28.1341C70.9322 26.144 71.037 24.0701 71.0998 21.9333C71.1836 19.7756 71.2045 17.5341 71.2045 15.2297C71.2045 12.9044 71.1836 10.6629 71.0998 8.50519C71.037 6.34748 70.9322 4.25261 70.7856 2.24154L74.2002 2.24154C76.5674 2.24154 78.2852 2.30438 79.3117 2.43008C80.3382 2.57672 81.218 2.7862 81.9093 3.07949C82.9568 3.51941 83.7738 4.23166 84.3813 5.17435C84.9678 6.11704 85.2821 7.20637 85.2821 8.4214C85.2821 9.9297 84.8631 11.2076 84.0251 12.2131C83.1872 13.2186 81.9722 13.9309 80.401 14.308C82.2445 14.706 83.669 15.4811 84.6745 16.6333C85.6591 17.7855 86.1619 19.2309 86.1619 20.9278C86.1619 23.3159 85.303 25.0965 83.6271 26.3116C81.9303 27.5266 79.4583 28.1341 76.1903 28.1341L70.7856 28.1341ZM103.047 25.8507C101.371 26.8143 99.9671 27.5056 98.8358 27.9246C97.6837 28.3436 96.6781 28.5531 95.8192 28.5531C94.2271 28.5531 93.054 28.0294 92.3208 26.9819C91.1267 25.2851 91.2105 22.7084 91.2105 20.6973C91.2105 18.0368 91.1686 15.7325 91.1058 13.8471C91.0429 11.9408 90.9382 10.621 90.8125 9.8878C91.3781 9.86686 91.9437 9.84591 92.4884 9.80401C93.0331 9.76211 93.5568 9.72022 94.0386 9.67832C93.9129 12.0665 93.8291 14.0775 93.7663 15.7115C93.7034 17.3455 93.6825 18.791 93.6825 20.027C93.6825 22.5408 93.9129 24.1957 94.3738 25.0337C94.8347 25.8507 95.6517 26.2697 96.8457 26.2697C97.6627 26.2697 98.5845 26.123 99.59 25.8297C100.596 25.5365 101.664 25.0965 102.795 24.5309L102.795 22.9807C102.795 20.5088 102.753 18.1835 102.669 16.0048C102.586 13.8471 102.46 11.8151 102.292 9.88781C102.732 9.86686 103.214 9.84591 103.738 9.80401C104.262 9.78306 104.848 9.74116 105.477 9.67832C105.393 11.1238 105.351 12.5273 105.309 13.889C105.267 15.2507 105.267 16.5704 105.267 17.8483C105.267 20.1527 105.309 22.1218 105.414 23.7558C105.518 25.3898 105.686 26.8353 105.917 28.0922C105.854 28.0922 105.791 28.0713 105.728 28.0713C105.644 28.0713 105.539 28.0713 105.393 28.0713C105.183 28.0713 104.953 28.0713 104.722 28.1132C104.471 28.1341 104.199 28.176 103.905 28.2388L103.047 25.8507ZM119.805 9.74117L119.994 11.857C119.428 11.6475 118.905 11.5009 118.36 11.3961C117.836 11.3123 117.313 11.2495 116.831 11.2495C115.49 11.2495 114.464 11.5009 113.751 11.9827C113.018 12.4645 112.662 13.1558 112.662 14.0566C112.662 14.6641 112.871 15.2088 113.269 15.6696C113.668 16.1305 114.547 16.759 115.909 17.5341C117.962 18.7072 119.261 19.6708 119.805 20.425C120.35 21.1791 120.622 22.1009 120.622 23.1693C120.622 24.7823 120.015 26.0811 118.821 27.0657C117.627 28.0503 116.035 28.5531 114.066 28.5531C113.479 28.5531 112.871 28.4902 112.222 28.3855C111.594 28.2598 110.923 28.0922 110.232 27.8827L109.876 25.5993C110.651 25.9554 111.426 26.2068 112.159 26.3744C112.913 26.542 113.668 26.6258 114.401 26.6258C115.658 26.6258 116.6 26.3744 117.25 25.8297C117.899 25.306 118.234 24.5309 118.234 23.5044C118.234 22.8341 118.025 22.2475 117.627 21.7448C117.229 21.242 116.244 20.5507 114.652 19.6499C112.788 18.5606 111.594 17.6807 111.091 16.9894C110.567 16.2981 110.316 15.4392 110.316 14.4546C110.316 12.8835 110.881 11.6265 112.013 10.7048C113.144 9.80401 114.694 9.34314 116.642 9.34314C117.04 9.34314 117.48 9.36409 117.983 9.42694C118.486 9.51073 119.093 9.61547 119.805 9.74117ZM127.955 0.230468C127.913 1.21506 127.892 2.43008 127.871 3.91743C127.85 5.38384 127.85 8.00243 127.85 11.7732C129.253 10.9143 130.552 10.2649 131.725 9.80401C132.898 9.36409 133.946 9.1546 134.868 9.1546C136.208 9.1546 137.277 9.57358 138.073 10.4325C138.869 11.2914 139.33 12.5064 139.455 14.0985L139.455 15.2926C139.455 17.9949 139.497 20.3202 139.602 22.3104C139.686 24.2795 139.811 26.2278 140 28.1341L136.837 28.1341C136.941 26.1859 137.004 24.4681 137.046 22.9807C137.088 21.4934 137.109 20.1108 137.109 18.8329C137.109 15.5439 136.858 13.491 136.397 12.674C135.915 11.836 135.035 11.438 133.736 11.438C133.024 11.438 132.165 11.5846 131.16 11.8779C130.175 12.1712 129.044 12.6111 127.787 13.2186C127.787 13.491 127.787 13.9518 127.766 14.5384C127.766 15.1459 127.745 15.6068 127.745 15.921C127.745 17.8693 127.787 19.8594 127.871 21.9123C127.955 23.9444 128.059 26.0183 128.206 28.1341L125.043 28.1341C125.147 26.3116 125.252 24.1748 125.294 21.7238C125.357 19.2728 125.399 16.5704 125.399 13.6376C125.399 11.3961 125.357 9.21745 125.252 7.10163C125.168 4.96487 125.043 2.93285 124.854 1.00557C125.378 0.900826 125.881 0.796082 126.404 0.649442C126.907 0.52375 127.431 0.377109 127.955 0.230468Z" fill="#262829"/>
</svg>
