<svg width="260" height="53" viewBox="0 0 260 53" fill="none" xmlns="http://www.w3.org/2000/svg">
<mask id="mask0" mask-type="alpha" maskUnits="userSpaceOnUse" x="0" y="0" width="260" height="53">
<rect x="0.731689" width="258.537" height="53" fill="#C4C4C4"/>
</mask>
<g mask="url(#mask0)">
<path d="M175.497 4.82776L175.574 5.94781C175.342 5.87056 175.033 5.79332 174.763 5.7547C174.493 5.71607 174.184 5.71607 173.875 5.71607C172.639 5.71607 171.673 6.02505 171.017 6.68163C170.321 7.3382 169.974 8.26513 169.974 9.4238C169.974 10.6211 170.283 11.5094 170.862 12.1273C171.48 12.7839 172.368 13.0929 173.488 13.0929C173.875 13.0929 174.261 13.0543 174.686 12.977C175.072 12.8612 175.458 12.7453 175.883 12.5908L175.651 13.7109C175.304 13.8653 174.956 13.9812 174.57 14.0585C174.184 14.1357 173.836 14.1357 173.45 14.1357C171.905 14.1357 170.708 13.7495 169.858 12.977C169.008 12.2046 168.583 11.0846 168.583 9.69415C168.583 8.14927 169.047 6.91336 169.974 6.02505C170.862 5.13674 172.137 4.67328 173.759 4.67328C174.184 4.67328 174.531 4.67328 174.763 4.7119C175.033 4.75052 175.265 4.78914 175.497 4.82776ZM182.333 5.56159C181.251 5.56159 180.402 5.87056 179.822 6.52714C179.282 7.18371 179.011 8.14927 179.011 9.4238C179.011 10.6597 179.282 11.6253 179.861 12.2818C180.402 12.9384 181.251 13.286 182.333 13.286C183.453 13.286 184.264 12.9384 184.843 12.3205C185.384 11.6639 185.654 10.6983 185.654 9.4238C185.654 8.11065 185.384 7.14509 184.843 6.52714C184.264 5.87056 183.453 5.56159 182.333 5.56159ZM182.333 4.55741C183.878 4.55741 185.075 4.98225 185.925 5.83194C186.736 6.68163 187.161 7.87891 187.161 9.4238C187.161 10.9687 186.736 12.166 185.886 13.0157C185.036 13.8653 183.878 14.2902 182.333 14.2902C180.827 14.2902 179.629 13.8653 178.78 13.0157C177.93 12.1273 177.505 10.9301 177.505 9.4238C177.505 7.87891 177.93 6.68163 178.78 5.83194C179.629 4.98225 180.827 4.55741 182.333 4.55741ZM195.31 0.038621L195.464 1.12004C195.271 1.12004 195.117 1.08142 194.962 1.08142C194.846 1.08142 194.692 1.08142 194.537 1.08142C193.649 1.08142 192.954 1.31315 192.529 1.85386C192.066 2.35595 191.873 3.20564 191.873 4.28706C191.873 4.44154 191.873 4.55741 191.873 4.63465C191.873 4.7119 191.873 4.78914 191.911 4.82777L194.46 4.82777L194.19 5.83194L191.911 5.83194C191.911 8.11065 191.911 9.88726 191.911 11.0846C191.95 12.2818 191.988 13.2474 192.027 13.9812L190.366 13.9812C190.405 13.4405 190.444 12.5522 190.444 11.3163C190.482 10.119 190.482 8.30376 190.482 5.83194L189.13 5.83194L189.053 4.98225L190.482 4.82777C190.482 4.78914 190.482 4.7119 190.482 4.59603C190.482 4.51879 190.482 4.44154 190.482 4.40292C190.482 3.05115 190.791 1.96973 191.409 1.19728C192.027 0.38622 192.838 -1.2476e-06 193.804 -1.20539e-06C194.035 -1.19527e-06 194.229 -1.18682e-06 194.344 -1.18176e-06C194.499 -1.17501e-06 194.653 -1.16825e-06 194.808 0.038621C194.885 0.038621 194.962 0.038621 195.078 0.038621C195.194 0.038621 195.271 0.038621 195.31 0.038621ZM201.876 0.0386213L202.069 1.12004C201.876 1.12004 201.721 1.08142 201.567 1.08142C201.412 1.08142 201.258 1.08142 201.142 1.08142C200.215 1.08142 199.558 1.31315 199.095 1.85386C198.67 2.35595 198.438 3.20564 198.438 4.28706C198.438 4.44154 198.477 4.55741 198.477 4.63465C198.477 4.7119 198.477 4.78914 198.477 4.82777L201.065 4.82777L200.794 5.83194L198.477 5.83194C198.477 8.11065 198.516 9.88727 198.516 11.0846C198.554 12.2818 198.593 13.2474 198.631 13.9812L196.971 13.9812C197.009 13.4405 197.048 12.5522 197.048 11.3163C197.087 10.119 197.087 8.30376 197.087 5.83194L195.735 5.83194L195.619 4.98225L197.087 4.82777C197.087 4.78914 197.087 4.7119 197.048 4.59603C197.048 4.51879 197.048 4.44154 197.048 4.40292C197.048 3.05115 197.357 1.96973 197.975 1.19729C198.593 0.38622 199.404 -9.60601e-07 200.408 -9.16708e-07C200.64 -9.06578e-07 200.794 -8.99825e-07 200.949 -8.93072e-07C201.103 -8.86319e-07 201.258 -8.79567e-07 201.374 0.0386213C201.451 0.0386213 201.567 0.0386213 201.683 0.0386213C201.798 0.0386213 201.876 0.0386213 201.876 0.0386213ZM210.913 9.46242L203.845 9.46242C203.845 10.6983 204.154 11.6639 204.772 12.2818C205.352 12.8612 206.24 13.1701 207.437 13.1701C207.901 13.1701 208.364 13.1315 208.828 13.0543C209.291 12.9384 209.793 12.8225 210.257 12.6294L210.179 13.6722C209.639 13.8267 209.137 13.9812 208.673 14.0585C208.21 14.1357 207.708 14.2129 207.244 14.2129C205.661 14.2129 204.425 13.7881 203.575 12.977C202.764 12.1273 202.339 10.9301 202.339 9.34656C202.339 7.87891 202.725 6.72025 203.536 5.83194C204.309 4.98225 205.39 4.55741 206.742 4.55741C208.055 4.55741 209.059 4.94363 209.793 5.79332C210.527 6.60438 210.913 7.72443 210.913 9.19207L210.913 9.46242ZM209.446 8.53549C209.407 7.53132 209.175 6.7975 208.712 6.29541C208.248 5.79332 207.592 5.56159 206.703 5.56159C205.892 5.56159 205.236 5.79332 204.734 6.33403C204.232 6.83612 203.961 7.56994 203.923 8.53549L209.446 8.53549ZM221.38 9.46242L214.312 9.46242C214.312 10.6983 214.621 11.6639 215.239 12.2818C215.818 12.8612 216.707 13.1701 217.865 13.1701C218.367 13.1701 218.831 13.1315 219.294 13.0543C219.758 12.9384 220.26 12.8225 220.723 12.6294L220.607 13.6722C220.105 13.8267 219.603 13.9812 219.14 14.0585C218.638 14.1357 218.174 14.2129 217.711 14.2129C216.127 14.2129 214.891 13.7881 214.042 12.977C213.231 12.1274 212.806 10.9301 212.806 9.34656C212.806 7.87891 213.192 6.72025 214.003 5.83194C214.775 4.98225 215.857 4.55741 217.209 4.55741C218.522 4.55741 219.526 4.94363 220.26 5.79332C220.994 6.60439 221.38 7.72443 221.38 9.19207L221.38 9.46242ZM219.912 8.53549C219.874 7.53132 219.642 6.7975 219.178 6.29541C218.715 5.79332 218.058 5.56159 217.17 5.56159C216.359 5.56159 215.702 5.79332 215.2 6.33403C214.698 6.83612 214.428 7.56994 214.351 8.53549L219.912 8.53549Z" fill="white"/>
<path d="M6.94987 4.13243L16.3351 4.13243C17.6482 9.03744 19.3476 14.8308 21.4332 21.4351C23.5188 28.0782 25.9133 35.2233 28.6169 42.9477C30.8184 35.9185 32.8653 29.121 34.7192 22.5938C36.5731 16.0667 38.1952 9.92575 39.6242 4.13243L49.1639 4.13243C49.5115 11.8182 50.2453 19.6199 51.3267 27.5761C52.4468 35.5322 53.9144 43.6429 55.8069 51.8694L49.2025 51.8694C48.9321 46.8871 48.3528 40.7076 47.5031 33.3308C46.6534 25.9153 45.5334 17.1481 44.0658 6.99047C41.7484 13.3245 39.4697 20.122 37.3069 27.4602C35.1054 34.7984 32.904 42.9477 30.7025 51.8694L26.6472 51.8694C23.7891 42.1366 21.2014 33.7556 18.8841 26.6878C16.5282 19.6585 14.1336 13.0928 11.739 6.99047C10.7348 13.5562 9.80792 20.6241 8.95824 28.1554C8.10853 35.7253 7.37472 43.6043 6.75677 51.8694L0.731718 51.8694C2.46969 42.9477 3.82149 34.5281 4.86429 26.6105C5.90707 18.6544 6.60228 11.1617 6.94987 4.13243ZM90.7986 49.5907L90.5282 51.7922C90.0647 51.9466 89.5627 52.0625 88.9833 52.1398C88.4426 52.2556 87.786 52.2556 87.0136 52.2556C85.5846 52.2556 84.4259 51.908 83.499 51.1742C82.6107 50.4404 81.9927 49.3203 81.6451 47.8913C79.7912 49.4362 77.8601 50.5562 75.8904 51.2901C73.9593 52.0239 71.9123 52.4101 69.7881 52.4101C66.9301 52.4101 64.7286 51.599 63.1451 50.0155C61.5616 48.3934 60.7505 46.1919 60.7505 43.3339C60.7505 39.5489 62.4885 36.575 66.0031 34.3736C69.4791 32.2493 74.5 31.0134 81.0271 30.7817L81.0271 29.623C81.0271 26.6105 80.4092 24.4091 79.1347 23.0959C77.8988 21.7441 75.8132 21.0876 72.9937 21.0876C71.333 21.0876 69.7881 21.2807 68.3591 21.7055C66.9301 22.0917 65.5783 22.7097 64.3038 23.5207L63.9562 19.1178C65.3466 18.5385 66.8142 18.1136 68.3977 17.8433C69.9426 17.5729 71.6033 17.4571 73.3027 17.4571C75.8904 17.4571 78.0533 17.8433 79.8299 18.6157C81.6451 19.4268 82.9583 20.5855 83.808 22.0917C84.4259 23.1345 84.8121 24.4091 85.0825 25.9153C85.3142 27.383 85.4301 29.5072 85.4301 32.2107L85.4301 36.884L85.4301 38.313C85.4687 43.3339 85.8163 46.5009 86.4342 47.7368C87.0908 49.0114 88.2109 49.6293 89.8716 49.6293C90.1034 49.6293 90.2965 49.6293 90.451 49.6293C90.5668 49.5907 90.6827 49.5907 90.7986 49.5907ZM81.0271 33.6397C75.8904 33.7556 71.9896 34.6439 69.286 36.2661C66.5825 37.8882 65.2307 40.1669 65.2307 43.1408C65.2307 44.8402 65.81 46.2306 66.9301 47.2734C68.0115 48.3162 69.5177 48.8182 71.3716 48.8182C73.0324 48.8182 74.7317 48.5479 76.3925 47.9299C78.0533 47.3506 79.714 46.4623 81.3361 45.3036C81.2203 44.3767 81.143 43.2567 81.1044 41.9435C81.0658 40.6304 81.0271 39.0082 81.0271 37.1157L81.0271 33.6397ZM102.424 33.2149C104.703 30.7431 106.904 28.2326 108.99 25.6836C111.075 23.1345 113.006 20.5855 114.822 17.9592L120.769 17.9592C118.607 20.1606 116.405 22.5166 114.165 24.9884C111.963 27.4216 109.723 30.0093 107.483 32.6742C109.067 34.1805 111.732 37.2316 115.517 41.7504C119.302 46.3078 122.546 49.6679 125.25 51.8694L117.795 51.8694C114.474 47.3506 111.655 43.7587 109.337 41.0938C106.981 38.4289 104.703 36.1116 102.424 34.1418C102.385 34.6439 102.347 35.1846 102.347 35.764C102.347 36.3047 102.308 36.9999 102.308 37.8496C102.308 39.24 102.385 41.1711 102.501 43.5656C102.617 45.9602 102.81 48.741 103.003 51.8694L97.1712 51.8694C97.4029 48.5093 97.5574 44.5698 97.6733 40.051C97.7892 35.5322 97.8278 30.55 97.8278 25.1429C97.8278 21.0103 97.7505 16.9936 97.5961 13.0928C97.4416 9.15331 97.1712 5.40696 96.8622 1.85373C97.7892 1.66061 98.7547 1.4675 99.6816 1.19715C100.647 0.965416 101.613 0.695061 102.54 0.424706C102.462 3.51448 102.424 6.75874 102.385 10.1575C102.347 13.5949 102.308 17.1095 102.308 20.74C102.308 24.1001 102.347 26.6105 102.347 28.3485C102.347 30.0479 102.385 31.67 102.424 33.2149ZM136.913 24.5635C137.261 24.6408 137.609 24.6794 137.995 24.6794C138.381 24.6794 138.96 24.6794 139.694 24.6794C144.329 24.6794 147.766 23.9842 149.968 22.6324C152.169 21.242 153.251 19.1564 153.251 16.2598C153.251 13.3245 152.208 11.1617 150.161 9.80989C148.075 8.41949 144.831 7.72429 140.428 7.72429C139.771 7.72429 138.767 7.76291 137.415 7.84016C137.261 7.84016 137.145 7.87878 137.068 7.87878C137.029 9.23056 137.029 11.8569 136.991 15.7191C136.991 19.5813 136.952 22.5166 136.913 24.5635ZM136.991 48.0844C137.029 48.0844 137.107 48.0844 137.184 48.0844C138.767 48.1617 139.887 48.2003 140.582 48.2003C145.372 48.2003 148.963 47.4279 151.319 45.883C153.714 44.3767 154.911 42.0594 154.911 38.931C154.911 35.3777 153.637 32.6742 151.126 30.859C148.616 29.0437 144.908 28.1168 139.965 28.1168C139.385 28.1168 138.458 28.194 137.145 28.2713L136.913 28.2713L136.913 34.7984C136.913 38.7379 136.913 41.5959 136.952 43.3725C136.952 45.1491 136.991 46.7327 136.991 48.0844ZM131.236 51.8694C131.506 48.2003 131.699 44.3767 131.815 40.4372C131.97 36.4592 132.008 32.3266 132.008 28.0782C132.008 23.7911 131.97 19.6585 131.815 15.6805C131.699 11.7024 131.506 7.84016 131.236 4.13243L137.531 4.13243C141.896 4.13243 145.063 4.2483 146.955 4.48003C148.848 4.75039 150.47 5.13661 151.744 5.67732C153.675 6.48838 155.182 7.80154 156.302 9.53953C157.383 11.2775 157.962 13.2859 157.962 15.526C157.962 18.3068 157.19 20.6627 155.645 22.5166C154.1 24.3704 151.86 25.6836 148.963 26.3788C152.362 27.1126 154.989 28.5416 156.842 30.6658C158.658 32.7901 159.585 35.455 159.585 38.5834C159.585 42.9863 158.001 46.2692 154.911 48.5093C151.783 50.7494 147.226 51.8694 141.2 51.8694L131.236 51.8694ZM190.714 47.6596C187.624 49.4362 185.037 50.7107 182.951 51.4832C180.827 52.2556 178.973 52.6418 177.389 52.6418C174.454 52.6418 172.291 51.6763 170.94 49.7452C168.738 46.6168 168.893 41.8663 168.893 38.1585C168.893 33.2535 168.815 29.0051 168.699 25.5291C168.584 22.0145 168.39 19.5813 168.159 18.2295C169.202 18.1909 170.244 18.1523 171.248 18.075C172.253 17.9978 173.218 17.9205 174.107 17.8433C173.875 22.2462 173.72 25.9539 173.604 28.9665C173.489 31.979 173.45 34.6439 173.45 36.9226C173.45 41.5573 173.875 44.6084 174.724 46.1533C175.574 47.6596 177.08 48.432 179.282 48.432C180.788 48.432 182.488 48.1617 184.341 47.621C186.195 47.0803 188.165 46.2692 190.251 45.2264L190.251 42.3684C190.251 37.8109 190.173 33.5239 190.019 29.5072C189.864 25.5291 189.633 21.7828 189.324 18.2295C190.135 18.1909 191.023 18.1523 191.989 18.075C192.954 18.0364 194.036 17.9592 195.194 17.8433C195.04 20.5082 194.962 23.0959 194.885 25.6063C194.808 28.1168 194.808 30.55 194.808 32.9059C194.808 37.1544 194.885 40.7848 195.078 43.7974C195.271 46.8099 195.58 49.4748 196.005 51.7922C195.889 51.7922 195.774 51.7535 195.658 51.7535C195.503 51.7535 195.31 51.7535 195.04 51.7535C194.654 51.7535 194.229 51.7535 193.804 51.8308C193.34 51.8694 192.838 51.9466 192.298 52.0625L190.714 47.6596ZM221.612 17.9592L221.959 21.86C220.917 21.4738 219.951 21.2034 218.947 21.0103C217.981 20.8558 217.016 20.74 216.127 20.74C213.656 20.74 211.763 21.2034 210.45 22.0917C209.098 22.98 208.442 24.2546 208.442 25.9153C208.442 27.0354 208.828 28.0395 209.562 28.8892C210.295 29.7389 211.918 30.8976 214.428 32.3266C218.213 34.4894 220.608 36.2661 221.612 37.6565C222.616 39.0469 223.118 40.7462 223.118 42.716C223.118 45.6899 221.998 48.0844 219.797 49.8997C217.595 51.7149 214.66 52.6418 211.029 52.6418C209.948 52.6418 208.828 52.526 207.631 52.3329C206.472 52.1011 205.236 51.7922 203.961 51.4059L203.305 47.1961C204.734 47.8527 206.163 48.3162 207.515 48.6251C208.905 48.9341 210.295 49.0886 211.647 49.0886C213.965 49.0886 215.703 48.6251 216.9 47.621C218.097 46.6554 218.715 45.2264 218.715 43.3339C218.715 42.098 218.329 41.0166 217.595 40.0897C216.861 39.1627 215.046 37.8882 212.111 36.2274C208.673 34.2191 206.472 32.597 205.545 31.3224C204.579 30.0479 204.116 28.4644 204.116 26.6491C204.116 23.7525 205.159 21.4352 207.244 19.7358C209.33 18.075 212.188 17.2253 215.78 17.2253C216.514 17.2253 217.325 17.264 218.252 17.3798C219.179 17.5343 220.299 17.7274 221.612 17.9592ZM236.636 0.424712C236.559 2.23995 236.52 4.48004 236.481 7.22221C236.443 9.92576 236.443 14.7535 236.443 21.7055C239.03 20.122 241.425 18.9247 243.588 18.075C245.751 17.264 247.682 16.8777 249.381 16.8777C251.853 16.8777 253.823 17.6502 255.29 19.2337C256.758 20.8172 257.608 23.0573 257.839 25.9926L257.839 28.194C257.839 33.1763 257.917 37.4633 258.11 41.1325C258.264 44.7629 258.496 48.3548 258.844 51.8694L253.012 51.8694C253.205 48.2775 253.321 45.1105 253.398 42.3684C253.475 39.6262 253.514 37.0771 253.514 34.7212C253.514 28.6575 253.05 24.8725 252.2 23.3663C251.312 21.8214 249.69 21.0876 247.295 21.0876C245.982 21.0876 244.399 21.3579 242.545 21.8986C240.73 22.4393 238.644 23.2504 236.327 24.3704C236.327 24.8725 236.327 25.7222 236.288 26.8036C236.288 27.9237 236.25 28.7734 236.25 29.3527C236.25 32.9446 236.327 36.6137 236.481 40.3986C236.636 44.145 236.829 47.9686 237.099 51.8694L231.267 51.8694C231.46 48.5093 231.654 44.5698 231.731 40.051C231.847 35.5322 231.924 30.55 231.924 25.1429C231.924 21.0103 231.847 16.9936 231.654 13.0928C231.499 9.15332 231.267 5.40697 230.92 1.85373C231.885 1.66062 232.812 1.46751 233.778 1.19715C234.705 0.965422 235.67 0.695067 236.636 0.424712Z" fill="white"/>
</g>
</svg>
