<svg width="200" height="41" viewBox="0 0 200 41" fill="none" xmlns="http://www.w3.org/2000/svg">
<mask id="mask0" mask-type="alpha" maskUnits="userSpaceOnUse" x="0" y="0" width="200" height="41">
<rect width="200" height="41" fill="#C4C4C4"/>
</mask>
<g mask="url(#mask0)">
<path d="M135.196 3.73469L135.255 4.60113C135.076 4.54138 134.837 4.48162 134.628 4.45175C134.419 4.42187 134.18 4.42187 133.941 4.42187C132.985 4.42187 132.238 4.66089 131.73 5.16881C131.192 5.67672 130.923 6.39378 130.923 7.29011C130.923 8.21631 131.162 8.90349 131.61 9.38153C132.088 9.88945 132.776 10.1285 133.642 10.1285C133.941 10.1285 134.24 10.0986 134.568 10.0388C134.867 9.94921 135.166 9.85957 135.494 9.74006L135.315 10.6065C135.046 10.726 134.777 10.8157 134.479 10.8754C134.18 10.9352 133.911 10.9352 133.612 10.9352C132.417 10.9352 131.491 10.6364 130.834 10.0388C130.176 9.44129 129.848 8.57484 129.848 7.49925C129.848 6.30415 130.206 5.34807 130.923 4.66089C131.61 3.97371 132.596 3.61518 133.851 3.61518C134.18 3.61518 134.449 3.61518 134.628 3.64505C134.837 3.67493 135.016 3.70481 135.196 3.73469ZM140.484 4.30236C139.647 4.30236 138.99 4.54138 138.542 5.0493C138.124 5.55721 137.914 6.30415 137.914 7.29011C137.914 8.24619 138.124 8.99313 138.572 9.50104C138.99 10.009 139.647 10.2779 140.484 10.2779C141.35 10.2779 141.978 10.009 142.426 9.53092C142.844 9.023 143.053 8.27607 143.053 7.29011C143.053 6.27427 142.844 5.52734 142.426 5.0493C141.978 4.54138 141.35 4.30236 140.484 4.30236ZM140.484 3.52554C141.679 3.52554 142.605 3.8542 143.263 4.5115C143.89 5.16881 144.219 6.09501 144.219 7.29011C144.219 8.48521 143.89 9.41141 143.233 10.0687C142.575 10.726 141.679 11.0547 140.484 11.0547C139.319 11.0547 138.393 10.726 137.735 10.0687C137.078 9.38153 136.749 8.45533 136.749 7.29011C136.749 6.09501 137.078 5.16881 137.735 4.5115C138.393 3.8542 139.319 3.52554 140.484 3.52554ZM150.523 0.0298766L150.642 0.866447C150.493 0.866447 150.373 0.836569 150.254 0.836569C150.164 0.836569 150.045 0.836569 149.925 0.836569C149.238 0.836569 148.7 1.01583 148.372 1.43412C148.013 1.82253 147.864 2.47983 147.864 3.3164C147.864 3.43591 147.864 3.52554 147.864 3.5853C147.864 3.64505 147.864 3.70481 147.894 3.73469L149.866 3.73469L149.656 4.5115L147.894 4.5115C147.894 6.27427 147.894 7.64864 147.894 8.57484C147.923 9.50104 147.953 10.248 147.983 10.8157L146.698 10.8157C146.728 10.3974 146.758 9.71019 146.758 8.75411C146.788 7.8279 146.788 6.42366 146.788 4.5115L145.742 4.5115L145.683 3.8542L146.788 3.73469C146.788 3.70481 146.788 3.64505 146.788 3.55542C146.788 3.49567 146.788 3.43591 146.788 3.40603C146.788 2.36032 147.027 1.52375 147.505 0.926201C147.983 0.298774 148.611 -9.65125e-07 149.358 -9.32475e-07C149.537 -9.24639e-07 149.686 -9.18109e-07 149.776 -9.14191e-07C149.895 -9.08967e-07 150.015 -9.03743e-07 150.134 0.0298766C150.194 0.0298766 150.254 0.0298766 150.344 0.0298766C150.433 0.0298766 150.493 0.0298766 150.523 0.0298766ZM155.602 0.0298768L155.751 0.866447C155.602 0.866447 155.482 0.836569 155.363 0.836569C155.243 0.836569 155.124 0.836569 155.034 0.836569C154.317 0.836569 153.809 1.01583 153.451 1.43412C153.122 1.82253 152.943 2.47983 152.943 3.3164C152.943 3.43591 152.973 3.52554 152.973 3.5853C152.973 3.64505 152.973 3.70481 152.973 3.73469L154.975 3.73469L154.765 4.5115L152.973 4.5115C152.973 6.27427 153.003 7.64864 153.003 8.57484C153.033 9.50104 153.062 10.248 153.092 10.8157L151.808 10.8157C151.837 10.3974 151.867 9.71019 151.867 8.75411C151.897 7.8279 151.897 6.42366 151.897 4.5115L150.851 4.5115L150.762 3.8542L151.897 3.73469C151.897 3.70481 151.897 3.64505 151.867 3.55542C151.867 3.49567 151.867 3.43591 151.867 3.40603C151.867 2.36032 152.106 1.52375 152.584 0.926202C153.062 0.298774 153.69 -7.43107e-07 154.467 -7.09151e-07C154.646 -7.01315e-07 154.765 -6.96091e-07 154.885 -6.90867e-07C155.004 -6.85643e-07 155.124 -6.80419e-07 155.214 0.0298768C155.273 0.0298768 155.363 0.0298768 155.453 0.0298768C155.542 0.0298768 155.602 0.0298768 155.602 0.0298768ZM162.593 7.31999L157.126 7.31999C157.126 8.27607 157.365 9.023 157.843 9.50104C158.291 9.94921 158.978 10.1882 159.904 10.1882C160.263 10.1882 160.621 10.1583 160.98 10.0986C161.338 10.009 161.727 9.91933 162.085 9.76994L162.026 10.5766C161.607 10.6961 161.219 10.8157 160.86 10.8754C160.502 10.9352 160.113 10.9949 159.755 10.9949C158.53 10.9949 157.574 10.6663 156.917 10.0388C156.289 9.38153 155.961 8.45533 155.961 7.23035C155.961 6.09501 156.259 5.19868 156.887 4.5115C157.484 3.8542 158.321 3.52554 159.367 3.52554C160.382 3.52554 161.159 3.82432 161.727 4.48162C162.295 5.10905 162.593 5.9755 162.593 7.11084L162.593 7.31999ZM161.458 6.60293C161.428 5.82611 161.249 5.25844 160.89 4.87003C160.532 4.48162 160.024 4.30236 159.337 4.30236C158.709 4.30236 158.201 4.48162 157.813 4.89991C157.425 5.28832 157.215 5.85599 157.185 6.60293L161.458 6.60293ZM170.69 7.31999L165.223 7.31999C165.223 8.27607 165.462 9.023 165.94 9.50104C166.388 9.94921 167.075 10.1882 167.971 10.1882C168.36 10.1882 168.718 10.1583 169.077 10.0986C169.435 10.009 169.824 9.91933 170.182 9.76994L170.093 10.5766C169.704 10.6961 169.316 10.8157 168.957 10.8754C168.569 10.9352 168.21 10.9949 167.852 10.9949C166.627 10.9949 165.671 10.6663 165.013 10.0388C164.386 9.38153 164.057 8.45533 164.057 7.23035C164.057 6.09501 164.356 5.19868 164.984 4.5115C165.581 3.8542 166.418 3.52554 167.463 3.52554C168.479 3.52554 169.256 3.82432 169.824 4.48162C170.391 5.10905 170.69 5.9755 170.69 7.11084L170.69 7.31999ZM169.555 6.60293C169.525 5.82611 169.346 5.25844 168.987 4.87003C168.629 4.48162 168.121 4.30236 167.433 4.30236C166.806 4.30236 166.298 4.48162 165.91 4.89991C165.521 5.28832 165.312 5.85599 165.252 6.60293L169.555 6.60293Z" fill="#262829"/>
<path d="M4.81028 3.19678L12.0705 3.19678C13.0863 6.99123 14.401 11.4729 16.0143 16.5819C17.6277 21.7208 19.4801 27.2482 21.5716 33.2237C23.2746 27.786 24.8581 22.5275 26.2922 17.4782C27.7263 12.4289 28.9812 7.67841 30.0867 3.19679L37.4664 3.19679C37.7353 9.14241 38.303 15.1777 39.1395 21.3324C40.006 27.4872 41.1413 33.7615 42.6053 40.1254L37.4963 40.1254C37.2871 36.2712 36.839 31.4908 36.1817 25.7842C35.5244 20.0477 34.6579 13.2655 33.5226 5.40772C31.7299 10.3076 29.9671 15.5661 28.294 21.2428C26.591 26.9195 24.888 33.2237 23.1849 40.1254L20.0478 40.1254C17.8369 32.5962 15.8351 26.1128 14.0424 20.6452C12.2199 15.2075 10.3675 10.1284 8.51509 5.40772C7.73827 10.4869 7.02121 15.9545 6.36391 21.7806C5.7066 27.6366 5.13893 33.7316 4.66089 40.1254L-1.38008e-06 40.1254C1.34449 33.2237 2.3902 26.7104 3.19689 20.5855C4.00359 14.4307 4.54138 8.63449 4.81028 3.19678ZM69.6743 38.3626L69.4652 40.0656C69.1067 40.1851 68.7183 40.2748 68.2701 40.3345C67.8518 40.4242 67.3439 40.4242 66.7464 40.4242C65.6409 40.4242 64.7446 40.1553 64.0275 39.5876C63.3403 39.0199 62.8623 38.1535 62.5934 37.048C61.1593 38.2431 59.6654 39.1095 58.1416 39.6772C56.6478 40.2449 55.0642 40.5437 53.421 40.5437C51.21 40.5437 49.507 39.9162 48.2821 38.6913C47.0571 37.4364 46.4296 35.7334 46.4296 33.5225C46.4296 30.5945 47.7741 28.2939 50.493 26.5909C53.182 24.9476 57.066 23.9915 62.1153 23.8123L62.1153 22.9159C62.1153 20.5855 61.6373 18.8825 60.6513 17.8666C59.6953 16.8209 58.0819 16.313 55.9008 16.313C54.6161 16.313 53.421 16.4624 52.3155 16.7911C51.21 17.0898 50.1643 17.5679 49.1784 18.1953L48.9095 14.7893C49.9851 14.3411 51.1204 14.0124 52.3454 13.8033C53.5405 13.5942 54.8252 13.5045 56.1398 13.5045C58.1416 13.5045 59.8148 13.8033 61.1891 14.4009C62.5934 15.0283 63.6092 15.9246 64.2665 17.0898C64.7446 17.8965 65.0433 18.8825 65.2525 20.0477C65.4317 21.183 65.5214 22.8263 65.5214 24.9177L65.5214 28.5329L65.5214 29.6384C65.5513 33.5225 65.8201 35.9724 66.2982 36.9285C66.8061 37.9144 67.6726 38.3925 68.9573 38.3925C69.1366 38.3925 69.2859 38.3925 69.4054 38.3925C69.4951 38.3626 69.5847 38.3626 69.6743 38.3626ZM62.1153 26.0232C58.1416 26.1128 55.124 26.8 53.0326 28.0549C50.9412 29.3097 49.8954 31.0725 49.8954 33.3731C49.8954 34.6877 50.3436 35.7633 51.21 36.57C52.0466 37.3767 53.2118 37.7651 54.646 37.7651C55.9307 37.7651 57.2453 37.5559 58.53 37.0779C59.8148 36.6297 61.0995 35.9425 62.3544 35.0462C62.2647 34.3291 62.205 33.4627 62.1751 32.4469C62.1452 31.431 62.1153 30.1762 62.1153 28.7122L62.1153 26.0232ZM78.6675 25.6945C80.4303 23.7824 82.1333 21.8404 83.7467 19.8684C85.36 17.8965 86.8539 15.9246 88.2582 13.8929L92.8593 13.8929C91.1862 15.596 89.4831 17.4185 87.7502 19.3306C86.0472 21.2129 84.3143 23.2147 82.5814 25.2763C83.8064 26.4415 85.868 28.8018 88.796 32.2975C91.7239 35.823 94.2337 38.4224 96.3251 40.1254L90.5587 40.1254C87.9893 36.6297 85.8082 33.8511 84.0156 31.7896C82.193 29.728 80.4303 27.9354 78.6675 26.4116C78.6376 26.8 78.6077 27.2183 78.6077 27.6665C78.6077 28.0847 78.5778 28.6225 78.5778 29.2798C78.5778 30.3554 78.6376 31.8493 78.7272 33.7017C78.8169 35.5541 78.9663 37.7053 79.1156 40.1254L74.6041 40.1254C74.7834 37.526 74.9029 34.4785 74.9925 30.9829C75.0822 27.4872 75.1121 23.633 75.1121 19.4501C75.1121 16.2533 75.0523 13.146 74.9328 10.1284C74.8133 7.08086 74.6041 4.18274 74.3651 1.43401C75.0822 1.28463 75.8291 1.13524 76.5462 0.926097C77.2931 0.746832 78.0401 0.537689 78.7571 0.328547C78.6974 2.71875 78.6675 5.22846 78.6376 7.85768C78.6077 10.5168 78.5778 13.2356 78.5778 16.0441C78.5778 18.6435 78.6077 20.5855 78.6077 21.93C78.6077 23.2446 78.6376 24.4994 78.6675 25.6945ZM105.348 19.002C105.617 19.0617 105.886 19.0916 106.185 19.0916C106.483 19.0916 106.932 19.0916 107.499 19.0916C111.085 19.0916 113.744 18.5538 115.447 17.5081C117.15 16.4325 117.986 14.8191 117.986 12.5783C117.986 10.3076 117.18 8.63449 115.596 7.58878C113.983 6.51319 111.473 5.9754 108.067 5.9754C107.559 5.9754 106.782 6.00527 105.737 6.06503C105.617 6.06503 105.527 6.09491 105.468 6.09491C105.438 7.14062 105.438 9.17229 105.408 12.16C105.408 15.1478 105.378 17.4185 105.348 19.002ZM105.408 37.1974C105.438 37.1974 105.497 37.1974 105.557 37.1974C106.782 37.2571 107.649 37.287 108.186 37.287C111.891 37.287 114.67 36.6895 116.492 35.4944C118.345 34.3291 119.271 32.5365 119.271 30.1164C119.271 27.3677 118.285 25.2763 116.343 23.872C114.401 22.4678 111.533 21.7507 107.708 21.7507C107.26 21.7507 106.543 21.8105 105.527 21.8702L105.348 21.8702L105.348 26.9195C105.348 29.967 105.348 32.178 105.378 33.5523C105.378 34.9267 105.408 36.1517 105.408 37.1974ZM100.956 40.1254C101.165 37.287 101.315 34.3291 101.404 31.2816C101.524 28.2043 101.554 25.0074 101.554 21.7208C101.554 18.4044 101.524 15.2075 101.404 12.1302C101.315 9.05278 101.165 6.06503 100.956 3.19679L105.826 3.19679C109.202 3.19679 111.652 3.28642 113.116 3.46569C114.58 3.67483 115.835 3.9736 116.821 4.39189C118.315 5.01932 119.48 6.03515 120.347 7.37964C121.183 8.72413 121.631 10.2778 121.631 12.0107C121.631 14.1618 121.034 15.9844 119.839 17.4185C118.644 18.8526 116.911 19.8684 114.67 20.4062C117.299 20.9739 119.331 22.0794 120.765 23.7226C122.169 25.3659 122.886 27.4274 122.886 29.8475C122.886 33.2536 121.661 35.7931 119.271 37.526C116.851 39.2589 113.325 40.1254 108.664 40.1254L100.956 40.1254ZM146.967 36.8687C144.577 38.2431 142.575 39.2291 140.962 39.8266C139.319 40.4242 137.885 40.7229 136.66 40.7229C134.389 40.7229 132.716 39.976 131.67 38.4821C129.967 36.062 130.087 32.3871 130.087 29.5189C130.087 25.7244 130.027 22.4379 129.937 19.7489C129.848 17.0301 129.698 15.1478 129.519 14.1021C130.326 14.0722 131.132 14.0423 131.909 13.9826C132.686 13.9228 133.433 13.8631 134.12 13.8033C133.941 17.2093 133.821 20.0776 133.732 22.408C133.642 24.7385 133.612 26.8 133.612 28.5628C133.612 32.1481 133.941 34.5084 134.598 35.7035C135.255 36.8687 136.421 37.4663 138.124 37.4663C139.289 37.4663 140.604 37.2571 142.038 36.8389C143.472 36.4206 144.996 35.7931 146.609 34.9865L146.609 32.7755C146.609 29.25 146.549 25.9336 146.43 22.8263C146.31 19.7489 146.131 16.8508 145.892 14.1021C146.519 14.0722 147.206 14.0423 147.953 13.9826C148.7 13.9527 149.537 13.8929 150.433 13.8033C150.314 15.8649 150.254 17.8666 150.194 19.8087C150.134 21.7507 150.134 23.633 150.134 25.4555C150.134 28.7421 150.194 31.5505 150.344 33.881C150.493 36.2114 150.732 38.273 151.061 40.0656C150.971 40.0656 150.881 40.0358 150.792 40.0358C150.672 40.0358 150.523 40.0358 150.314 40.0358C150.015 40.0358 149.686 40.0358 149.358 40.0955C148.999 40.1254 148.611 40.1851 148.192 40.2748L146.967 36.8687ZM170.869 13.8929L171.138 16.9106C170.332 16.6118 169.585 16.4026 168.808 16.2533C168.061 16.1338 167.314 16.0441 166.627 16.0441C164.715 16.0441 163.251 16.4026 162.235 17.0898C161.189 17.777 160.681 18.763 160.681 20.0477C160.681 20.9142 160.98 21.691 161.548 22.3483C162.115 23.0056 163.37 23.9019 165.312 25.0074C168.24 26.6805 170.093 28.0549 170.869 29.1305C171.646 30.2061 172.035 31.5207 172.035 33.0444C172.035 35.345 171.168 37.1974 169.465 38.6016C167.762 40.0059 165.492 40.7229 162.683 40.7229C161.846 40.7229 160.98 40.6333 160.054 40.4839C159.157 40.3047 158.201 40.0656 157.215 39.7669L156.708 36.5102C157.813 37.0181 158.918 37.3767 159.964 37.6157C161.04 37.8547 162.115 37.9742 163.161 37.9742C164.954 37.9742 166.298 37.6157 167.224 36.8389C168.151 36.0919 168.629 34.9865 168.629 33.5225C168.629 32.5664 168.33 31.7298 167.762 31.0127C167.195 30.2957 165.79 29.3097 163.52 28.025C160.861 26.4714 159.157 25.2165 158.44 24.2306C157.693 23.2446 157.335 22.0196 157.335 20.6154C157.335 18.3746 158.142 16.5819 159.755 15.2673C161.368 13.9826 163.579 13.3253 166.358 13.3253C166.926 13.3253 167.553 13.3551 168.27 13.4448C168.987 13.5643 169.854 13.7137 170.869 13.8929ZM182.492 0.328551C182.432 1.73279 182.402 3.46569 182.372 5.58699C182.342 7.67842 182.342 11.4131 182.342 16.7911C184.344 15.5661 186.197 14.6399 187.87 13.9826C189.543 13.3551 191.037 13.0564 192.351 13.0564C194.264 13.0564 195.787 13.6539 196.923 14.8789C198.058 16.1039 198.715 17.8368 198.895 20.1075L198.895 21.8105C198.895 25.6647 198.954 28.9811 199.104 31.8194C199.223 34.6279 199.402 37.4065 199.671 40.1254L195.16 40.1254C195.309 37.3468 195.399 34.8968 195.459 32.7755C195.518 30.6542 195.548 28.6823 195.548 26.8598C195.548 22.169 195.19 19.241 194.532 18.0758C193.845 16.8807 192.59 16.313 190.738 16.313C189.722 16.313 188.497 16.5222 187.063 16.9404C185.659 17.3587 184.045 17.9862 182.253 18.8526C182.253 19.241 182.253 19.8983 182.223 20.7349C182.223 21.6013 182.193 22.2586 182.193 22.7068C182.193 25.4854 182.253 28.3238 182.372 31.2518C182.492 34.1499 182.641 37.1078 182.85 40.1254L178.339 40.1254C178.488 37.526 178.638 34.4785 178.697 30.9829C178.787 27.4872 178.847 23.633 178.847 19.4502C178.847 16.2533 178.787 13.146 178.638 10.1284C178.518 7.08087 178.339 4.18275 178.07 1.43402C178.817 1.28463 179.534 1.13524 180.281 0.926101C180.998 0.746836 181.745 0.537694 182.492 0.328551Z" fill="#262829"/>
</g>
</svg>
