<?xml version="1.0" standalone="no"?>
<!DOCTYPE svg PUBLIC "-//W3C//DTD SVG 1.1//EN" "http://www.w3.org/Graphics/SVG/1.1/DTD/svg11.dtd" >
<svg xmlns="http://www.w3.org/2000/svg" xmlns:xlink="http://www.w3.org/1999/xlink" version="1.1">
<metadata>
Created by FontForge 20170731 at Thu Mar 23 23:00:06 2017
 By Aleksey,,,
Copyright (c) 2015 by Grilli Type. All rights reserved.
</metadata>
<defs>
<font id="GTCinetype-Bold" horiz-adv-x="640" >
  <font-face 
    font-family="GT Cinetype Bold"
    font-weight="700"
    font-stretch="normal"
    units-per-em="1000"
    panose-1="0 0 8 0 0 0 0 0 0 0"
    ascent="754"
    descent="-246"
    x-height="527"
    cap-height="711"
    bbox="-454 -225 1440 962"
    underline-thickness="50"
    underline-position="-200"
    unicode-range="U+000D-FB02"
  />
<missing-glyph horiz-adv-x="1370" 
 />
    <glyph glyph-name="fi" unicode="fi" horiz-adv-x="660" 
d="M107 0v408h-90v106h90v136l58 86l87 26h41l80 -16l-28 -106l-64 16h-21l-28 -10l-18 -26v-106h368v-514h-107v408h-261v-408h-107zM458 609v145h141v-145h-141z" />
    <glyph glyph-name="fl" unicode="fl" horiz-adv-x="660" 
d="M111 0v408h-94v106h94v136l58 86l87 26h41l100 -21l-28 -106l-84 21h-21l-28 -10l-18 -26v-106h257v240h107v-754h-107v408h-257v-408h-107z" />
    <glyph glyph-name="f_f" unicode="ff" horiz-adv-x="770" 
d="M107 0v408h-90v106h90v136l58 86l87 26h41l100 -21l-28 -106l-84 21h-21l-28 -10l-18 -26v-106h260v136l58 86l87 26h41l100 -21l-28 -106l-84 21h-21l-28 -10l-18 -26v-106h127v-106h-127v-408h-107v408h-260v-408h-107z" />
    <glyph glyph-name="f_f_i" unicode="ffi" horiz-adv-x="1027" 
d="M107 0v408h-90v106h90v136l58 86l87 26h41l100 -21l-28 -106l-84 21h-21l-28 -10l-18 -26v-106h259v136l58 86l87 26h41l80 -16l-28 -106l-64 16h-21l-28 -10l-18 -26v-106h370v-514h-107v408h-263v-408h-107v408h-259v-408h-107zM825 609v145h141v-145h-141z" />
    <glyph glyph-name="f_f_l" unicode="ffl" horiz-adv-x="1027" 
d="M107 0v408h-90v106h90v136l58 86l87 26h41l100 -21l-28 -106l-84 21h-21l-28 -10l-18 -26v-106h260v136l58 86l87 26h41l100 -21l-28 -106l-84 21h-21l-28 -10l-18 -26v-106h261v240h107v-754h-107v408h-261v-408h-107v408h-260v-408h-107z" />
    <glyph glyph-name=".notdef" horiz-adv-x="1370" 
 />
    <glyph glyph-name=".null" horiz-adv-x="0" 
 />
    <glyph glyph-name="nonmarkingreturn" horiz-adv-x="333" 
 />
    <glyph glyph-name="CR" unicode="&#xd;" horiz-adv-x="282" 
 />
    <glyph glyph-name="space" unicode=" " horiz-adv-x="295" 
 />
    <glyph glyph-name="exclam" unicode="!" horiz-adv-x="279" 
d="M85 211v500h108v-500h-108zM68 0v147h142v-147h-142z" />
    <glyph glyph-name="quotedbl" unicode="&#x22;" horiz-adv-x="345" 
d="M42 436v275h100v-275h-100zM200 436v275h100v-275h-100z" />
    <glyph glyph-name="numbersign" unicode="#" horiz-adv-x="768" 
d="M202 -14l-88 27l56 179h-111v89h139l46 149h-127v89h154l63 206l88 -27l-56 -179h136l64 206l87 -27l-55 -179h111v-89h-139l-46 -149h126v-89h-153l-64 -206l-87 27l55 179h-136zM293 281h135l46 149h-135z" />
    <glyph glyph-name="dollar" unicode="$" 
d="M270 -111v103h-5l-96 34l-60 42l-33 40l86 67l24 -29l35 -26l59 -20h83l64 25l18 22l12 25v52l-14 31l-39 27l-200 57l-72 52l-34 54l-14 86l27 88l67 69l92 30v108h110v-111l96 -27l75 -46l-58 -94l-63 41l-79 22h-63l-51 -16l-31 -33l-12 -40l8 -39l9 -16l46 -31
l195 -56l81 -55l32 -79v-100l-26 -55l-50 -58l-111 -41v-103h-108z" />
    <glyph glyph-name="percent" unicode="%" horiz-adv-x="882" 
d="M221 -18l501 700l-65 47l-501 -700zM199 300l-52 23l-38 39l-20 48l-9 42v75l9 41l20 47l38 39l52 23h57l51 -23l37 -39l20 -47l9 -41v-75l-9 -42l-20 -48l-37 -39l-51 -23h-57zM259 389l17 16l8 24l8 30v60l-7 29l-8 22l-20 19l-19 10h-21l-20 -10l-21 -20l-8 -21
l-7 -29v-61l8 -29l8 -24l18 -15l23 -11h20zM628 32l-52 23l-38 39l-20 48l-9 42v75l9 41l20 47l38 39l52 23h57l51 -23l37 -39l20 -47l9 -41v-75l-9 -42l-20 -48l-37 -39l-51 -23h-57zM688 121l17 16l8 24l8 30v60l-7 29l-8 22l-20 19l-19 10h-21l-20 -10l-21 -20l-8 -21
l-7 -29v-61l8 -29l8 -24l18 -15l23 -11h20z" />
    <glyph glyph-name="ampersand" unicode="&#x26;" horiz-adv-x="658" 
d="M543 -20l-73 85l-33 -32l-53 -26l-61 -15h-92l-75 22l-78 72l-25 85v93l54 81l82 50l-50 57l-25 62v63l25 73l69 55l64 14h55l58 -14l70 -52l28 -72v-65l-29 -68l-62 -55l-40 -25l103 -123l13 63v46h109v-55l-21 -103l-22 -43l89 -102zM282 452l48 28l33 32l11 27v24
l-8 22l-25 19l-24 7h-30l-35 -7l-22 -21l-7 -21v-28l11 -27zM247 100h61l44 10l20 11l29 26l-142 165l-77 -46l-21 -33v-51l11 -35l38 -38z" />
    <glyph glyph-name="quotesingle" unicode="'" horiz-adv-x="183" 
d="M42 436v275h100v-275h-100z" />
    <glyph glyph-name="parenleft" unicode="(" horiz-adv-x="348" 
d="M205 -178l-73 105l-52 127l-33 172v155l33 173l53 121l73 104l87 -59l-62 -91l-45 -108l-31 -154v-127l30 -152l45 -115l62 -91z" />
    <glyph glyph-name="parenright" unicode=")" horiz-adv-x="348" 
d="M146 -172l-87 60l62 91l41 107l31 154v127l-30 152l-42 107l-62 91l87 59l73 -104l49 -118l33 -173v-155l-33 -172l-49 -121z" />
    <glyph glyph-name="asterisk" unicode="*" horiz-adv-x="514" 
d="M182 325l-76 56l72 99l-118 39l29 90l118 -40v126h95v-125l116 39l29 -90l-116 -39l73 -99l-76 -56l-74 99z" />
    <glyph glyph-name="plus" unicode="+" horiz-adv-x="580" 
d="M242 106v186h-176v95h176v186h96v-186h176v-95h-176v-186h-96z" />
    <glyph glyph-name="comma" unicode="," horiz-adv-x="279" 
d="M117 -134l-52 29l56 105l-49 19v120h135v-125z" />
    <glyph glyph-name="hyphen" unicode="-" horiz-adv-x="480" 
d="M70 261v95h340v-95h-340z" />
    <glyph glyph-name="period" unicode="." horiz-adv-x="279" 
d="M72 0v139h135v-139h-135z" />
    <glyph glyph-name="slash" unicode="/" horiz-adv-x="441" 
d="M154 -16l-96 31l223 712l96 -31z" />
    <glyph glyph-name="zero" unicode="0" horiz-adv-x="643" 
d="M273 -8l-94 44l-70 71l-36 87l-16 90v143l16 90l36 87l70 71l94 44h98l93 -44l71 -71l36 -87l16 -90v-143l-16 -90l-36 -87l-71 -71l-93 -44h-98zM296 100h51l52 25l44 45l21 54l15 72v123l-14 67l-21 56l-44 43l-53 26h-50l-54 -26l-43 -43l-21 -56l-14 -67v-123l14 -72
l22 -53l43 -46z" />
    <glyph glyph-name="one" unicode="1" horiz-adv-x="395" 
d="M204 0v567l-156 -80l-48 97l252 127h60v-711h-108z" />
    <glyph glyph-name="two" unicode="2" horiz-adv-x="505" 
d="M26 0v90l301 339l27 54v45l-33 55l-59 28h-61l-64 -30l-42 -44l-77 77l55 58l105 47h110l108 -53l67 -106v-100l-44 -90l-237 -263h288v-107h-444z" />
    <glyph glyph-name="three" unicode="3" horiz-adv-x="541" 
d="M182 -8l-100 43l-61 57l78 78l45 -45l59 -25h64l68 30l33 35l17 41v42l-15 39l-37 38l-78 32h-74v82l119 165h-226v107h375v-82l-135 -183l80 -31l69 -69l31 -81v-74l-30 -81l-67 -71l-106 -47h-109z" />
    <glyph glyph-name="four" unicode="4" horiz-adv-x="551" 
d="M309 0v177h-308v79l319 455h97v-427h103v-107h-103v-177h-108zM144 284h165v226z" />
    <glyph glyph-name="five" unicode="5" horiz-adv-x="566" 
d="M199 -8l-100 43l-61 57l77 78l45 -45l60 -25h64l68 30l33 36l17 41v49l-14 37l-42 42l-51 20h-85l-63 -22l-78 57l44 321h350v-107h-256l-22 -144l8 2h123l94 -36l70 -70l31 -82v-83l-30 -81l-67 -71l-106 -47h-109z" />
    <glyph glyph-name="six" unicode="6" horiz-adv-x="580" 
d="M246 -8l-104 52l-54 78l-22 78v288l25 90l68 91l106 50h102l102 -48l54 -52l-77 -77l-39 39l-65 30h-52l-59 -28q-7 -9 -20.5 -26t-20.5 -26l-16 -60v-42l9 9l86 35h95l106 -53l53 -77l18 -66v-87l-19 -71l-53 -74l-105 -53h-118zM271 100h69l56 28l22 31l15 45v60
l-11 35l-27 38l-54 29h-53l-61 -26l-41 -34l-12 -19v-73l14 -49l27 -37z" />
    <glyph glyph-name="seven" unicode="7" horiz-adv-x="467" 
d="M59 0l274 604h-304v107h434v-76l-282 -635h-122z" />
    <glyph glyph-name="eight" unicode="8" horiz-adv-x="583" 
d="M246 -8l-98 30l-70 68l-23 79v92l25 77l51 49l-32 28l-28 72v73l25 78l64 53l94 28h76l94 -28l63 -53l26 -78v-73l-29 -72l-32 -29l51 -48l25 -77v-94l-23 -77l-70 -68l-98 -30h-91zM251 437h83l33 11l28 28l9 28v42l-11 31l-24 20l-53 14h-49l-53 -14l-24 -20l-11 -31
v-42l10 -29l27 -28zM258 100h67l52 16l33 33l10 35v63l-11 34l-34 36l-38 14h-91l-37 -14l-35 -35l-10 -34v-62l9 -37l34 -33z" />
    <glyph glyph-name="nine" unicode="9" horiz-adv-x="580" 
d="M213 -8l-102 48l-53 52l77 78l39 -40l64 -30h53l58 26q33 39 41 51l16 58v49l-10 -9l-82 -34h-98l-107 53l-51 77l-19 66v84l19 71l53 74l105 53h118l104 -52l54 -78l22 -78v-293l-25 -88l-69 -91l-104 -47h-103zM239 348h56l61 25l40 35l10 20v69l-14 48q-2 4 -26 38
l-57 28h-69l-56 -28l-23 -32l-13 -44v-58l10 -34l27 -38z" />
    <glyph glyph-name="colon" unicode=":" horiz-adv-x="309" 
d="M87 380v139h135v-139h-135zM87 0v139h135v-139h-135z" />
    <glyph glyph-name="semicolon" unicode=";" horiz-adv-x="309" 
d="M87 380v139h135v-139h-135zM132 -134l-52 29l56 105l-49 19v120h135v-125z" />
    <glyph glyph-name="less" unicode="&#x3c;" horiz-adv-x="500" 
d="M389 21l-351 208v81l351 208l46 -78l-286 -171l286 -169z" />
    <glyph glyph-name="equal" unicode="=" horiz-adv-x="580" 
d="M66 372v95h448v-95h-448zM66 211v95h448v-95h-448z" />
    <glyph glyph-name="greater" unicode="&#x3e;" horiz-adv-x="500" 
d="M104 22l-46 79l286 170l-286 170l46 78l351 -208v-81z" />
    <glyph glyph-name="question" unicode="?" horiz-adv-x="562" 
d="M220 211v109l58 90l78 61l13 29l8 37l-10 39l-17 19l-44 16h-44l-47 -13l-22 -19l-7 -14l-9 -60l-107 17l13 77l23 48l60 49l80 23h78l85 -33l58 -57l20 -88l-13 -74l-30 -59l-77 -64l-39 -60v-73h-108zM203 0v147h142v-147h-142z" />
    <glyph glyph-name="at" unicode="@" horiz-adv-x="840" 
d="M368 -129l-110 38l-96 67l-74 101l-38 112v107l38 112l74 101l96 67l110 38h126l106 -27l91 -62l70 -98l30 -113v-127l-52 -111l-78 -60h-62l-55 32l-20 29l-8 -11l-73 -35h-53l-51 16l-38 22l-45 65v52l11 49l61 60l73 20h50l50 -16l5 -3v31l-7 18l-24 17l-31 7h-51
l-23 -7l-28 -17l-17 -17l-60 61l25 23l44 28l45 14h73l58 -14l59 -39l22 -56v-211l24 -32h24l33 28l33 73v93l-24 95l-50 70q-12 8 -34.5 24t-33.5 24l-85 19h-98l-82 -28l-77 -55l-58 -78l-28 -83v-83l28 -83q46 -64 58 -78q11 -7 36.5 -26t40.5 -29l82 -28h80l90 33
l38 -77l-115 -42h-105zM404 117h25l37 16l34 30l6 10v27l-7 7l-25 14l-33 9h-27l-43 -11l-26 -28l-4 -14v-18l18 -25l15 -7z" />
    <glyph glyph-name="A" unicode="A" horiz-adv-x="624" 
d="M497 0l-62 179h-246l-63 -179h-115l259 711h83l259 -711h-115zM226 285h172l-86 247z" />
    <glyph glyph-name="B" unicode="B" horiz-adv-x="639" 
d="M91 0v711h299l96 -26l69 -76l22 -98l-20 -79l-36 -47l-20 -10l20 -11l46 -61l23 -98l-24 -98l-55 -68l-84 -39h-336zM199 431h204l42 28l9 12l12 43l-11 43l-29 33l-44 14h-183v-173zM199 107h201l40 19l24 27l13 52l-13 59l-20 32l-44 27h-201v-216z" />
    <glyph glyph-name="C" unicode="C" 
d="M294 -8l-108 47l-68 69l-43 89l-19 85v147l19 87l42 87l72 70l105 46h111l106 -42l45 -35l48 -56l-78 -74l-42 48l-27 21l-68 30h-74l-63 -29l-45 -44l-28 -56l-15 -65v-122l15 -65l29 -58l43 -42l64 -30h74l70 30l26 21l41 48l78 -74l-48 -56l-45 -35l-106 -42h-111z
" />
    <glyph glyph-name="D" unicode="D" horiz-adv-x="663" 
d="M90 0v711h267l115 -45l69 -70l44 -87l21 -87v-133l-21 -87l-44 -87l-69 -70l-115 -45h-267zM198 107h138l73 31l43 43l27 56l19 69v99l-18 69l-29 58l-43 42l-72 30h-138v-497z" />
    <glyph glyph-name="E" unicode="E" horiz-adv-x="581" 
d="M89 0v711h457v-107h-348v-173h240v-108h-240v-216h348v-107h-457z" />
    <glyph glyph-name="F" unicode="F" horiz-adv-x="537" 
d="M89 0v711h434v-107h-326v-173h232v-108h-232v-323h-108z" />
    <glyph glyph-name="G" unicode="G" horiz-adv-x="677" 
d="M295 -8l-107 47l-69 69l-43 89l-19 85v147l19 87l42 87l72 70l105 46h111l106 -39l47 -36l48 -58l-81 -70l-38 48l-32 24l-68 23h-72l-63 -29l-44 -44l-29 -56l-14 -65v-122l14 -65l30 -58l42 -42l64 -30h74l51 23l41 35l28 46l7 30v33h-167v107h275v-146l-11 -60
l-44 -74l-71 -62l-89 -40h-115z" />
    <glyph glyph-name="H" unicode="H" horiz-adv-x="679" 
d="M91 0v711h108v-280h281v280h109v-711h-109v323h-281v-323h-108z" />
    <glyph glyph-name="I" unicode="I" horiz-adv-x="273" 
d="M83 0v711h108v-711h-108z" />
    <glyph glyph-name="J" unicode="J" horiz-adv-x="503" 
d="M179 -8l-70 28l-75 73l-24 103l106 29l16 -75l39 -41l27 -9h34l25 10l41 41l13 54v506h108v-524l-24 -94l-72 -73l-70 -28h-74z" />
    <glyph glyph-name="K" unicode="K" horiz-adv-x="665" 
d="M84 0v711h109v-332l310 332h152l-279 -296l282 -415h-132l-226 338l-107 -114v-224h-109z" />
    <glyph glyph-name="L" unicode="L" horiz-adv-x="522" 
d="M83 0v711h108v-604h311v-107h-419z" />
    <glyph glyph-name="M" unicode="M" horiz-adv-x="840" 
d="M91 0v711h103l226 -491l226 491h103v-711h-109v448l-170 -372h-99l-171 373v-449h-109z" />
    <glyph glyph-name="N" unicode="N" horiz-adv-x="738" 
d="M91 0v711h89l358 -521v521h109v-711h-107l-340 498v-498h-109z" />
    <glyph glyph-name="O" unicode="O" horiz-adv-x="704" 
d="M295 -8l-107 47l-68 69l-44 89l-19 85v147l19 87l43 87l72 70l104 46h113l105 -46l72 -70l42 -87l19 -87v-147l-19 -85l-43 -89l-68 -69l-108 -47h-113zM318 100h69l65 30l42 42l30 58l14 65v122l-14 65l-29 56l-44 44l-64 29h-71l-63 -29l-44 -44l-29 -56l-14 -66v-122
l13 -61l31 -60l42 -43z" />
    <glyph glyph-name="P" unicode="P" horiz-adv-x="612" 
d="M91 0v711h302l93 -24l76 -76l30 -105l-27 -100l-51 -75l-95 -47h-220v-284h-108zM199 391h190l51 25l24 35l15 52l-14 50l-36 35l-52 16h-178v-213z" />
    <glyph glyph-name="Q" unicode="Q" horiz-adv-x="704" 
d="M627 516l19 -87v-147l-19 -85l-43 -89l-35 -35l43 -50l-80 -71l-53 62l-51 -22h-113l-107 47l-68 69l-44 89l-19 85v147l19 87l43 87l72 70l104 46h113l105 -46l72 -70zM404 242l74 -86l16 16l30 58l14 65v122l-14 65l-29 56l-44 44l-64 29h-71l-63 -29l-44 -44l-29 -56
l-14 -66v-122l13 -61l31 -60l42 -43l66 -30h67l-62 73z" />
    <glyph glyph-name="R" unicode="R" horiz-adv-x="635" 
d="M91 0v711h302l93 -24l76 -76l30 -105l-27 -100l-51 -75l-48 -24l136 -307h-120l-124 284h-159v-284h-108zM199 391h190l51 25l24 35l15 52l-14 50l-36 35l-52 16h-178v-213z" />
    <glyph glyph-name="S" unicode="S" horiz-adv-x="602" 
d="M247 -8l-111 34l-60 42l-31 39l78 75l27 -34l38 -25l79 -23h79l66 26l18 22l12 24v50l-19 38l-39 21l-194 54l-80 56l-34 54l-14 86l28 88l66 69l94 31h106l113 -29l77 -48l-58 -91l-67 39l-81 21h-74l-49 -16l-32 -33l-11 -40l8 -38l8 -15l45 -32l202 -56l81 -56l32 -79
v-100l-26 -55l-50 -58l-111 -41h-116z" />
    <glyph glyph-name="T" unicode="T" horiz-adv-x="515" 
d="M201 0v604h-181v107h475v-107h-185v-604h-109z" />
    <glyph glyph-name="U" unicode="U" horiz-adv-x="709" 
d="M311 -8l-130 48l-71 93l-23 75v503h109v-491l11 -38l41 -53l78 -29h58l77 29l43 53l11 38v491h108v-503l-23 -75l-71 -93l-129 -48h-89z" />
    <glyph glyph-name="V" unicode="V" horiz-adv-x="636" 
d="M271 0l-270 711h115l202 -533l201 533h115l-269 -711h-94z" />
    <glyph glyph-name="W" unicode="W" horiz-adv-x="870" 
d="M195 0l-182 711h112l125 -499l145 470h80l145 -470l125 499h112l-182 -711h-98l-142 460l-142 -460h-98z" />
    <glyph glyph-name="X" unicode="X" horiz-adv-x="656" 
d="M1 0l261 354l-263 357h134l195 -268l195 268h134l-263 -357l260 -354h-133l-193 266l-193 -266h-134z" />
    <glyph glyph-name="Y" unicode="Y" horiz-adv-x="566" 
d="M229 0v343l-230 368h129l155 -259l155 259h129l-230 -368v-343h-108z" />
    <glyph glyph-name="Z" unicode="Z" horiz-adv-x="558" 
d="M25 0v80l353 524h-334v107h479v-80l-352 -524h361v-107h-507z" />
    <glyph glyph-name="bracketleft" unicode="[" horiz-adv-x="346" 
d="M48 -202v982h236v-105h-129v-771h129v-106h-236z" />
    <glyph glyph-name="backslash" unicode="\" horiz-adv-x="441" 
d="M282 -16l-223 712l96 31l223 -712z" />
    <glyph glyph-name="bracketright" unicode="]" horiz-adv-x="346" 
d="M62 -202v106h129v771h-129v105h236v-982h-236z" />
    <glyph glyph-name="asciicircum" unicode="^" horiz-adv-x="540" 
d="M115 300l-91 42l199 411h95l198 -411l-90 -42l-156 338z" />
    <glyph glyph-name="underscore" unicode="_" horiz-adv-x="580" 
d="M47 -117v90h486v-90h-486z" />
    <glyph glyph-name="grave" unicode="`" horiz-adv-x="600" 
d="M219 559l-190 135l54 75l190 -135z" />
    <glyph glyph-name="a" unicode="a" horiz-adv-x="565" 
d="M439 -13l-44 65l-12 -13l-92 -47h-64l-68 21l-49 29l-58 84v61l15 69l75 76l98 25h66l66 -22l4 -3v43l-8 20l-34 23l-44 11h-64l-33 -12l-27 -18l-28 -27l-74 77l40 37l45 29l67 20h93l67 -17l79 -53l28 -70v-285l42 -61zM241 98h28l65 25l34 36l8 22v28l-16 17l-23 11
l-46 14h-39l-54 -15l-32 -33l-7 -26v-20l25 -36l18 -10z" />
    <glyph glyph-name="b" unicode="b" horiz-adv-x="594" 
d="M263 -8l-59 22l-8 6v-20h-107v754h107v-256l60 37h94l104 -49l67 -91l22 -73v-115l-22 -75l-67 -90l-102 -50h-89zM277 97h57l50 28l42 57l10 38v89l-10 36l-41 58l-55 26h-54l-55 -38l-25 -36v-206l16 -20l32 -20z" />
    <glyph glyph-name="c" unicode="c" horiz-adv-x="513" 
d="M241 -8l-101 50l-67 90l-22 73v115l22 75l67 90l101 50h84l83 -27l73 -74l-77 -72l-55 55l-34 12h-57l-48 -26l-43 -58l-9 -38v-89l10 -36l43 -59l51 -25h50l35 12l59 55l74 -74l-72 -72l-83 -27h-84z" />
    <glyph glyph-name="d" unicode="d" horiz-adv-x="594" 
d="M243 -8l-104 49l-67 91l-22 73v115l22 75l67 90l102 50h88l60 -22l8 -6v247h107v-754h-106v29l-61 -37h-94zM263 98h54l55 38l25 36v206l-16 20l-32 20l-33 12h-57l-50 -28l-42 -57l-10 -38v-90l10 -35l41 -58z" />
    <glyph glyph-name="e" unicode="e" horiz-adv-x="574" 
d="M241 -8l-102 50l-67 90l-21 73v115l21 75l67 90l102 50h90l102 -50l66 -90l24 -69v-120h-365l10 -24l42 -59l52 -25h51l60 16l61 37l56 -86l-77 -51l-88 -22h-84zM159 312h256l-11 32l-41 57l-51 28h-54l-49 -26l-43 -58z" />
    <glyph glyph-name="f" unicode="f" horiz-adv-x="403" 
d="M107 0v408h-90v106h90v136l58 86l87 26h41l100 -21l-28 -106l-84 21h-21l-28 -10l-18 -26v-106h127v-106h-127v-408h-107z" />
    <glyph glyph-name="g" unicode="g" horiz-adv-x="594" 
d="M239 -168l-68 18l-53 34l-36 36l75 77l33 -33l18 -14l46 -12h61l39 14l36 26l9 22v59l-60 -36h-92l-103 40l-70 91l-22 74v92l22 75l67 90l101 50h89l60 -22l8 -6v20h106v-542l-25 -75l-80 -53l-72 -25h-89zM263 129h56l55 38l25 39v172l-17 20l-31 20l-33 12h-58
l-49 -28l-42 -57l-10 -38v-66l9 -35l41 -56z" />
    <glyph glyph-name="h" unicode="h" horiz-adv-x="581" 
d="M89 0v754h107v-258l69 39h91l87 -26l63 -84v-425h-107v386l-20 29l-40 14h-57l-62 -41l-24 -36v-352h-107z" />
    <glyph glyph-name="i" unicode="i" horiz-adv-x="305" 
d="M83 609v145h140v-145h-140zM100 0v527h107v-527h-107z" />
    <glyph glyph-name="j" unicode="j" horiz-adv-x="273" 
d="M67 609v145h140v-145h-140zM9 -162l-65 16l27 103l49 -12h22l28 9l18 29v544h107v-576l-53 -83l-87 -30h-46z" />
    <glyph glyph-name="k" unicode="k" horiz-adv-x="552" 
d="M81 0v753h107v-416l190 190h152l-221 -216l223 -311h-131l-166 237l-47 -45v-192h-107z" />
    <glyph glyph-name="l" unicode="l" horiz-adv-x="263" 
d="M78 0v754h107v-754h-107z" />
    <glyph glyph-name="m" unicode="m" horiz-adv-x="903" 
d="M89 0v527h107v-32l69 40h91l93 -25l30 -42l34 28l68 39h91l93 -25l63 -85v-425h-107v386l-19 27l-50 16h-54l-62 -41l-24 -34v-354h-107v386l-19 27l-50 16h-54l-62 -41l-24 -34v-354h-107z" />
    <glyph glyph-name="n" unicode="n" horiz-adv-x="586" 
d="M89 0v527h107v-32l69 40h90l93 -25l63 -85v-425h-107v386l-19 27l-50 16h-53l-62 -41l-24 -34v-354h-107z" />
    <glyph glyph-name="o" unicode="o" horiz-adv-x="558" 
d="M226 -8l-101 49l-53 77l-19 86v118l19 86l53 77l101 50h106l102 -50l53 -77l18 -86v-118l-18 -86l-53 -77l-102 -49h-106zM246 97h66l52 26l22 34l13 61v92l-13 58l-24 36l-49 25h-69l-47 -25l-25 -35l-12 -59v-92l12 -62l23 -33z" />
    <glyph glyph-name="p" unicode="p" horiz-adv-x="594" 
d="M90 -163v690h106v-29l61 37h94l104 -49l67 -91l22 -73v-115l-22 -75l-67 -90l-102 -50h-89l-59 22l-8 6v-183h-107zM278 97h57l50 28l42 57l10 38v89l-10 36l-41 58l-55 26h-54l-55 -38l-25 -36v-206l16 -20l32 -20z" />
    <glyph glyph-name="q" unicode="q" horiz-adv-x="594" 
d="M397 -163v192l-60 -37h-94l-104 49l-67 91l-22 73v115l22 75l67 90l102 50h88l60 -22l8 -6v20h107v-690h-107zM263 98h54l55 38l25 36v206l-16 20l-32 20l-33 12h-57l-50 -28l-42 -57l-10 -38v-90l10 -35l41 -58z" />
    <glyph glyph-name="r" unicode="r" horiz-adv-x="404" 
d="M70 0v527h107v-38l12 12l70 34h69l61 -17l-26 -103l-51 14h-34l-46 -22l-35 -39l-20 -43v-325h-107z" />
    <glyph glyph-name="s" unicode="s" horiz-adv-x="498" 
d="M206 -8l-83 21l-48 39l-32 36l75 72l26 -30l22 -17l58 -16h58l33 10l20 14l13 18v29l-13 21l-22 15l-135 28l-67 36l-44 60v94l34 59l49 37l60 17h88l79 -21l71 -48l-59 -88l-54 37l-48 15h-59l-36 -10l-10 -9l-9 -16v-34l14 -18l21 -11l146 -29l59 -39l41 -66v-90
l-39 -59l-51 -37l-70 -20h-88z" />
    <glyph glyph-name="t" unicode="t" horiz-adv-x="414" 
d="M241 -8l-74 28l-57 81v307h-90v106h90v184h107v-184h131v-106h-131v-274l18 -24l27 -12h21l81 21l27 -104l-102 -23h-48z" />
    <glyph glyph-name="u" unicode="u" horiz-adv-x="581" 
d="M236 -8l-95 25l-67 87v423h107v-386l23 -31l48 -13h46l62 42l25 33v355h107v-527h-106v32l-70 -40h-80z" />
    <glyph glyph-name="v" unicode="v" horiz-adv-x="534" 
d="M221 0l-209 527h114l140 -361l141 361h114l-209 -527h-91z" />
    <glyph glyph-name="w" unicode="w" horiz-adv-x="768" 
d="M178 0l-153 527h111l93 -337l112 318h85l112 -317l92 336h112l-153 -527h-95l-111 319l-110 -319h-95z" />
    <glyph glyph-name="x" unicode="x" horiz-adv-x="552" 
d="M10 0l199 264l-197 263h134l130 -175l129 175h134l-197 -263q34 -46 105 -139.5t94 -124.5h-135l-130 177l-131 -177h-135z" />
    <glyph glyph-name="y" unicode="y" horiz-adv-x="552" 
d="M109 -163l110 243l-203 447h121l140 -318l140 318h119l-311 -690h-116z" />
    <glyph glyph-name="z" unicode="z" horiz-adv-x="503" 
d="M46 0v81l258 341h-243v105h390v-81l-255 -340h260v-106h-410z" />
    <glyph glyph-name="braceleft" unicode="{" horiz-adv-x="413" 
d="M224 -202l-64 35l-35 66v291l-93 95v46l93 95v254l35 67l64 34h137v-105h-105l-16 -10l-8 -17v-263l-75 -76l75 -76v-303l8 -18l16 -9h105v-106h-137z" />
    <glyph glyph-name="bar" unicode="|" horiz-adv-x="313" 
d="M111 -181v954h91v-954h-91z" />
    <glyph glyph-name="braceright" unicode="}" horiz-adv-x="413" 
d="M52 -202v106h105l16 9l8 18v303l75 76l-75 76v263l-8 17l-16 10h-105v105h137l64 -34l35 -67v-254l93 -95v-46l-93 -95v-291l-35 -66l-64 -35h-137z" />
    <glyph glyph-name="asciitilde" unicode="~" horiz-adv-x="665" 
d="M110 267l-55 104l78 41l67 16h47l64 -11l63 -21l37 -9h34l37 10l65 35l58 -101l-78 -43l-69 -17h-57l-48 12l-68 21l-47 8h-19l-48 -12z" />
    <glyph glyph-name="uni00A0" unicode="&#xa0;" horiz-adv-x="163" 
 />
    <glyph glyph-name="exclamdown" unicode="&#xa1;" horiz-adv-x="279" 
d="M68 380v147h142v-147h-142zM85 -184v500h108v-500h-108z" />
    <glyph glyph-name="cent" unicode="&#xa2;" 
d="M298 -107v99l-104 50l-65 89l-23 77v115l23 80l65 89l104 50v96h108v-97l81 -25l74 -77l-79 -73l-57 57l-34 12h-75l-48 -25l-19 -24l-23 -33l-12 -42v-89l14 -43l39 -54l56 -25h69l33 11l58 59l78 -78l-73 -73l-82 -26v-100h-108z" />
    <glyph glyph-name="sterling" unicode="&#xa3;" 
d="M126 -9l-24 103l51 13l48 35l30 56v51l-21 58h-113v98h75l-12 33l-14 85l18 100l64 65l93 31h99l79 -49l57 -80l-90 -59l-42 59l-34 21h-57l-44 -16l-25 -26l-8 -47l10 -60l21 -57h185v-98h-148l15 -39v-96l-28 -51l39 -21h66l63 13l62 30l49 -98l-80 -37l-83 -16h-103
l-86 47l-45 -32z" />
    <glyph glyph-name="currency" unicode="&#xa4;" 
d="M112 85l-70 70l72 72l-25 34l-20 66v62l20 66l25 34l-72 72l70 70l72 -72l31 23l69 21h63l69 -21l31 -23l72 72l70 -70l-72 -72l25 -34l21 -66v-62l-21 -66l-25 -34l72 -72l-70 -70l-72 72q-4 -2 -14.5 -11t-16.5 -12l-69 -21h-63l-69 21l-31 23zM303 212h25l47 14l40 27
l34 44l13 45v31l-13 46l-33 43l-41 27l-47 15h-25l-47 -15l-40 -26l-34 -44l-13 -46v-31l13 -45l33 -43l41 -28z" />
    <glyph glyph-name="yen" unicode="&#xa5;" 
d="M599 711l-158 -253h89v-94h-148l-13 -21v-21h161v-94h-161v-228h-108v228h-162v94h162v21l-13 21h-149v94h90l-158 253h129l155 -259l155 259h129z" />
    <glyph glyph-name="brokenbar" unicode="&#xa6;" horiz-adv-x="313" 
d="M111 374v399h91v-399h-91zM111 -182v399h91v-399h-91z" />
    <glyph glyph-name="section" unicode="&#xa7;" horiz-adv-x="549" 
d="M227 -176l-87 28l-74 61l65 81l64 -53l49 -14h34l42 14l32 32l11 30l-6 28l-226 167l-56 60l-21 64v67l31 56l23 18l-21 74l26 83l62 68l86 31h59l88 -28l74 -62l-66 -80l-62 53l-50 14h-25l-43 -14l-31 -36l-11 -33l8 -26l219 -158l59 -57l24 -68v-93l-27 -52l-19 -20
l12 -65l-28 -69l-60 -70l-86 -31h-69zM388 136l4 3l8 16v52l-9 25l-37 38l-169 122l-20 -15l-8 -11v-31l9 -23l33 -37z" />
    <glyph glyph-name="dieresis" unicode="&#xa8;" horiz-adv-x="600" 
d="M35 588v131h126v-131h-126zM254 588v131h126v-131h-126z" />
    <glyph glyph-name="copyright" unicode="&#xa9;" horiz-adv-x="842" 
d="M369 -16l-110 38l-96 67l-74 101l-38 112v107l38 112l74 101l96 67l110 38h105l110 -38l96 -67l74 -101l38 -112v-107l-38 -112l-74 -101l-96 -67l-110 -38h-105zM381 70h80l83 28l78 55l56 78l28 83v83l-28 83l-56 78l-78 55l-83 28h-80l-82 -28l-77 -55l-58 -78
l-28 -83v-83l28 -83l58 -78l77 -55zM396 144l-63 27l-39 41l-26 54l-11 47v85l11 48l26 54l40 40l61 27h65l59 -25l29 -20l26 -34l-65 -63l-24 31l-10 9l-33 14l-30 -1l-25 -12l-19 -21l-12 -25l-9 -33v-63l8 -32l13 -26l19 -21l25 -12l30 -1l33 13l10 10l24 31l65 -63
l-26 -34l-29 -20l-59 -25h-64z" />
    <glyph glyph-name="ordfeminine" unicode="&#xaa;" horiz-adv-x="390" 
d="M281 318l-25 38l-58 -29h-46l-37 11l-38 20l-35 53v40l11 44l51 50l61 15h42l32 -11v21l-1 4l-15 10l-23 6h-32l-30 -6l-8 -5l-21 -18l-56 53l27 28l28 16l54 12h47l40 -10l53 -35l18 -46v-174l27 -40zM166 407h15l38 18l20 21v14l-14 10l-34 10h-15l-30 -7l-20 -19
l-4 -13v-9l8 -13l6 -4z" />
    <glyph glyph-name="guillemotleft" unicode="&#xab;" horiz-adv-x="538" 
d="M187 81l-149 203v56l149 204l78 -63l-125 -169l125 -169zM395 81l-150 203v56l150 204l77 -63l-125 -169l125 -169z" />
    <glyph glyph-name="logicalnot" unicode="&#xac;" horiz-adv-x="600" 
d="M420 76v216h-352v95h448v-311h-96z" />
    <glyph glyph-name="uni00AD" unicode="&#xad;" horiz-adv-x="480" 
d="M65 263v95h350v-95h-350z" />
    <glyph glyph-name="registered" unicode="&#xae;" horiz-adv-x="842" 
d="M369 -16l-110 38l-96 67l-74 101l-38 112v107l38 112l74 101l96 67l110 38h105l110 -38l96 -67l74 -101l38 -112v-107l-38 -112l-74 -101l-96 -67l-110 -38h-105zM381 70h80l83 28l78 55l56 78l28 83v83l-28 83l-56 78l-78 55l-83 28h-80l-82 -28l-77 -55l-58 -78
l-28 -83v-83l28 -83l58 -78l77 -55zM292 146v419h178l55 -14l46 -46l18 -64l-16 -60l-31 -44l-27 -15q55 -121 79 -176h-99l-73 160h-40v-160h-90zM382 396h81l19 12l5 9l7 23l-7 18l-8 11l-21 7h-76v-80z" />
    <glyph glyph-name="macron" unicode="&#xaf;" horiz-adv-x="600" 
d="M50 594v86h328v-86h-328z" />
    <glyph glyph-name="degree" unicode="&#xb0;" horiz-adv-x="454" 
d="M207 382l-15 4l-48 19l-42 33l-19 29l-19 47l-4 16v41l4 16l19 47l19 28l42 33l48 20l15 4h40l17 -4l48 -20l41 -33l20 -28l18 -47l4 -16v-41l-4 -16l-18 -47l-20 -29l-41 -33l-48 -19l-17 -4h-40zM220 484h16l19 6l21 17l8 9l6 13l3 12v17l-2 12l-7 14l-10 11l-16 14
l-15 6l-9 2h-12l-11 -2l-13 -6l-19 -15l-7 -10l-5 -10l-4 -14v-19l4 -14l5 -11l8 -10l20 -16l11 -4z" />
    <glyph glyph-name="plusminus" unicode="&#xb1;" horiz-adv-x="580" 
d="M242 135v157h-176v95h176v176h96v-176h176v-95h-176v-157h-96zM66 0v95h448v-95h-448z" />
    <glyph glyph-name="uni00B2" unicode="&#xb2;" horiz-adv-x="335" 
d="M51 456v65l158 155l11 24v15l-15 23l-21 10h-28l-24 -10l-32 -33l-59 57l39 41l60 25h62l62 -29l39 -59v-57l-26 -50l-96 -96h127v-81h-257z" />
    <glyph glyph-name="uni00B3" unicode="&#xb3;" horiz-adv-x="337" 
d="M117 451l-54 21l-42 42l60 59l31 -33l22 -10h28l26 11l15 15l5 16v14l-3 11l-17 16l-35 13h-47v58l48 61h-101v78h214v-56l-58 -78l25 -9l38 -37l18 -43v-41l-18 -47l-33 -34l-61 -27h-61z" />
    <glyph glyph-name="acute" unicode="&#xb4;" horiz-adv-x="600" 
d="M83 569l-54 75l190 135l54 -75z" />
    <glyph glyph-name="uni00B5" unicode="&#xb5;" horiz-adv-x="585" 
d="M89 -162v689h107v-386l22 -31l49 -13h46l62 42l24 33v355h107v-527h-106v32l-5 -4l-65 -36h-79l-55 16v-170h-107z" />
    <glyph glyph-name="paragraph" unicode="&#xb6;" horiz-adv-x="580" 
d="M197 -163v471h-19l-78 28l-63 73l-24 67v67l24 67l63 73l78 28h368v-98h-81v-776h-99v776h-70v-776h-99zM193 406h4v207h-4l-33 -10l-36 -43l-13 -33v-39l13 -30l36 -41z" />
    <glyph glyph-name="periodcentered" unicode="&#xb7;" horiz-adv-x="279" 
d="M72 278v139h135v-139h-135z" />
    <glyph glyph-name="cedilla" unicode="&#xb8;" horiz-adv-x="600" 
d="M76 -179l-45 21l30 64l29 -10h25l8 6l8 22l-75 17l34 93l62 -17l-11 -42l50 -9l26 -60l-30 -58l-66 -27h-45z" />
    <glyph glyph-name="uni00B9" unicode="&#xb9;" horiz-adv-x="241" 
d="M112 456v262l-75 -34l-35 68l150 71h43v-367h-83z" />
    <glyph glyph-name="ordmasculine" unicode="&#xba;" horiz-adv-x="376" 
d="M152 327l-62 29l-35 53l-12 52v75l12 53l35 51l62 30h70l63 -30l35 -51l11 -53v-75l-11 -52l-35 -53l-63 -29h-70zM169 407h38l23 11l13 18l8 32v56l-6 30l-16 24l-25 12h-34l-24 -12l-15 -22l-7 -30v-56l8 -34l13 -18z" />
    <glyph glyph-name="guillemotright" unicode="&#xbb;" horiz-adv-x="538" 
d="M136 81l-78 62l126 169l-126 169l78 63l150 -204v-56zM343 81l-78 62l126 169l-126 169l78 63l150 -204v-56z" />
    <glyph glyph-name="onequarter" unicode="&#xbc;" horiz-adv-x="731" 
d="M106 -18l-65 47l501 700l65 -47zM112 348v262l-75 -34l-35 68l150 71h43v-367h-83zM572 0v86h-151v56l164 225h69v-204h50v-77h-50v-86h-82zM523 163h49v71z" />
    <glyph glyph-name="onehalf" unicode="&#xbd;" horiz-adv-x="742" 
d="M106 -18l-65 47l501 700l65 -47zM112 348v262l-75 -34l-35 68l150 71h43v-367h-83zM458 0v65l158 155l11 24v15l-15 23l-21 10h-28l-24 -10l-32 -33l-59 57l39 41l60 25h62l62 -29l39 -59v-57l-26 -50l-96 -96h127v-81h-257z" />
    <glyph glyph-name="threequarters" unicode="&#xbe;" horiz-adv-x="827" 
d="M202 -18l-65 47l501 700l65 -47zM117 338l-54 21l-42 42l60 59l31 -33l22 -10h28l26 11l15 15l5 16v14l-3 11l-17 16l-35 13h-47v58l48 61h-101v78h214v-56l-58 -78l25 -9l38 -37l18 -43v-41l-18 -47l-33 -34l-61 -27h-61zM668 0v86h-151v56l164 225h69v-204h50v-77h-50
v-86h-82zM619 163h49v71z" />
    <glyph glyph-name="questiondown" unicode="&#xbf;" horiz-adv-x="562" 
d="M215 380v147h142v-147h-142zM236 -192l-85 33l-58 57l-20 88l13 74l30 59l77 64l39 60v73h108v-109l-58 -90l-78 -61l-13 -29l-8 -37l10 -39l17 -19l44 -16h44l47 13l22 19l7 14l9 60l107 -17l-13 -77l-23 -48l-60 -49l-80 -23h-78z" />
    <glyph glyph-name="Agrave" unicode="&#xc0;" horiz-adv-x="624" 
d="M436 816l-44 -79l-204 112l44 80zM497 0l-62 179h-246l-63 -179h-115l259 711h83l259 -711h-115zM226 285h172l-86 247z" />
    <glyph glyph-name="Aacute" unicode="&#xc1;" horiz-adv-x="624" 
d="M436 848l-204 -112l-44 79l204 113zM497 0l-62 179h-246l-63 -179h-115l259 711h83l259 -711h-115zM226 285h172l-86 247z" />
    <glyph glyph-name="Acircumflex" unicode="&#xc2;" horiz-adv-x="624" 
d="M312 840l-124 -102l-58 70l153 123h58l153 -123l-58 -70zM497 0l-62 179h-246l-63 -179h-115l259 711h83l259 -711h-115zM226 285h172l-86 247z" />
    <glyph glyph-name="Atilde" unicode="&#xc3;" horiz-adv-x="624" 
d="M211 772l-8 -25l-81 27l12 38l19 31l24 18l52 24h44l49 -20l34 -21l21 -3l20 8l16 14l7 24l81 -27l-12 -38l-19 -32l-25 -18l-52 -23h-39l-39 15l-43 26l-14 4h-13l-19 -5zM497 0l-62 179h-246l-63 -179h-115l259 711h83l259 -711h-115zM226 285h172l-86 247z" />
    <glyph glyph-name="Adieresis" unicode="&#xc4;" horiz-adv-x="624" 
d="M264 884v-124h-121v124h121zM481 884v-124h-122v124h122zM497 0l-62 179h-246l-63 -179h-115l259 711h83l259 -711h-115zM226 285h172l-86 247z" />
    <glyph glyph-name="Aring" unicode="&#xc5;" horiz-adv-x="624" 
d="M249 749l-37 41l-13 39v37l13 39l37 41l44 16h38l44 -16l36 -41l14 -39v-37l-14 -39l-36 -41l-44 -16h-38zM267 855v-15l7 -20l12 -12l19 -7h14l19 7l12 12l7 20v15l-7 19l-13 13l-18 7h-14l-20 -7l-11 -12zM497 0l-62 179h-246l-63 -179h-115l259 711h83l259 -711h-115z
M226 285h172l-86 247z" />
    <glyph glyph-name="AE" unicode="&#xc6;" horiz-adv-x="835" 
d="M-1 0l346 711h440v-107h-295v-173h188v-108h-188v-216h295v-107h-404v205h-166q-17 -38 -52.5 -112t-44.5 -93h-119zM265 313h116v242z" />
    <glyph glyph-name="Ccedilla" unicode="&#xc7;" 
d="M485 151l41 48l78 -74l-48 -56l-45 -35l-106 -42h-64l-4 -17l50 -9l26 -60l-30 -58l-66 -27h-45l-45 21l30 64l29 -10h25l8 6l8 22l-75 17l22 60l-88 38l-68 69l-43 89l-19 85v147l19 87l42 87l72 70l105 46h111l106 -42l45 -35l48 -56l-78 -74l-42 48l-27 21l-68 30h-74
l-63 -29l-45 -44l-28 -56l-15 -65v-122l15 -65l29 -58l43 -42l64 -30h74l70 30z" />
    <glyph glyph-name="Egrave" unicode="&#xc8;" horiz-adv-x="581" 
d="M409 737l-204 112l44 80l204 -113zM89 0v711h457v-107h-348v-173h240v-108h-240v-216h348v-107h-457z" />
    <glyph glyph-name="Eacute" unicode="&#xc9;" horiz-adv-x="581" 
d="M249 736l-44 79l204 113l44 -80zM89 0v711h457v-107h-348v-173h240v-108h-240v-216h348v-107h-457z" />
    <glyph glyph-name="Ecircumflex" unicode="&#xca;" horiz-adv-x="581" 
d="M205 738l-58 70l153 123h58l153 -123l-58 -70l-124 102zM89 0v711h457v-107h-348v-173h240v-108h-240v-216h348v-107h-457z" />
    <glyph glyph-name="Edieresis" unicode="&#xcb;" horiz-adv-x="581" 
d="M160 760v124h121v-124h-121zM376 760v124h122v-124h-122zM89 0v711h457v-107h-348v-173h240v-108h-240v-216h348v-107h-457z" />
    <glyph glyph-name="Igrave" unicode="&#xcc;" horiz-adv-x="273" 
d="M217 737l-204 112l44 80l204 -113zM83 0v711h108v-711h-108z" />
    <glyph glyph-name="Iacute" unicode="&#xcd;" horiz-adv-x="273" 
d="M57 736l-44 79l204 113l44 -80zM83 0v711h108v-711h-108z" />
    <glyph glyph-name="Icircumflex" unicode="&#xce;" horiz-adv-x="273" 
d="M13 738l-58 70l153 123h58l153 -123l-58 -70l-124 102zM83 0v711h108v-711h-108z" />
    <glyph glyph-name="Idieresis" unicode="&#xcf;" horiz-adv-x="273" 
d="M-32 760v124h121v-124h-121zM184 760v124h122v-124h-122zM83 0v711h108v-711h-108z" />
    <glyph glyph-name="Eth" unicode="&#xd0;" horiz-adv-x="683" 
d="M585 509l21 -87v-133l-21 -87l-44 -87l-69 -70l-115 -45h-267v319h-67v83h67v309h267l115 -45l69 -70zM498 306v99l-18 69l-29 58l-43 42l-72 30h-138v-202h148v-83h-148v-212h138l73 31l43 43l27 56z" />
    <glyph glyph-name="Ntilde" unicode="&#xd1;" horiz-adv-x="738" 
d="M260 747l-81 27l12 38l19 31l24 18l52 24h44l49 -20l34 -21l21 -3l20 8l16 14l7 24l81 -27l-12 -38l-19 -32l-25 -18l-52 -23h-39l-39 15l-43 26l-14 4h-13l-19 -5l-15 -17zM91 0v711h89l358 -521v521h109v-711h-107l-340 498v-498h-109z" />
    <glyph glyph-name="Ograve" unicode="&#xd2;" horiz-adv-x="704" 
d="M432 737l-204 112l44 80l204 -113zM295 -8l-107 47l-68 69l-44 89l-19 85v147l19 87l43 87l72 70l104 46h113l105 -46l72 -70l42 -87l19 -87v-147l-19 -85l-43 -89l-68 -69l-108 -47h-113zM318 100h69l65 30l42 42l30 58l14 65v122l-14 65l-29 56l-44 44l-64 29h-71
l-63 -29l-44 -44l-29 -56l-14 -66v-122l13 -61l31 -60l42 -43z" />
    <glyph glyph-name="Oacute" unicode="&#xd3;" horiz-adv-x="704" 
d="M272 736l-44 79l204 113l44 -80zM295 -8l-107 47l-68 69l-44 89l-19 85v147l19 87l43 87l72 70l104 46h113l105 -46l72 -70l42 -87l19 -87v-147l-19 -85l-43 -89l-68 -69l-108 -47h-113zM318 100h69l65 30l42 42l30 58l14 65v122l-14 65l-29 56l-44 44l-64 29h-71
l-63 -29l-44 -44l-29 -56l-14 -66v-122l13 -61l31 -60l42 -43z" />
    <glyph glyph-name="Ocircumflex" unicode="&#xd4;" horiz-adv-x="704" 
d="M228 738l-58 70l153 123h58l153 -123l-58 -70l-124 102zM295 -8l-107 47l-68 69l-44 89l-19 85v147l19 87l43 87l72 70l104 46h113l105 -46l72 -70l42 -87l19 -87v-147l-19 -85l-43 -89l-68 -69l-108 -47h-113zM318 100h69l65 30l42 42l30 58l14 65v122l-14 65l-29 56
l-44 44l-64 29h-71l-63 -29l-44 -44l-29 -56l-14 -66v-122l13 -61l31 -60l42 -43z" />
    <glyph glyph-name="Otilde" unicode="&#xd5;" horiz-adv-x="704" 
d="M243 747l-81 27l12 38l19 31l24 18l52 24h44l49 -20l34 -21l21 -3l20 8l16 14l7 24l81 -27l-12 -38l-19 -32l-25 -18l-52 -23h-39l-39 15l-43 26l-14 4h-13l-19 -5l-15 -17zM295 -8l-107 47l-68 69l-44 89l-19 85v147l19 87l43 87l72 70l104 46h113l105 -46l72 -70
l42 -87l19 -87v-147l-19 -85l-43 -89l-68 -69l-108 -47h-113zM318 100h69l65 30l42 42l30 58l14 65v122l-14 65l-29 56l-44 44l-64 29h-71l-63 -29l-44 -44l-29 -56l-14 -66v-122l13 -61l31 -60l42 -43z" />
    <glyph glyph-name="Odieresis" unicode="&#xd6;" horiz-adv-x="704" 
d="M183 760v124h121v-124h-121zM399 760v124h122v-124h-122zM295 -8l-107 47l-68 69l-44 89l-19 85v147l19 87l43 87l72 70l104 46h113l105 -46l72 -70l42 -87l19 -87v-147l-19 -85l-43 -89l-68 -69l-108 -47h-113zM318 100h69l65 30l42 42l30 58l14 65v122l-14 65l-29 56
l-44 44l-64 29h-71l-63 -29l-44 -44l-29 -56l-14 -66v-122l13 -61l31 -60l42 -43z" />
    <glyph glyph-name="multiply" unicode="&#xd7;" horiz-adv-x="580" 
d="M134 117l-67 67l156 155l-156 156l67 67l156 -155l156 155l67 -67l-156 -156l156 -155l-67 -67l-156 155z" />
    <glyph glyph-name="Oslash" unicode="&#xd8;" horiz-adv-x="704" 
d="M627 516l19 -87v-147l-19 -85l-43 -89l-68 -69l-108 -47h-113l-105 46l-64 -100l-68 44l73 115l-11 11l-44 89l-19 85v147l19 87l43 87l72 70l104 46h113l95 -42l61 96l68 -44l-68 -106l21 -20zM179 233l18 -34l247 386l-57 26h-71l-63 -29l-44 -44l-29 -56l-14 -66v-122
zM538 295v122l-14 65l-22 43l-252 -393l2 -2l66 -30h69l65 30l42 42l30 58z" />
    <glyph glyph-name="Ugrave" unicode="&#xd9;" horiz-adv-x="709" 
d="M435 737l-204 112l44 80l204 -113zM311 -8l-130 48l-71 93l-23 75v503h109v-491l11 -38l41 -53l78 -29h58l77 29l43 53l11 38v491h108v-503l-23 -75l-71 -93l-129 -48h-89z" />
    <glyph glyph-name="Uacute" unicode="&#xda;" horiz-adv-x="709" 
d="M275 736l-44 79l204 113l44 -80zM311 -8l-130 48l-71 93l-23 75v503h109v-491l11 -38l41 -53l78 -29h58l77 29l43 53l11 38v491h108v-503l-23 -75l-71 -93l-129 -48h-89z" />
    <glyph glyph-name="Ucircumflex" unicode="&#xdb;" horiz-adv-x="709" 
d="M231 738l-58 70l153 123h58l153 -123l-58 -70l-124 102zM311 -8l-130 48l-71 93l-23 75v503h109v-491l11 -38l41 -53l78 -29h58l77 29l43 53l11 38v491h108v-503l-23 -75l-71 -93l-129 -48h-89z" />
    <glyph glyph-name="Udieresis" unicode="&#xdc;" horiz-adv-x="709" 
d="M186 760v124h121v-124h-121zM402 760v124h122v-124h-122zM311 -8l-130 48l-71 93l-23 75v503h109v-491l11 -38l41 -53l78 -29h58l77 29l43 53l11 38v491h108v-503l-23 -75l-71 -93l-129 -48h-89z" />
    <glyph glyph-name="Yacute" unicode="&#xdd;" horiz-adv-x="566" 
d="M203 736l-44 79l204 113l44 -80zM229 0v343l-230 368h129l155 -259l155 259h129l-230 -368v-343h-108z" />
    <glyph glyph-name="Thorn" unicode="&#xde;" horiz-adv-x="607" 
d="M89 0v711h108v-117h194l93 -24l76 -76l30 -105l-27 -100l-51 -75l-95 -47h-220v-167h-108zM197 274h190l51 25l24 35l15 52l-14 50l-36 35l-52 15h-178v-212z" />
    <glyph glyph-name="germandbls" unicode="&#xdf;" horiz-adv-x="600" 
d="M84 -51v608l36 83l78 68l95 12l109 -30l61 -69l24 -101l-26 -77l-21 -27l-12 -8l48 -30l50 -65l23 -85l-34 -126l-54 -57l-89 -45h-118v106h92l50 26l21 21l20 74l-12 43l-22 28l-60 38h-89v106h43l49 30l17 18l12 34l-12 50l-21 22l-62 17l-38 -7l-31 -27l-20 -44v-586
h-107z" />
    <glyph glyph-name="agrave" unicode="&#xe0;" horiz-adv-x="565" 
d="M351 559l-190 135l54 75l190 -135zM439 -13l-44 65l-12 -13l-92 -47h-64l-68 21l-49 29l-58 84v61l15 69l75 76l98 25h66l66 -22l4 -3v43l-8 20l-34 23l-44 11h-64l-33 -12l-27 -18l-28 -27l-74 77l40 37l45 29l67 20h93l67 -17l79 -53l28 -70v-285l42 -61zM241 98h28
l65 25l34 36l8 22v28l-16 17l-23 11l-46 14h-39l-54 -15l-32 -33l-7 -26v-20l25 -36l18 -10z" />
    <glyph glyph-name="aacute" unicode="&#xe1;" horiz-adv-x="565" 
d="M215 569l-54 75l190 135l54 -75zM439 -13l-44 65l-12 -13l-92 -47h-64l-68 21l-49 29l-58 84v61l15 69l75 76l98 25h66l66 -22l4 -3v43l-8 20l-34 23l-44 11h-64l-33 -12l-27 -18l-28 -27l-74 77l40 37l45 29l67 20h93l67 -17l79 -53l28 -70v-285l42 -61zM241 98h28
l65 25l34 36l8 22v28l-16 17l-23 11l-46 14h-39l-54 -15l-32 -33l-7 -26v-20l25 -36l18 -10z" />
    <glyph glyph-name="acircumflex" unicode="&#xe2;" horiz-adv-x="565" 
d="M162 564l-58 71l151 121h56l151 -121l-57 -71l-122 100zM439 -13l-44 65l-12 -13l-92 -47h-64l-68 21l-49 29l-58 84v61l15 69l75 76l98 25h66l66 -22l4 -3v43l-8 20l-34 23l-44 11h-64l-33 -12l-27 -18l-28 -27l-74 77l40 37l45 29l67 20h93l67 -17l79 -53l28 -70v-285
l42 -61zM241 98h28l65 25l34 36l8 22v28l-16 17l-23 11l-46 14h-39l-54 -15l-32 -33l-7 -26v-20l25 -36l18 -10z" />
    <glyph glyph-name="atilde" unicode="&#xe3;" horiz-adv-x="565" 
d="M334 578l-45 16l-50 31h-25l-22 -10l-14 -13l-7 -21l-89 34l19 44l41 38l56 22h51l44 -16l34 -22l22 -7h14l12 4l10 10l12 31l86 -23l-11 -42l-16 -30l-33 -26l-43 -18zM439 -13l-44 65l-12 -13l-92 -47h-64l-68 21l-49 29l-58 84v61l15 69l75 76l98 25h66l66 -22l4 -3
v43l-8 20l-34 23l-44 11h-64l-33 -12l-27 -18l-28 -27l-74 77l40 37l45 29l67 20h93l67 -17l79 -53l28 -70v-285l42 -61zM241 98h28l65 25l34 36l8 22v28l-16 17l-23 11l-46 14h-39l-54 -15l-32 -33l-7 -26v-20l25 -36l18 -10z" />
    <glyph glyph-name="adieresis" unicode="&#xe4;" horiz-adv-x="565" 
d="M110 588v131h126v-131h-126zM329 588v131h126v-131h-126zM439 -13l-44 65l-12 -13l-92 -47h-64l-68 21l-49 29l-58 84v61l15 69l75 76l98 25h66l66 -22l4 -3v43l-8 20l-34 23l-44 11h-64l-33 -12l-27 -18l-28 -27l-74 77l40 37l45 29l67 20h93l67 -17l79 -53l28 -70v-285
l42 -61zM241 98h28l65 25l34 36l8 22v28l-16 17l-23 11l-46 14h-39l-54 -15l-32 -33l-7 -26v-20l25 -36l18 -10z" />
    <glyph glyph-name="aring" unicode="&#xe5;" horiz-adv-x="565" 
d="M262 551l-52 20l-38 44l-15 41v46l15 41l38 44l52 19h42l53 -19l38 -44l14 -41v-46l-14 -41l-38 -44l-53 -20h-42zM273 628h21l15 6l19 21l3 11v26l-3 11l-19 21l-15 5h-21l-15 -5l-19 -21l-4 -11v-27l4 -10l19 -21zM439 -13l-44 65l-12 -13l-92 -47h-64l-68 21l-49 29
l-58 84v61l15 69l75 76l98 25h66l66 -22l4 -3v43l-8 20l-34 23l-44 11h-64l-33 -12l-27 -18l-28 -27l-74 77l40 37l45 29l67 20h93l67 -17l79 -53l28 -70v-285l42 -61zM241 98h28l65 25l34 36l8 22v28l-16 17l-23 11l-46 14h-39l-54 -15l-32 -33l-7 -26v-20l25 -36l18 -10z
" />
    <glyph glyph-name="ae" unicode="&#xe6;" horiz-adv-x="886" 
d="M227 -8l-68 21l-49 29l-58 84v61l15 69l75 76l98 25h76l44 -14l14 51l3 3l-33 21l-44 11h-74l-33 -12l-27 -18l-28 -27l-74 77l40 37l45 29l67 20h103l69 -17l52 -35l3 3l100 49h100l102 -50l66 -90l24 -69v-120h-375l10 -24l42 -59l52 -25h61l60 16l61 37l56 -86
l-77 -51l-88 -22h-94l-101 49l-21 28l-27 -30l-93 -47h-74zM461 312h266l-11 32l-41 57l-51 28h-64l-49 -26l-43 -58zM241 98h28l75 25l26 26l-17 56v30l-6 3l-46 13h-49l-54 -15l-32 -33l-7 -26v-20l25 -36l18 -10z" />
    <glyph glyph-name="ccedilla" unicode="&#xe7;" horiz-adv-x="513" 
d="M347 110l59 55l74 -74l-72 -72l-83 -27h-47l-4 -17l50 -9l26 -60l-30 -58l-66 -27h-45l-45 21l30 64l29 -10h25l8 6l8 22l-75 17l24 65l-73 36l-67 90l-22 73v115l22 75l67 90l101 50h84l83 -27l73 -74l-77 -72l-55 55l-34 12h-57l-48 -26l-43 -58l-9 -38v-89l10 -36
l43 -59l51 -25h50z" />
    <glyph glyph-name="egrave" unicode="&#xe8;" horiz-adv-x="574" 
d="M355 559l-190 135l54 75l190 -135zM241 -8l-102 50l-67 90l-21 73v115l21 75l67 90l102 50h90l102 -50l66 -90l24 -69v-120h-365l10 -24l42 -59l52 -25h51l60 16l61 37l56 -86l-77 -51l-88 -22h-84zM159 312h256l-11 32l-41 57l-51 28h-54l-49 -26l-43 -58z" />
    <glyph glyph-name="eacute" unicode="&#xe9;" horiz-adv-x="574" 
d="M219 569l-54 75l190 135l54 -75zM241 -8l-102 50l-67 90l-21 73v115l21 75l67 90l102 50h90l102 -50l66 -90l24 -69v-120h-365l10 -24l42 -59l52 -25h51l60 16l61 37l56 -86l-77 -51l-88 -22h-84zM159 312h256l-11 32l-41 57l-51 28h-54l-49 -26l-43 -58z" />
    <glyph glyph-name="ecircumflex" unicode="&#xea;" horiz-adv-x="574" 
d="M166 564l-58 71l151 121h56l151 -121l-57 -71l-122 100zM241 -8l-102 50l-67 90l-21 73v115l21 75l67 90l102 50h90l102 -50l66 -90l24 -69v-120h-365l10 -24l42 -59l52 -25h51l60 16l61 37l56 -86l-77 -51l-88 -22h-84zM159 312h256l-11 32l-41 57l-51 28h-54l-49 -26
l-43 -58z" />
    <glyph glyph-name="edieresis" unicode="&#xeb;" horiz-adv-x="574" 
d="M114 588v131h126v-131h-126zM333 588v131h126v-131h-126zM241 -8l-102 50l-67 90l-21 73v115l21 75l67 90l102 50h90l102 -50l66 -90l24 -69v-120h-365l10 -24l42 -59l52 -25h51l60 16l61 37l56 -86l-77 -51l-88 -22h-84zM159 312h256l-11 32l-41 57l-51 28h-54l-49 -26
l-43 -58z" />
    <glyph glyph-name="igrave" unicode="&#xec;" horiz-adv-x="305" 
d="M221 559l-190 135l54 75l190 -135zM100 0v527h107v-527h-107z" />
    <glyph glyph-name="iacute" unicode="&#xed;" horiz-adv-x="305" 
d="M85 569l-54 75l190 135l54 -75zM100 0v527h107v-527h-107z" />
    <glyph glyph-name="icircumflex" unicode="&#xee;" horiz-adv-x="305" 
d="M32 564l-58 71l151 121h56l151 -121l-57 -71l-122 100zM100 0v527h107v-527h-107z" />
    <glyph glyph-name="idieresis" unicode="&#xef;" horiz-adv-x="305" 
d="M-20 588v131h126v-131h-126zM199 588v131h126v-131h-126zM100 0v527h107v-527h-107z" />
    <glyph glyph-name="eth" unicode="&#xf0;" horiz-adv-x="563" 
d="M224 -8l-96 50l-48 69l-27 65v107l27 65l48 69l96 51h106l-55 90l-103 -58l-38 69l103 58l-50 83l94 53l42 -80l104 51l37 -70l-100 -56l125 -220l21 -100v-112l-26 -65l-48 -69l-98 -50h-114zM249 98h64l51 25l22 35l17 38v76l-18 46l-27 28l-43 16h-65l-49 -27l-24 -32
l-17 -41v-65l18 -41l22 -32z" />
    <glyph glyph-name="ntilde" unicode="&#xf1;" horiz-adv-x="586" 
d="M344 578l-45 16l-50 31h-25l-22 -10l-14 -13l-7 -21l-89 34l19 44l41 38l56 22h51l44 -16l34 -22l22 -7h14l12 4l10 10l12 31l86 -23l-11 -42l-16 -30l-33 -26l-43 -18zM89 0v527h107v-32l69 40h90l93 -25l63 -85v-425h-107v386l-19 27l-50 16h-53l-62 -41l-24 -34v-354
h-107z" />
    <glyph glyph-name="ograve" unicode="&#xf2;" horiz-adv-x="558" 
d="M347 559l-190 135l54 75l190 -135zM226 -8l-101 49l-53 77l-19 86v118l19 86l53 77l101 50h106l102 -50l53 -77l18 -86v-118l-18 -86l-53 -77l-102 -49h-106zM246 97h66l52 26l22 34l13 61v92l-13 58l-24 36l-49 25h-69l-47 -25l-25 -35l-12 -59v-92l12 -62l23 -33z" />
    <glyph glyph-name="oacute" unicode="&#xf3;" horiz-adv-x="558" 
d="M211 569l-54 75l190 135l54 -75zM226 -8l-101 49l-53 77l-19 86v118l19 86l53 77l101 50h106l102 -50l53 -77l18 -86v-118l-18 -86l-53 -77l-102 -49h-106zM246 97h66l52 26l22 34l13 61v92l-13 58l-24 36l-49 25h-69l-47 -25l-25 -35l-12 -59v-92l12 -62l23 -33z" />
    <glyph glyph-name="ocircumflex" unicode="&#xf4;" horiz-adv-x="558" 
d="M158 564l-58 71l151 121h56l151 -121l-57 -71l-122 100zM226 -8l-101 49l-53 77l-19 86v118l19 86l53 77l101 50h106l102 -50l53 -77l18 -86v-118l-18 -86l-53 -77l-102 -49h-106zM246 97h66l52 26l22 34l13 61v92l-13 58l-24 36l-49 25h-69l-47 -25l-25 -35l-12 -59v-92
l12 -62l23 -33z" />
    <glyph glyph-name="otilde" unicode="&#xf5;" horiz-adv-x="558" 
d="M330 578l-45 16l-50 31h-25l-22 -10l-14 -13l-7 -21l-89 34l19 44l41 38l56 22h51l44 -16l34 -22l22 -7h14l12 4l10 10l12 31l86 -23l-11 -42l-16 -30l-33 -26l-43 -18zM226 -8l-101 49l-53 77l-19 86v118l19 86l53 77l101 50h106l102 -50l53 -77l18 -86v-118l-18 -86
l-53 -77l-102 -49h-106zM246 97h66l52 26l22 34l13 61v92l-13 58l-24 36l-49 25h-69l-47 -25l-25 -35l-12 -59v-92l12 -62l23 -33z" />
    <glyph glyph-name="odieresis" unicode="&#xf6;" horiz-adv-x="558" 
d="M106 588v131h126v-131h-126zM325 588v131h126v-131h-126zM226 -8l-101 49l-53 77l-19 86v118l19 86l53 77l101 50h106l102 -50l53 -77l18 -86v-118l-18 -86l-53 -77l-102 -49h-106zM246 97h66l52 26l22 34l13 61v92l-13 58l-24 36l-49 25h-69l-47 -25l-25 -35l-12 -59
v-92l12 -62l23 -33z" />
    <glyph glyph-name="divide" unicode="&#xf7;" horiz-adv-x="580" 
d="M222 439v133h135v-133h-135zM66 292v95h448v-95h-448zM222 106v133h135v-133h-135z" />
    <glyph glyph-name="oslash" unicode="&#xf8;" horiz-adv-x="559" 
d="M451 460l36 -52l18 -86v-118l-18 -86l-53 -77l-102 -49h-106l-49 24l-49 -81l-63 40l50 81l-43 62l-19 86v118l19 86l53 77l101 50h106l60 -30l52 84l62 -39zM172 156l3 -4l163 264l-25 13h-69l-47 -25l-25 -35l-12 -59v-92zM399 218v92l-11 48q-145 -235 -156 -254
l14 -7h66l52 26l22 34z" />
    <glyph glyph-name="ugrave" unicode="&#xf9;" horiz-adv-x="581" 
d="M359 559l-190 135l54 75l190 -135zM236 -8l-95 25l-67 87v423h107v-386l23 -31l48 -13h46l62 42l25 33v355h107v-527h-106v32l-70 -40h-80z" />
    <glyph glyph-name="uacute" unicode="&#xfa;" horiz-adv-x="581" 
d="M223 569l-54 75l190 135l54 -75zM236 -8l-95 25l-67 87v423h107v-386l23 -31l48 -13h46l62 42l25 33v355h107v-527h-106v32l-70 -40h-80z" />
    <glyph glyph-name="ucircumflex" unicode="&#xfb;" horiz-adv-x="581" 
d="M170 564l-58 71l151 121h56l151 -121l-57 -71l-122 100zM236 -8l-95 25l-67 87v423h107v-386l23 -31l48 -13h46l62 42l25 33v355h107v-527h-106v32l-70 -40h-80z" />
    <glyph glyph-name="udieresis" unicode="&#xfc;" horiz-adv-x="581" 
d="M118 588v131h126v-131h-126zM337 588v131h126v-131h-126zM236 -8l-95 25l-67 87v423h107v-386l23 -31l48 -13h46l62 42l25 33v355h107v-527h-106v32l-70 -40h-80z" />
    <glyph glyph-name="yacute" unicode="&#xfd;" horiz-adv-x="552" 
d="M208 569l-54 75l190 135l54 -75zM109 -163l110 243l-203 447h121l140 -318l140 318h119l-311 -690h-116z" />
    <glyph glyph-name="thorn" unicode="&#xfe;" horiz-adv-x="594" 
d="M90 -162v873h107v-213l60 37h93l105 -49l67 -91l21 -73v-115l-21 -75l-67 -90l-102 -50h-89l-59 22l-8 6v-182h-107zM278 97h57l50 28l42 57l10 38v89l-10 36l-42 58l-54 26h-54l-55 -38l-25 -36v-206l16 -20l32 -20z" />
    <glyph glyph-name="ydieresis" unicode="&#xff;" horiz-adv-x="552" 
d="M103 588v131h126v-131h-126zM322 588v131h126v-131h-126zM109 -163l110 243l-203 447h121l140 -318l140 318h119l-311 -690h-116z" />
    <glyph glyph-name="Amacron" unicode="&#x100;" horiz-adv-x="624" 
d="M476 847v-86h-328v86h328zM497 0l-62 179h-246l-63 -179h-115l259 711h83l259 -711h-115zM226 285h172l-86 247z" />
    <glyph glyph-name="amacron" unicode="&#x101;" horiz-adv-x="565" 
d="M119 594v86h328v-86h-328zM439 -13l-44 65l-12 -13l-92 -47h-64l-68 21l-49 29l-58 84v61l15 69l75 76l98 25h66l66 -22l4 -3v43l-8 20l-34 23l-44 11h-64l-33 -12l-27 -18l-28 -27l-74 77l40 37l45 29l67 20h93l67 -17l79 -53l28 -70v-285l42 -61zM241 98h28l65 25
l34 36l8 22v28l-16 17l-23 11l-46 14h-39l-54 -15l-32 -33l-7 -26v-20l25 -36l18 -10z" />
    <glyph glyph-name="Abreve" unicode="&#x102;" horiz-adv-x="624" 
d="M237 757l-50 45l-15 41v42h85v-26l6 -16l20 -16l23 -8h12l21 7l22 20l5 12v27h85v-42l-15 -41l-50 -45l-52 -18h-45zM497 0l-62 179h-246l-63 -179h-115l259 711h83l259 -711h-115zM226 285h172l-86 247z" />
    <glyph glyph-name="abreve" unicode="&#x103;" horiz-adv-x="565" 
d="M259 568l-52 18l-51 45l-14 41v43h81v-30l4 -9l21 -19l21 -8h25l22 8l21 19l5 9v30h81v-43l-15 -41l-51 -45l-52 -18h-46zM439 -13l-44 65l-12 -13l-92 -47h-64l-68 21l-49 29l-58 84v61l15 69l75 76l98 25h66l66 -22l4 -3v43l-8 20l-34 23l-44 11h-64l-33 -12l-27 -18
l-28 -27l-74 77l40 37l45 29l67 20h93l67 -17l79 -53l28 -70v-285l42 -61zM241 98h28l65 25l34 36l8 22v28l-16 17l-23 11l-46 14h-39l-54 -15l-32 -33l-7 -26v-20l25 -36l18 -10z" />
    <glyph glyph-name="Aogonek" unicode="&#x104;" horiz-adv-x="624" 
d="M492 -95l17 -6h51v-80h-72l-59 26l-29 45l2 45l15 38l39 40l29 22l-50 144h-246l-63 -179h-115l259 711h83l259 -711h-62l-17 -15l-23 -21l-17 -22l-6 -14l-2 -14zM226 285h172l-86 247z" />
    <glyph glyph-name="aogonek" unicode="&#x105;" horiz-adv-x="565" 
d="M399 -95l17 -6h51v-80h-72l-59 26l-29 45l2 45l15 38l39 40l39 29l-7 10l-12 -13l-92 -47h-64l-68 21l-49 29l-58 84v61l15 69l75 76l98 25h66l66 -22l4 -3v43l-8 20l-34 23l-44 11h-64l-33 -12l-27 -18l-28 -27l-74 77l40 37l45 29l67 20h93l67 -17l79 -53l28 -70v-285
l42 -61l-66 -48l-19 -16l-23 -21l-17 -22l-6 -14l-2 -14zM376 181v28l-16 17l-23 11l-46 14h-39l-54 -15l-32 -33l-7 -26v-20l25 -36l18 -10l39 -13h28l65 25l34 36z" />
    <glyph glyph-name="Cacute" unicode="&#x106;" 
d="M270 736l-44 79l204 113l44 -80zM294 -8l-108 47l-68 69l-43 89l-19 85v147l19 87l42 87l72 70l105 46h111l106 -42l45 -35l48 -56l-78 -74l-42 48l-27 21l-68 30h-74l-63 -29l-45 -44l-28 -56l-15 -65v-122l15 -65l29 -58l43 -42l64 -30h74l70 30l26 21l41 48l78 -74
l-48 -56l-45 -35l-106 -42h-111z" />
    <glyph glyph-name="cacute" unicode="&#x107;" horiz-adv-x="513" 
d="M219 569l-54 75l190 135l54 -75zM241 -8l-101 50l-67 90l-22 73v115l22 75l67 90l101 50h84l83 -27l73 -74l-77 -72l-55 55l-34 12h-57l-48 -26l-43 -58l-9 -38v-89l10 -36l43 -59l51 -25h50l35 12l59 55l74 -74l-72 -72l-83 -27h-84z" />
    <glyph glyph-name="Ccircumflex" unicode="&#x108;" 
d="M226 738l-58 70l153 123h58l153 -123l-58 -70l-124 102zM294 -8l-108 47l-68 69l-43 89l-19 85v147l19 87l42 87l72 70l105 46h111l106 -42l45 -35l48 -56l-78 -74l-42 48l-27 21l-68 30h-74l-63 -29l-45 -44l-28 -56l-15 -65v-122l15 -65l29 -58l43 -42l64 -30h74l70 30
l26 21l41 48l78 -74l-48 -56l-45 -35l-106 -42h-111z" />
    <glyph glyph-name="ccircumflex" unicode="&#x109;" horiz-adv-x="513" 
d="M166 564l-58 71l151 121h56l151 -121l-57 -71l-122 100zM241 -8l-101 50l-67 90l-22 73v115l22 75l67 90l101 50h84l83 -27l73 -74l-77 -72l-55 55l-34 12h-57l-48 -26l-43 -58l-9 -38v-89l10 -36l43 -59l51 -25h50l35 12l59 55l74 -74l-72 -72l-83 -27h-84z" />
    <glyph glyph-name="Cdotaccent" unicode="&#x10a;" 
d="M283 768v137h134v-137h-134zM294 -8l-108 47l-68 69l-43 89l-19 85v147l19 87l42 87l72 70l105 46h111l106 -42l45 -35l48 -56l-78 -74l-42 48l-27 21l-68 30h-74l-63 -29l-45 -44l-28 -56l-15 -65v-122l15 -65l29 -58l43 -42l64 -30h74l70 30l26 21l41 48l78 -74
l-48 -56l-45 -35l-106 -42h-111z" />
    <glyph glyph-name="cdotaccent" unicode="&#x10b;" horiz-adv-x="513" 
d="M217 579v145h140v-145h-140zM241 -8l-101 50l-67 90l-22 73v115l22 75l67 90l101 50h84l83 -27l73 -74l-77 -72l-55 55l-34 12h-57l-48 -26l-43 -58l-9 -38v-89l10 -36l43 -59l51 -25h50l35 12l59 55l74 -74l-72 -72l-83 -27h-84z" />
    <glyph glyph-name="Ccaron" unicode="&#x10c;" 
d="M321 747l-153 124l58 70l124 -102l124 102l58 -70l-153 -124h-58zM294 -8l-108 47l-68 69l-43 89l-19 85v147l19 87l42 87l72 70l105 46h111l106 -42l45 -35l48 -56l-78 -74l-42 48l-27 21l-68 30h-74l-63 -29l-45 -44l-28 -56l-15 -65v-122l15 -65l29 -58l43 -42l64 -30
h74l70 30l26 21l41 48l78 -74l-48 -56l-45 -35l-106 -42h-111z" />
    <glyph glyph-name="ccaron" unicode="&#x10d;" horiz-adv-x="513" 
d="M259 567l-151 121l58 71l121 -99l121 99l58 -71l-151 -121h-56zM241 -8l-101 50l-67 90l-22 73v115l22 75l67 90l101 50h84l83 -27l73 -74l-77 -72l-55 55l-34 12h-57l-48 -26l-43 -58l-9 -38v-89l10 -36l43 -59l51 -25h50l35 12l59 55l74 -74l-72 -72l-83 -27h-84z" />
    <glyph glyph-name="Dcaron" unicode="&#x10e;" horiz-adv-x="663" 
d="M253 747l-153 124l58 70l124 -102l124 102l58 -70l-153 -124h-58zM90 0v711h267l115 -45l69 -70l44 -87l21 -87v-133l-21 -87l-44 -87l-69 -70l-115 -45h-267zM198 107h138l73 31l43 43l27 56l19 69v99l-18 69l-29 58l-43 42l-72 30h-138v-497z" />
    <glyph glyph-name="dcaron" unicode="&#x10f;" horiz-adv-x="728" 
d="M243 -8l-104 49l-67 91l-22 73v115l22 75l67 90l102 50h88l60 -22l8 -6v247h107v-754h-106v29l-61 -37h-94zM679 712v-99l-82 -130l-52 29l44 91l-35 15v94h125zM263 98h54l55 38l25 36v206l-16 20l-32 20l-33 12h-57l-50 -28l-42 -57l-10 -38v-90l10 -35l41 -58z" />
    <glyph glyph-name="Dcroat" unicode="&#x110;" horiz-adv-x="683" 
d="M585 509l21 -87v-133l-21 -87l-44 -87l-69 -70l-115 -45h-267v319h-67v83h67v309h267l115 -45l69 -70zM498 306v99l-18 69l-29 58l-43 42l-72 30h-138v-202h148v-83h-148v-212h138l73 31l43 43l27 56z" />
    <glyph glyph-name="dcroat" unicode="&#x111;" horiz-adv-x="594" 
d="M577 685v-73h-73v-612h-106v29l-61 -37h-94l-104 49l-67 91l-22 73v115l22 75l67 90l102 50h88l60 -22l8 -6v105h-120v73h120v69h107v-69h73zM397 172v206l-16 20l-32 20l-33 12h-57l-50 -28l-42 -57l-10 -38v-90l10 -35l41 -58l55 -26h54l55 38z" />
    <glyph glyph-name="Emacron" unicode="&#x112;" horiz-adv-x="581" 
d="M165 761v86h328v-86h-328zM89 0v711h457v-107h-348v-173h240v-108h-240v-216h348v-107h-457z" />
    <glyph glyph-name="emacron" unicode="&#x113;" horiz-adv-x="574" 
d="M123 594v86h328v-86h-328zM241 -8l-102 50l-67 90l-21 73v115l21 75l67 90l102 50h90l102 -50l66 -90l24 -69v-120h-365l10 -24l42 -59l52 -25h51l60 16l61 37l56 -86l-77 -51l-88 -22h-84zM159 312h256l-11 32l-41 57l-51 28h-54l-49 -26l-43 -58z" />
    <glyph glyph-name="Ebreve" unicode="&#x114;" horiz-adv-x="581" 
d="M306 739l-52 18l-50 45l-15 41v42h85v-26l6 -16l20 -16l23 -8h12l21 7l22 20l5 12v27h85v-42l-15 -41l-50 -45l-52 -18h-45zM89 0v711h457v-107h-348v-173h240v-108h-240v-216h348v-107h-457z" />
    <glyph glyph-name="ebreve" unicode="&#x115;" horiz-adv-x="574" 
d="M263 568l-52 18l-51 45l-14 41v43h81v-30l4 -9l21 -19l21 -8h25l22 8l21 19l5 9v30h81v-43l-15 -41l-51 -45l-52 -18h-46zM241 -8l-102 50l-67 90l-21 73v115l21 75l67 90l102 50h90l102 -50l66 -90l24 -69v-120h-365l10 -24l42 -59l52 -25h51l60 16l61 37l56 -86
l-77 -51l-88 -22h-84zM159 312h256l-11 32l-41 57l-51 28h-54l-49 -26l-43 -58z" />
    <glyph glyph-name="Edotaccent" unicode="&#x116;" horiz-adv-x="581" 
d="M262 768v137h134v-137h-134zM89 0v711h457v-107h-348v-173h240v-108h-240v-216h348v-107h-457z" />
    <glyph glyph-name="edotaccent" unicode="&#x117;" horiz-adv-x="574" 
d="M217 579v145h140v-145h-140zM241 -8l-102 50l-67 90l-21 73v115l21 75l67 90l102 50h90l102 -50l66 -90l24 -69v-120h-365l10 -24l42 -59l52 -25h51l60 16l61 37l56 -86l-77 -51l-88 -22h-84zM159 312h256l-11 32l-41 57l-51 28h-54l-49 -26l-43 -58z" />
    <glyph glyph-name="Eogonek" unicode="&#x118;" horiz-adv-x="581" 
d="M546 604h-348v-173h240v-108h-240v-216h348v-107h-35l-17 -15l-23 -21l-17 -22l-6 -14l-2 -14l7 -9l17 -6h51v-80h-72l-59 26l-29 45l2 45l15 38l26 27h-315v711h457v-107z" />
    <glyph glyph-name="eogonek" unicode="&#x119;" horiz-adv-x="574" 
d="M523 326v-120h-365l10 -24l42 -59l52 -25h51l60 16l61 37l56 -86l-77 -51l-15 -4l-29 -25l-23 -21l-17 -22l-6 -14l-2 -14l7 -9l17 -6h51v-80h-72l-59 26l-29 45l2 45l15 38l19 19h-31l-102 50l-67 90l-21 73v115l21 75l67 90l102 50h90l102 -50l66 -90zM159 312h256
l-11 32l-41 57l-51 28h-54l-49 -26l-43 -58z" />
    <glyph glyph-name="Ecaron" unicode="&#x11a;" horiz-adv-x="581" 
d="M300 747l-153 124l58 70l124 -102l124 102l58 -70l-153 -124h-58zM89 0v711h457v-107h-348v-173h240v-108h-240v-216h348v-107h-457z" />
    <glyph glyph-name="ecaron" unicode="&#x11b;" horiz-adv-x="574" 
d="M259 567l-151 121l58 71l121 -99l121 99l58 -71l-151 -121h-56zM241 -8l-102 50l-67 90l-21 73v115l21 75l67 90l102 50h90l102 -50l66 -90l24 -69v-120h-365l10 -24l42 -59l52 -25h51l60 16l61 37l56 -86l-77 -51l-88 -22h-84zM159 312h256l-11 32l-41 57l-51 28h-54
l-49 -26l-43 -58z" />
    <glyph glyph-name="Gcircumflex" unicode="&#x11c;" horiz-adv-x="677" 
d="M215 738l-58 70l153 123h58l153 -123l-58 -70l-124 102zM295 -8l-107 47l-69 69l-43 89l-19 85v147l19 87l42 87l72 70l105 46h111l106 -39l47 -36l48 -58l-81 -70l-38 48l-32 24l-68 23h-72l-63 -29l-44 -44l-29 -56l-14 -65v-122l14 -65l30 -58l42 -42l64 -30h74l51 23
l41 35l28 46l7 30v33h-167v107h275v-146l-11 -60l-44 -74l-71 -62l-89 -40h-115z" />
    <glyph glyph-name="gcircumflex" unicode="&#x11d;" horiz-adv-x="594" 
d="M176 564l-58 71l151 121h56l151 -121l-57 -71l-122 100zM239 -168l-68 18l-53 34l-36 36l75 77l33 -33l18 -14l46 -12h61l39 14l36 26l9 22v59l-60 -36h-92l-103 40l-70 91l-22 74v92l22 75l67 90l101 50h89l60 -22l8 -6v20h106v-542l-25 -75l-80 -53l-72 -25h-89z
M263 129h56l55 38l25 39v172l-17 20l-31 20l-33 12h-58l-49 -28l-42 -57l-10 -38v-66l9 -35l41 -56z" />
    <glyph glyph-name="Gbreve" unicode="&#x11e;" horiz-adv-x="677" 
d="M316 739l-52 18l-50 45l-15 41v42h85v-26l6 -16l20 -16l23 -8h12l21 7l22 20l5 12v27h85v-42l-15 -41l-50 -45l-52 -18h-45zM295 -8l-107 47l-69 69l-43 89l-19 85v147l19 87l42 87l72 70l105 46h111l106 -39l47 -36l48 -58l-81 -70l-38 48l-32 24l-68 23h-72l-63 -29
l-44 -44l-29 -56l-14 -65v-122l14 -65l30 -58l42 -42l64 -30h74l51 23l41 35l28 46l7 30v33h-167v107h275v-146l-11 -60l-44 -74l-71 -62l-89 -40h-115z" />
    <glyph glyph-name="gbreve" unicode="&#x11f;" horiz-adv-x="594" 
d="M273 568l-52 18l-51 45l-14 41v43h81v-30l4 -9l21 -19l21 -8h25l22 8l21 19l5 9v30h81v-43l-15 -41l-51 -45l-52 -18h-46zM239 -168l-68 18l-53 34l-36 36l75 77l33 -33l18 -14l46 -12h61l39 14l36 26l9 22v59l-60 -36h-92l-103 40l-70 91l-22 74v92l22 75l67 90l101 50
h89l60 -22l8 -6v20h106v-542l-25 -75l-80 -53l-72 -25h-89zM263 129h56l55 38l25 39v172l-17 20l-31 20l-33 12h-58l-49 -28l-42 -57l-10 -38v-66l9 -35l41 -56z" />
    <glyph glyph-name="Gdotaccent" unicode="&#x120;" horiz-adv-x="677" 
d="M272 768v137h134v-137h-134zM295 -8l-107 47l-69 69l-43 89l-19 85v147l19 87l42 87l72 70l105 46h111l106 -39l47 -36l48 -58l-81 -70l-38 48l-32 24l-68 23h-72l-63 -29l-44 -44l-29 -56l-14 -65v-122l14 -65l30 -58l42 -42l64 -30h74l51 23l41 35l28 46l7 30v33h-167
v107h275v-146l-11 -60l-44 -74l-71 -62l-89 -40h-115z" />
    <glyph glyph-name="gdotaccent" unicode="&#x121;" horiz-adv-x="594" 
d="M227 579v145h140v-145h-140zM239 -168l-68 18l-53 34l-36 36l75 77l33 -33l18 -14l46 -12h61l39 14l36 26l9 22v59l-60 -36h-92l-103 40l-70 91l-22 74v92l22 75l67 90l101 50h89l60 -22l8 -6v20h106v-542l-25 -75l-80 -53l-72 -25h-89zM263 129h56l55 38l25 39v172
l-17 20l-31 20l-33 12h-58l-49 -28l-42 -57l-10 -38v-66l9 -35l41 -56z" />
    <glyph glyph-name="Gcommaaccent" unicode="&#x122;" horiz-adv-x="677" 
d="M295 -8l-107 47l-69 69l-43 89l-19 85v147l19 87l42 87l72 70l105 46h111l106 -39l47 -36l48 -58l-81 -70l-38 48l-32 24l-68 23h-72l-63 -29l-44 -44l-29 -56l-14 -65v-122l14 -65l30 -58l42 -42l64 -30h74l51 23l41 35l28 46l7 30v33h-167v107h275v-146l-11 -60
l-44 -74l-71 -62l-89 -40h-115zM327 -225l-52 24l34 62l-32 13v91h125v-66z" />
    <glyph glyph-name="gcommaaccent" unicode="&#x123;" horiz-adv-x="594" 
d="M230 581v99l82 130l52 -29l-44 -91l35 -15v-94h-125zM239 -168l-68 18l-53 34l-36 36l75 77l33 -33l18 -14l46 -12h61l39 14l36 26l9 22v59l-60 -36h-92l-103 40l-70 91l-22 74v92l22 75l67 90l101 50h89l60 -22l8 -6v20h106v-542l-25 -75l-80 -53l-72 -25h-89zM263 129
h56l55 38l25 39v172l-17 20l-31 20l-33 12h-58l-49 -28l-42 -57l-10 -38v-66l9 -35l41 -56z" />
    <glyph glyph-name="Hcircumflex" unicode="&#x124;" horiz-adv-x="679" 
d="M216 738l-58 70l153 123h58l153 -123l-58 -70l-124 102zM91 0v711h108v-280h281v280h109v-711h-109v323h-281v-323h-108z" />
    <glyph glyph-name="hcircumflex" unicode="&#x125;" horiz-adv-x="581" 
d="M19 738l-58 70l153 123h58l153 -123l-58 -70l-124 102zM89 0v754h107v-258l69 39h91l87 -26l63 -84v-425h-107v386l-20 29l-40 14h-57l-62 -41l-24 -36v-352h-107z" />
    <glyph glyph-name="Hbar" unicode="&#x126;" horiz-adv-x="699" 
d="M667 600v-78h-68v-522h-109v323h-281v-323h-108v522h-69v78h69v111h108v-111h281v111h109v-111h68zM490 431v91h-281v-91h281z" />
    <glyph glyph-name="hbar" unicode="&#x127;" horiz-adv-x="581" 
d="M443 509l63 -84v-425h-107v386l-20 29l-40 14h-57l-62 -41l-24 -36v-352h-107v612h-74v73h74v69h107v-69h119v-73h-119v-116l69 39h91z" />
    <glyph glyph-name="Itilde" unicode="&#x128;" horiz-adv-x="273" 
d="M28 747l-81 27l12 38l19 31l24 18l52 24h44l49 -20l34 -21l21 -3l20 8l16 14l7 24l81 -27l-12 -38l-19 -32l-25 -18l-52 -23h-39l-39 15l-43 26l-14 4h-13l-19 -5l-15 -17zM83 0v711h108v-711h-108z" />
    <glyph glyph-name="itilde" unicode="&#x129;" horiz-adv-x="305" 
d="M204 578l-45 16l-50 31h-25l-22 -10l-14 -13l-7 -21l-89 34l19 44l41 38l56 22h51l44 -16l34 -22l22 -7h14l12 4l10 10l12 31l86 -23l-11 -42l-16 -30l-33 -26l-43 -18zM100 0v527h107v-527h-107z" />
    <glyph glyph-name="Imacron" unicode="&#x12a;" horiz-adv-x="273" 
d="M-27 761v86h328v-86h-328zM83 0v711h108v-711h-108z" />
    <glyph glyph-name="imacron" unicode="&#x12b;" horiz-adv-x="305" 
d="M-11 594v86h328v-86h-328zM100 0v527h107v-527h-107z" />
    <glyph glyph-name="Ibreve" unicode="&#x12c;" horiz-adv-x="273" 
d="M114 739l-52 18l-50 45l-15 41v42h85v-26l6 -16l20 -16l23 -8h12l21 7l22 20l5 12v27h85v-42l-15 -41l-50 -45l-52 -18h-45zM83 0v711h108v-711h-108z" />
    <glyph glyph-name="ibreve" unicode="&#x12d;" horiz-adv-x="305" 
d="M129 568l-52 18l-51 45l-14 41v43h81v-30l4 -9l21 -19l21 -8h25l22 8l21 19l5 9v30h81v-43l-15 -41l-51 -45l-52 -18h-46zM100 0v527h107v-527h-107z" />
    <glyph glyph-name="Iogonek" unicode="&#x12e;" horiz-adv-x="273" 
d="M87 -58l-6 -14l-2 -14l7 -9l17 -6h51v-80h-72l-59 26l-29 45l2 45l15 38l39 40l33 25v673h108v-711h-47l-17 -15l-23 -21z" />
    <glyph glyph-name="iogonek" unicode="&#x12f;" horiz-adv-x="305" 
d="M83 754h140v-145h-140v145zM100 32v495h107v-527h-38l-17 -15l-23 -21l-17 -22l-6 -14l-2 -14l7 -9l17 -6h51v-80h-72l-59 26l-29 45l2 45l15 38l39 40z" />
    <glyph glyph-name="Idotaccent" unicode="&#x130;" horiz-adv-x="273" 
d="M70 768v137h134v-137h-134zM83 0v711h108v-711h-108z" />
    <glyph glyph-name="dotlessi" unicode="&#x131;" horiz-adv-x="305" 
d="M100 0v527h107v-527h-107z" />
    <glyph glyph-name="IJ" unicode="&#x132;" horiz-adv-x="776" 
d="M83 0v711h108v-711h-108zM452 -8l-70 28l-75 73l-24 103l106 29l16 -75l39 -41l27 -9h34l25 10l41 41l13 54v506h108v-524l-24 -94l-72 -73l-70 -28h-74z" />
    <glyph glyph-name="ij" unicode="&#x133;" horiz-adv-x="578" 
d="M83 609v145h140v-145h-140zM372 609v145h140v-145h-140zM100 0v527h107v-527h-107zM314 -162l-65 16l27 103l49 -12h22l28 9l18 29v544h107v-576l-53 -83l-87 -30h-46z" />
    <glyph glyph-name="Jcircumflex" unicode="&#x134;" horiz-adv-x="503" 
d="M241 738l-58 70l153 123h58l153 -123l-58 -70l-124 102zM179 -8l-70 28l-75 73l-24 103l106 29l16 -75l39 -41l27 -9h34l25 10l41 41l13 54v506h108v-524l-24 -94l-72 -73l-70 -28h-74z" />
    <glyph glyph-name="jcircumflex" unicode="&#x135;" horiz-adv-x="273" 
d="M16 564l-58 71l151 121h56l151 -121l-57 -71l-122 100zM9 -162l-65 16l27 103l49 -12h22l28 9l18 29v544h107v-576l-53 -83l-87 -30h-46z" />
    <glyph glyph-name="Kcommaaccent" unicode="&#x136;" horiz-adv-x="665" 
d="M84 0v711h109v-332l310 332h152l-279 -296l282 -415h-132l-226 338l-107 -114v-224h-109zM321 -225l-52 24l34 62l-32 13v91h125v-66z" />
    <glyph glyph-name="kcommaaccent" unicode="&#x137;" horiz-adv-x="552" 
d="M81 0v753h107v-416l190 190h152l-221 -216l223 -311h-131l-166 237l-47 -45v-192h-107zM264 -225l-52 24l34 62l-32 13v91h125v-66z" />
    <glyph glyph-name="kgreenlandic" unicode="&#x138;" horiz-adv-x="559" 
d="M81 0v527h107v-199l199 199h152l-224 -221l208 -306h-127l-157 232l-51 -50v-182h-107z" />
    <glyph glyph-name="Lacute" unicode="&#x139;" horiz-adv-x="522" 
d="M57 736l-44 79l204 113l44 -80zM83 0v711h108v-604h311v-107h-419z" />
    <glyph glyph-name="lacute" unicode="&#x13a;" horiz-adv-x="263" 
d="M52 756l-44 79l204 113l44 -80zM78 0v754h107v-754h-107z" />
    <glyph glyph-name="Lcommaaccent" unicode="&#x13b;" horiz-adv-x="522" 
d="M83 0v711h108v-604h311v-107h-419zM281 -225l-52 24l34 62l-32 13v91h125v-66z" />
    <glyph glyph-name="lcommaaccent" unicode="&#x13c;" horiz-adv-x="263" 
d="M78 0v754h107v-754h-107zM120 -225l-52 24l34 62l-32 13v91h125v-66z" />
    <glyph glyph-name="Lcaron" unicode="&#x13d;" horiz-adv-x="522" 
d="M447 712v-99l-82 -130l-52 29l44 91l-35 15v94h125zM83 0v711h108v-604h311v-107h-419z" />
    <glyph glyph-name="lcaron" unicode="&#x13e;" horiz-adv-x="397" 
d="M78 0v754h107v-754h-107zM358 712v-99l-82 -130l-52 29l44 91l-35 15v94h125z" />
    <glyph glyph-name="Ldot" unicode="&#x13f;" horiz-adv-x="522" 
d="M83 0v711h108v-604h311v-107h-419zM314 338v139h135v-139h-135z" />
    <glyph glyph-name="ldot" unicode="&#x140;" horiz-adv-x="398" 
d="M78 0v754h107v-754h-107zM228 328v139h135v-139h-135z" />
    <glyph glyph-name="Lslash" unicode="&#x141;" horiz-adv-x="522" 
d="M191 107h311v-107h-419v254l-48 -26l-38 72l86 47v364h108v-306l183 99l37 -72l-220 -119v-206z" />
    <glyph glyph-name="lslash" unicode="&#x142;" horiz-adv-x="273" 
d="M326 445l-136 -74v-371h-107v313l-84 -45l-39 71l123 67v348h107v-291l97 53z" />
    <glyph glyph-name="Nacute" unicode="&#x143;" horiz-adv-x="738" 
d="M289 736l-44 79l204 113l44 -80zM91 0v711h89l358 -521v521h109v-711h-107l-340 498v-498h-109z" />
    <glyph glyph-name="nacute" unicode="&#x144;" horiz-adv-x="586" 
d="M225 569l-54 75l190 135l54 -75zM89 0v527h107v-32l69 40h90l93 -25l63 -85v-425h-107v386l-19 27l-50 16h-53l-62 -41l-24 -34v-354h-107z" />
    <glyph glyph-name="Ncommaaccent" unicode="&#x145;" horiz-adv-x="738" 
d="M91 0v711h89l358 -521v521h109v-711h-107l-340 498v-498h-109zM357 -225l-52 24l34 62l-32 13v91h125v-66z" />
    <glyph glyph-name="ncommaaccent" unicode="&#x146;" horiz-adv-x="586" 
d="M89 0v527h107v-32l69 40h90l93 -25l63 -85v-425h-107v386l-19 27l-50 16h-53l-62 -41l-24 -34v-354h-107zM281 -225l-52 24l34 62l-32 13v91h125v-66z" />
    <glyph glyph-name="Ncaron" unicode="&#x147;" horiz-adv-x="738" 
d="M340 747l-153 124l58 70l124 -102l124 102l58 -70l-153 -124h-58zM91 0v711h89l358 -521v521h109v-711h-107l-340 498v-498h-109z" />
    <glyph glyph-name="ncaron" unicode="&#x148;" horiz-adv-x="586" 
d="M265 567l-151 121l58 71l121 -99l121 99l58 -71l-151 -121h-56zM89 0v527h107v-32l69 40h90l93 -25l63 -85v-425h-107v386l-19 27l-50 16h-53l-62 -41l-24 -34v-354h-107z" />
    <glyph glyph-name="napostrophe" unicode="&#x149;" horiz-adv-x="586" 
d="M116 755v-99l-82 -130l-52 29l44 91l-35 15v94h125zM89 0v527h107v-32l69 40h90l93 -25l63 -85v-425h-107v386l-19 27l-50 16h-53l-62 -41l-24 -34v-354h-107z" />
    <glyph glyph-name="Eng" unicode="&#x14a;" horiz-adv-x="738" 
d="M453 -163l-86 21l29 107l70 -19h21l28 9l19 30v21l-337 493v-499h-109v711h89l357 -521v521h109v-759l-56 -85l-88 -30h-46z" />
    <glyph glyph-name="eng" unicode="&#x14b;" horiz-adv-x="586" 
d="M448 510l63 -85v-473l-54 -84l-82 -30h-46l-74 20l28 102l54 -15h25l25 10l17 28v403l-19 27l-50 16h-53l-62 -41l-24 -34v-354h-107v527h107v-32l69 40h90z" />
    <glyph glyph-name="Omacron" unicode="&#x14c;" horiz-adv-x="704" 
d="M188 761v86h328v-86h-328zM295 -8l-107 47l-68 69l-44 89l-19 85v147l19 87l43 87l72 70l104 46h113l105 -46l72 -70l42 -87l19 -87v-147l-19 -85l-43 -89l-68 -69l-108 -47h-113zM318 100h69l65 30l42 42l30 58l14 65v122l-14 65l-29 56l-44 44l-64 29h-71l-63 -29
l-44 -44l-29 -56l-14 -66v-122l13 -61l31 -60l42 -43z" />
    <glyph glyph-name="omacron" unicode="&#x14d;" horiz-adv-x="558" 
d="M115 594v86h328v-86h-328zM226 -8l-101 49l-53 77l-19 86v118l19 86l53 77l101 50h106l102 -50l53 -77l18 -86v-118l-18 -86l-53 -77l-102 -49h-106zM246 97h66l52 26l22 34l13 61v92l-13 58l-24 36l-49 25h-69l-47 -25l-25 -35l-12 -59v-92l12 -62l23 -33z" />
    <glyph glyph-name="Obreve" unicode="&#x14e;" horiz-adv-x="704" 
d="M329 739l-52 18l-50 45l-15 41v42h85v-26l6 -16l20 -16l23 -8h12l21 7l22 20l5 12v27h85v-42l-15 -41l-50 -45l-52 -18h-45zM295 -8l-107 47l-68 69l-44 89l-19 85v147l19 87l43 87l72 70l104 46h113l105 -46l72 -70l42 -87l19 -87v-147l-19 -85l-43 -89l-68 -69
l-108 -47h-113zM318 100h69l65 30l42 42l30 58l14 65v122l-14 65l-29 56l-44 44l-64 29h-71l-63 -29l-44 -44l-29 -56l-14 -66v-122l13 -61l31 -60l42 -43z" />
    <glyph glyph-name="obreve" unicode="&#x14f;" horiz-adv-x="558" 
d="M255 568l-52 18l-51 45l-14 41v43h81v-30l4 -9l21 -19l21 -8h25l22 8l21 19l5 9v30h81v-43l-15 -41l-51 -45l-52 -18h-46zM226 -8l-101 49l-53 77l-19 86v118l19 86l53 77l101 50h106l102 -50l53 -77l18 -86v-118l-18 -86l-53 -77l-102 -49h-106zM246 97h66l52 26l22 34
l13 61v92l-13 58l-24 36l-49 25h-69l-47 -25l-25 -35l-12 -59v-92l12 -62l23 -33z" />
    <glyph glyph-name="Ohungarumlaut" unicode="&#x150;" horiz-adv-x="704" 
d="M256 736l-66 58l134 150l66 -59zM444 736l-66 58l134 150l66 -59zM295 -8l-107 47l-68 69l-44 89l-19 85v147l19 87l43 87l72 70l104 46h113l105 -46l72 -70l42 -87l19 -87v-147l-19 -85l-43 -89l-68 -69l-108 -47h-113zM318 100h69l65 30l42 42l30 58l14 65v122l-14 65
l-29 56l-44 44l-64 29h-71l-63 -29l-44 -44l-29 -56l-14 -66v-122l13 -61l31 -60l42 -43z" />
    <glyph glyph-name="ohungarumlaut" unicode="&#x151;" horiz-adv-x="558" 
d="M147 559l-67 59l136 151l66 -60zM342 559l-66 59l135 151l66 -60zM226 -8l-101 49l-53 77l-19 86v118l19 86l53 77l101 50h106l102 -50l53 -77l18 -86v-118l-18 -86l-53 -77l-102 -49h-106zM246 97h66l52 26l22 34l13 61v92l-13 58l-24 36l-49 25h-69l-47 -25l-25 -35
l-12 -59v-92l12 -62l23 -33z" />
    <glyph glyph-name="OE" unicode="&#x152;" horiz-adv-x="882" 
d="M298 0l-107 47l-68 69l-44 88l-19 86v131l19 88l43 86l72 70l104 46h103l34 -15v15h404v-107h-295v-173h188v-108h-188v-216h295v-107h-404v15l-33 -15h-104zM321 107h60l54 26v446l-54 25h-62l-63 -29l-44 -44l-29 -57l-14 -65v-108l13 -60l31 -61l42 -42z" />
    <glyph glyph-name="oe" unicode="&#x153;" horiz-adv-x="899" 
d="M226 -8l-101 49l-53 77l-19 86v118l19 86l53 77l101 50h114l103 -51l6 -10l8 11l101 50h98l102 -50l66 -90l24 -69v-120h-373l10 -24l42 -59l52 -25h59l60 16l61 37l56 -86l-77 -51l-88 -22h-92l-100 49l-9 11l-6 -10l-103 -50h-114zM246 97h76l47 25l17 24l-18 60v113
l18 61l-18 24l-47 25h-77l-47 -25l-25 -35l-12 -59v-92l12 -62l23 -33zM476 312h264l-11 32l-41 57l-51 28h-62l-49 -26l-43 -58z" />
    <glyph glyph-name="Racute" unicode="&#x154;" horiz-adv-x="635" 
d="M238 736l-44 79l204 113l44 -80zM91 0v711h302l93 -24l76 -76l30 -105l-27 -100l-51 -75l-48 -24l136 -307h-120l-124 284h-159v-284h-108zM199 391h190l51 25l24 35l15 52l-14 50l-36 35l-52 16h-178v-213z" />
    <glyph glyph-name="racute" unicode="&#x155;" horiz-adv-x="404" 
d="M134 569l-54 75l190 135l54 -75zM70 0v527h107v-38l12 12l70 34h69l61 -17l-26 -103l-51 14h-34l-46 -22l-35 -39l-20 -43v-325h-107z" />
    <glyph glyph-name="Rcommaaccent" unicode="&#x156;" horiz-adv-x="635" 
d="M91 0v711h302l93 -24l76 -76l30 -105l-27 -100l-51 -75l-48 -24l136 -307h-120l-124 284h-159v-284h-108zM199 391h190l51 25l24 35l15 52l-14 50l-36 35l-52 16h-178v-213zM306 -225l-52 24l34 62l-32 13v91h125v-66z" />
    <glyph glyph-name="rcommaaccent" unicode="&#x157;" horiz-adv-x="404" 
d="M70 0v527h107v-38l12 12l70 34h69l61 -17l-26 -103l-51 14h-34l-46 -22l-35 -39l-20 -43v-325h-107zM112 -225l-52 24l34 62l-32 13v91h125v-66z" />
    <glyph glyph-name="Rcaron" unicode="&#x158;" horiz-adv-x="635" 
d="M289 747l-153 124l58 70l124 -102l124 102l58 -70l-153 -124h-58zM91 0v711h302l93 -24l76 -76l30 -105l-27 -100l-51 -75l-48 -24l136 -307h-120l-124 284h-159v-284h-108zM199 391h190l51 25l24 35l15 52l-14 50l-36 35l-52 16h-178v-213z" />
    <glyph glyph-name="rcaron" unicode="&#x159;" horiz-adv-x="404" 
d="M174 567l-151 121l58 71l121 -99l121 99l58 -71l-151 -121h-56zM70 0v527h107v-38l12 12l70 34h69l61 -17l-26 -103l-51 14h-34l-46 -22l-35 -39l-20 -43v-325h-107z" />
    <glyph glyph-name="Sacute" unicode="&#x15a;" horiz-adv-x="602" 
d="M221 736l-44 79l204 113l44 -80zM247 -8l-111 34l-60 42l-31 39l78 75l27 -34l38 -25l79 -23h79l66 26l18 22l12 24v50l-19 38l-39 21l-194 54l-80 56l-34 54l-14 86l28 88l66 69l94 31h106l113 -29l77 -48l-58 -91l-67 39l-81 21h-74l-49 -16l-32 -33l-11 -40l8 -38
l8 -15l45 -32l202 -56l81 -56l32 -79v-100l-26 -55l-50 -58l-111 -41h-116z" />
    <glyph glyph-name="sacute" unicode="&#x15b;" horiz-adv-x="498" 
d="M181 569l-54 75l190 135l54 -75zM206 -8l-83 21l-48 39l-32 36l75 72l26 -30l22 -17l58 -16h58l33 10l20 14l13 18v29l-13 21l-22 15l-135 28l-67 36l-44 60v94l34 59l49 37l60 17h88l79 -21l71 -48l-59 -88l-54 37l-48 15h-59l-36 -10l-10 -9l-9 -16v-34l14 -18l21 -11
l146 -29l59 -39l41 -66v-90l-39 -59l-51 -37l-70 -20h-88z" />
    <glyph glyph-name="Scircumflex" unicode="&#x15c;" horiz-adv-x="602" 
d="M177 738l-58 70l153 123h58l153 -123l-58 -70l-124 102zM247 -8l-111 34l-60 42l-31 39l78 75l27 -34l38 -25l79 -23h79l66 26l18 22l12 24v50l-19 38l-39 21l-194 54l-80 56l-34 54l-14 86l28 88l66 69l94 31h106l113 -29l77 -48l-58 -91l-67 39l-81 21h-74l-49 -16
l-32 -33l-11 -40l8 -38l8 -15l45 -32l202 -56l81 -56l32 -79v-100l-26 -55l-50 -58l-111 -41h-116z" />
    <glyph glyph-name="scircumflex" unicode="&#x15d;" horiz-adv-x="498" 
d="M128 564l-58 71l151 121h56l151 -121l-57 -71l-122 100zM206 -8l-83 21l-48 39l-32 36l75 72l26 -30l22 -17l58 -16h58l33 10l20 14l13 18v29l-13 21l-22 15l-135 28l-67 36l-44 60v94l34 59l49 37l60 17h88l79 -21l71 -48l-59 -88l-54 37l-48 15h-59l-36 -10l-10 -9
l-9 -16v-34l14 -18l21 -11l146 -29l59 -39l41 -66v-90l-39 -59l-51 -37l-70 -20h-88z" />
    <glyph glyph-name="Scedilla" unicode="&#x15e;" horiz-adv-x="602" 
d="M518 325l32 -79v-100l-26 -55l-50 -58l-111 -41h-41l-4 -17l50 -9l26 -60l-30 -58l-66 -27h-45l-45 21l30 64l29 -10h25l8 6l8 22l-75 17l19 51h-5l-111 34l-60 42l-31 39l78 75l27 -34l38 -25l79 -23h79l66 26l18 22l12 24v50l-19 38l-39 21l-194 54l-80 56l-34 54
l-14 86l28 88l66 69l94 31h106l113 -29l77 -48l-58 -91l-67 39l-81 21h-74l-49 -16l-32 -33l-11 -40l8 -38l8 -15l45 -32l202 -56z" />
    <glyph glyph-name="scedilla" unicode="&#x15f;" horiz-adv-x="498" 
d="M413 264l41 -66v-90l-39 -59l-51 -37l-70 -20h-24l-4 -17l50 -9l26 -60l-30 -58l-66 -27h-45l-45 21l30 64l29 -10h25l8 6l8 22l-75 17l19 52l-77 20l-48 39l-32 36l75 72l26 -30l22 -17l58 -16h58l33 10l20 14l13 18v29l-13 21l-22 15l-135 28l-67 36l-44 60v94l34 59
l49 37l60 17h88l79 -21l71 -48l-59 -88l-54 37l-48 15h-59l-36 -10l-10 -9l-9 -16v-34l14 -18l21 -11l146 -29z" />
    <glyph glyph-name="Scaron" unicode="&#x160;" horiz-adv-x="602" 
d="M272 747l-153 124l58 70l124 -102l124 102l58 -70l-153 -124h-58zM247 -8l-111 34l-60 42l-31 39l78 75l27 -34l38 -25l79 -23h79l66 26l18 22l12 24v50l-19 38l-39 21l-194 54l-80 56l-34 54l-14 86l28 88l66 69l94 31h106l113 -29l77 -48l-58 -91l-67 39l-81 21h-74
l-49 -16l-32 -33l-11 -40l8 -38l8 -15l45 -32l202 -56l81 -56l32 -79v-100l-26 -55l-50 -58l-111 -41h-116z" />
    <glyph glyph-name="scaron" unicode="&#x161;" horiz-adv-x="498" 
d="M221 567l-151 121l58 71l121 -99l121 99l58 -71l-151 -121h-56zM206 -8l-83 21l-48 39l-32 36l75 72l26 -30l22 -17l58 -16h58l33 10l20 14l13 18v29l-13 21l-22 15l-135 28l-67 36l-44 60v94l34 59l49 37l60 17h88l79 -21l71 -48l-59 -88l-54 37l-48 15h-59l-36 -10
l-10 -9l-9 -16v-34l14 -18l21 -11l146 -29l59 -39l41 -66v-90l-39 -59l-51 -37l-70 -20h-88z" />
    <glyph glyph-name="uni0162" unicode="&#x162;" horiz-adv-x="515" 
d="M310 0h-28l-7 -25l50 -9l26 -60l-30 -58l-66 -27h-45l-45 21l30 64l29 -10h25l8 6l8 22l-75 17l22 59h-11v604h-181v107h475v-107h-185v-604z" />
    <glyph glyph-name="uni0163" unicode="&#x163;" horiz-adv-x="414" 
d="M291 -25l50 -9l26 -60l-30 -58l-66 -27h-45l-45 21l30 64l29 -10h25l8 6l8 22l-75 17l21 56l-60 23l-57 81v307h-90v106h90v184h107v-184h131v-106h-131v-274l18 -24l27 -12h21l81 21l27 -104l-95 -21z" />
    <glyph glyph-name="Tcaron" unicode="&#x164;" horiz-adv-x="515" 
d="M229 747l-153 124l58 70l124 -102l124 102l58 -70l-153 -124h-58zM201 0v604h-181v107h475v-107h-185v-604h-109z" />
    <glyph glyph-name="tcaron" unicode="&#x165;" horiz-adv-x="414" 
d="M406 754v-89l-82 -113l-51 19l42 86l-34 13v84h125zM241 -8l-74 28l-57 81v307h-90v106h90v184h107v-184h131v-106h-131v-274l18 -24l27 -12h21l81 21l27 -104l-102 -23h-48z" />
    <glyph glyph-name="Tbar" unicode="&#x166;" horiz-adv-x="515" 
d="M495 604h-185v-77h107v-78h-107v-449h-109v449h-107v78h107v77h-181v107h475v-107z" />
    <glyph glyph-name="tbar" unicode="&#x167;" horiz-adv-x="414" 
d="M364 119l27 -104l-102 -23h-48l-74 28l-57 81v158h-77v70h77v79h-90v106h90v184h107v-184h131v-106h-131v-79h120v-70h-120v-125l18 -24l27 -12h21z" />
    <glyph glyph-name="Utilde" unicode="&#x168;" horiz-adv-x="709" 
d="M246 747l-81 27l12 38l19 31l24 18l52 24h44l49 -20l34 -21l21 -3l20 8l16 14l7 24l81 -27l-12 -38l-19 -32l-25 -18l-52 -23h-39l-39 15l-43 26l-14 4h-13l-19 -5l-15 -17zM311 -8l-130 48l-71 93l-23 75v503h109v-491l11 -38l41 -53l78 -29h58l77 29l43 53l11 38v491
h108v-503l-23 -75l-71 -93l-129 -48h-89z" />
    <glyph glyph-name="utilde" unicode="&#x169;" horiz-adv-x="581" 
d="M342 578l-45 16l-50 31h-25l-22 -10l-14 -13l-7 -21l-89 34l19 44l41 38l56 22h51l44 -16l34 -22l22 -7h14l12 4l10 10l12 31l86 -23l-11 -42l-16 -30l-33 -26l-43 -18zM236 -8l-95 25l-67 87v423h107v-386l23 -31l48 -13h46l62 42l25 33v355h107v-527h-106v32l-70 -40
h-80z" />
    <glyph glyph-name="Umacron" unicode="&#x16a;" horiz-adv-x="709" 
d="M191 761v86h328v-86h-328zM311 -8l-130 48l-71 93l-23 75v503h109v-491l11 -38l41 -53l78 -29h58l77 29l43 53l11 38v491h108v-503l-23 -75l-71 -93l-129 -48h-89z" />
    <glyph glyph-name="umacron" unicode="&#x16b;" horiz-adv-x="581" 
d="M127 594v86h328v-86h-328zM236 -8l-95 25l-67 87v423h107v-386l23 -31l48 -13h46l62 42l25 33v355h107v-527h-106v32l-70 -40h-80z" />
    <glyph glyph-name="Ubreve" unicode="&#x16c;" horiz-adv-x="709" 
d="M332 739l-52 18l-50 45l-15 41v42h85v-26l6 -16l20 -16l23 -8h12l21 7l22 20l5 12v27h85v-42l-15 -41l-50 -45l-52 -18h-45zM311 -8l-130 48l-71 93l-23 75v503h109v-491l11 -38l41 -53l78 -29h58l77 29l43 53l11 38v491h108v-503l-23 -75l-71 -93l-129 -48h-89z" />
    <glyph glyph-name="ubreve" unicode="&#x16d;" horiz-adv-x="581" 
d="M267 568l-52 18l-51 45l-14 41v43h81v-30l4 -9l21 -19l21 -8h25l22 8l21 19l5 9v30h81v-43l-15 -41l-51 -45l-52 -18h-46zM236 -8l-95 25l-67 87v423h107v-386l23 -31l48 -13h46l62 42l25 33v355h107v-527h-106v32l-70 -40h-80z" />
    <glyph glyph-name="Uring" unicode="&#x16e;" horiz-adv-x="709" 
d="M336 733l-44 16l-37 41l-13 39v37l13 39l37 41l44 16h38l44 -16l36 -41l14 -39v-37l-14 -39l-36 -41l-44 -16h-38zM348 801h14l19 7l12 12l7 20v15l-7 19l-13 13l-18 7h-14l-20 -7l-11 -12l-7 -20v-15l7 -20l12 -12zM311 -8l-130 48l-71 93l-23 75v503h109v-491l11 -38
l41 -53l78 -29h58l77 29l43 53l11 38v491h108v-503l-23 -75l-71 -93l-129 -48h-89z" />
    <glyph glyph-name="uring" unicode="&#x16f;" horiz-adv-x="581" 
d="M270 551l-52 20l-38 44l-15 41v46l15 41l38 44l52 19h42l53 -19l38 -44l14 -41v-46l-14 -41l-38 -44l-53 -20h-42zM281 628h21l15 6l19 21l3 11v26l-3 11l-19 21l-15 5h-21l-15 -5l-19 -21l-4 -11v-27l4 -10l19 -21zM236 -8l-95 25l-67 87v423h107v-386l23 -31l48 -13h46
l62 42l25 33v355h107v-527h-106v32l-70 -40h-80z" />
    <glyph glyph-name="Uhungarumlaut" unicode="&#x170;" horiz-adv-x="709" 
d="M259 736l-66 58l134 150l66 -59zM447 736l-66 58l134 150l66 -59zM311 -8l-130 48l-71 93l-23 75v503h109v-491l11 -38l41 -53l78 -29h58l77 29l43 53l11 38v491h108v-503l-23 -75l-71 -93l-129 -48h-89z" />
    <glyph glyph-name="uhungarumlaut" unicode="&#x171;" horiz-adv-x="581" 
d="M159 559l-67 59l136 151l66 -60zM354 559l-66 59l135 151l66 -60zM236 -8l-95 25l-67 87v423h107v-386l23 -31l48 -13h46l62 42l25 33v355h107v-527h-106v32l-70 -40h-80z" />
    <glyph glyph-name="Uogonek" unicode="&#x172;" horiz-adv-x="709" 
d="M515 711h108v-503l-23 -75l-71 -93l-129 -48h-4l-8 -7l-23 -21l-17 -22l-6 -14l-2 -14l7 -9l17 -6h51v-80h-72l-59 26l-29 45l2 45l15 38l24 25l-115 42l-71 93l-23 75v503h109v-491l11 -38l41 -53l78 -29h58l77 29l43 53l11 38v491z" />
    <glyph glyph-name="uogonek" unicode="&#x173;" horiz-adv-x="581" 
d="M414 -58l-6 -14l-2 -14l7 -9l17 -6h51v-80h-72l-59 26l-29 45l2 45l15 38l39 40l9 7v12l-70 -40h-80l-95 25l-67 87v423h107v-386l23 -31l48 -13h46l62 42l25 33v355h107v-527h-21l-17 -15l-23 -21z" />
    <glyph glyph-name="Wcircumflex" unicode="&#x174;" horiz-adv-x="870" 
d="M311 738l-58 70l153 123h58l153 -123l-58 -70l-124 102zM195 0l-182 711h112l125 -499l145 470h80l145 -470l125 499h112l-182 -711h-98l-142 460l-142 -460h-98z" />
    <glyph glyph-name="wcircumflex" unicode="&#x175;" horiz-adv-x="768" 
d="M263 564l-58 71l151 121h56l151 -121l-57 -71l-122 100zM178 0l-153 527h111l93 -337l112 318h85l112 -317l92 336h112l-153 -527h-95l-111 319l-110 -319h-95z" />
    <glyph glyph-name="Ycircumflex" unicode="&#x176;" horiz-adv-x="566" 
d="M159 738l-58 70l153 123h58l153 -123l-58 -70l-124 102zM229 0v343l-230 368h129l155 -259l155 259h129l-230 -368v-343h-108z" />
    <glyph glyph-name="ycircumflex" unicode="&#x177;" horiz-adv-x="552" 
d="M155 564l-58 71l151 121h56l151 -121l-57 -71l-122 100zM109 -163l110 243l-203 447h121l140 -318l140 318h119l-311 -690h-116z" />
    <glyph glyph-name="Ydieresis" unicode="&#x178;" horiz-adv-x="566" 
d="M114 760v124h121v-124h-121zM330 760v124h122v-124h-122zM229 0v343l-230 368h129l155 -259l155 259h129l-230 -368v-343h-108z" />
    <glyph glyph-name="Zacute" unicode="&#x179;" horiz-adv-x="558" 
d="M199 736l-44 79l204 113l44 -80zM25 0v80l353 524h-334v107h479v-80l-352 -524h361v-107h-507z" />
    <glyph glyph-name="zacute" unicode="&#x17a;" horiz-adv-x="503" 
d="M184 569l-54 75l190 135l54 -75zM46 0v81l258 341h-243v105h390v-81l-255 -340h260v-106h-410z" />
    <glyph glyph-name="Zdotaccent" unicode="&#x17b;" horiz-adv-x="558" 
d="M212 768v137h134v-137h-134zM25 0v80l353 524h-334v107h479v-80l-352 -524h361v-107h-507z" />
    <glyph glyph-name="zdotaccent" unicode="&#x17c;" horiz-adv-x="503" 
d="M182 579v145h140v-145h-140zM46 0v81l258 341h-243v105h390v-81l-255 -340h260v-106h-410z" />
    <glyph glyph-name="Zcaron" unicode="&#x17d;" horiz-adv-x="558" 
d="M250 747l-153 124l58 70l124 -102l124 102l58 -70l-153 -124h-58zM25 0v80l353 524h-334v107h479v-80l-352 -524h361v-107h-507z" />
    <glyph glyph-name="zcaron" unicode="&#x17e;" horiz-adv-x="503" 
d="M224 567l-151 121l58 71l121 -99l121 99l58 -71l-151 -121h-56zM46 0v81l258 341h-243v105h390v-81l-255 -340h260v-106h-410z" />
    <glyph glyph-name="florin" unicode="&#x192;" 
d="M112 -119l-78 28l36 98l60 -21h28l26 16l24 34l59 330h-112v97h128l32 180l43 73l77 46h69l88 -19l-25 -104l-77 17h-25l-29 -19l-19 -32l-25 -142h122v-97h-138l-64 -366l-53 -78l-77 -41h-70z" />
    <glyph glyph-name="AEacute" unicode="&#x1fc;" horiz-adv-x="835" 
d="M501 736l-44 79l204 113l44 -80zM-1 0l346 711h440v-107h-295v-173h188v-108h-188v-216h295v-107h-404v205h-166q-17 -38 -52.5 -112t-44.5 -93h-119zM265 313h116v242z" />
    <glyph glyph-name="aeacute" unicode="&#x1fd;" horiz-adv-x="886" 
d="M375 569l-54 75l190 135l54 -75zM227 -8l-68 21l-49 29l-58 84v61l15 69l75 76l98 25h76l44 -14l14 51l3 3l-33 21l-44 11h-74l-33 -12l-27 -18l-28 -27l-74 77l40 37l45 29l67 20h103l69 -17l52 -35l3 3l100 49h100l102 -50l66 -90l24 -69v-120h-375l10 -24l42 -59
l52 -25h61l60 16l61 37l56 -86l-77 -51l-88 -22h-94l-101 49l-21 28l-27 -30l-93 -47h-74zM461 312h266l-11 32l-41 57l-51 28h-64l-49 -26l-43 -58zM241 98h28l75 25l26 26l-17 56v30l-6 3l-46 13h-49l-54 -15l-32 -33l-7 -26v-20l25 -36l18 -10z" />
    <glyph glyph-name="Oslashacute" unicode="&#x1fe;" horiz-adv-x="704" 
d="M476 848l-204 -112l-44 79l204 113zM627 516l19 -87v-147l-19 -85l-43 -89l-68 -69l-108 -47h-113l-105 46l-64 -100l-68 44l73 115l-11 11l-44 89l-19 85v147l19 87l43 87l72 70l104 46h113l95 -42l61 96l68 -44l-68 -106l21 -20zM179 233l18 -34l247 386l-57 26h-71
l-63 -29l-44 -44l-29 -56l-14 -66v-122zM538 295v122l-14 65l-22 43l-252 -393l2 -2l66 -30h69l65 30l42 42l30 58z" />
    <glyph glyph-name="oslashacute" unicode="&#x1ff;" horiz-adv-x="559" 
d="M402 704l-190 -135l-54 75l190 135zM451 460l36 -52l18 -86v-118l-18 -86l-53 -77l-102 -49h-106l-49 24l-49 -81l-63 40l50 81l-43 62l-19 86v118l19 86l53 77l101 50h106l60 -30l52 84l62 -39zM172 156l3 -4l163 264l-25 13h-69l-47 -25l-25 -35l-12 -59v-92zM399 218
v92l-11 48q-145 -235 -156 -254l14 -7h66l52 26l22 34z" />
    <glyph glyph-name="Scommaaccent" unicode="&#x218;" horiz-adv-x="602" 
d="M247 -8l-111 34l-60 42l-31 39l78 75l27 -34l38 -25l79 -23h79l66 26l18 22l12 24v50l-19 38l-39 21l-194 54l-80 56l-34 54l-14 86l28 88l66 69l94 31h106l113 -29l77 -48l-58 -91l-67 39l-81 21h-74l-49 -16l-32 -33l-11 -40l8 -38l8 -15l45 -32l202 -56l81 -56l32 -79
v-100l-26 -55l-50 -58l-111 -41h-116zM289 -225l-52 24l34 62l-32 13v91h125v-66z" />
    <glyph glyph-name="scommaaccent" unicode="&#x219;" horiz-adv-x="498" 
d="M206 -8l-83 21l-48 39l-32 36l75 72l26 -30l22 -17l58 -16h58l33 10l20 14l13 18v29l-13 21l-22 15l-135 28l-67 36l-44 60v94l34 59l49 37l60 17h88l79 -21l71 -48l-59 -88l-54 37l-48 15h-59l-36 -10l-10 -9l-9 -16v-34l14 -18l21 -11l146 -29l59 -39l41 -66v-90
l-39 -59l-51 -37l-70 -20h-88zM237 -225l-52 24l34 62l-32 13v91h125v-66z" />
    <glyph glyph-name="uni021A" unicode="&#x21a;" horiz-adv-x="515" 
d="M201 0v604h-181v107h475v-107h-185v-604h-109zM246 -225l-52 24l34 62l-32 13v91h125v-66z" />
    <glyph glyph-name="uni021B" unicode="&#x21b;" horiz-adv-x="414" 
d="M241 -8l-74 28l-57 81v307h-90v106h90v184h107v-184h131v-106h-131v-274l18 -24l27 -12h21l81 21l27 -104l-102 -23h-48zM262 -225l-52 24l34 62l-32 13v91h125v-66z" />
    <glyph glyph-name="uni0237" unicode="&#x237;" horiz-adv-x="273" 
d="M9 -162l-65 16l27 103l49 -12h22l28 9l18 29v544h107v-576l-53 -83l-87 -30h-46z" />
    <glyph glyph-name="uni02BC" unicode="&#x2bc;" horiz-adv-x="279" 
d="M207 711v-99l-82 -130l-52 29l44 91l-35 15v94h125z" />
    <glyph glyph-name="circumflex" unicode="&#x2c6;" horiz-adv-x="600" 
d="M89 564l-58 71l151 121h56l151 -121l-57 -71l-122 100z" />
    <glyph glyph-name="caron" unicode="&#x2c7;" horiz-adv-x="600" 
d="M182 567l-151 121l58 71l121 -99l121 99l58 -71l-151 -121h-56z" />
    <glyph glyph-name="breve" unicode="&#x2d8;" horiz-adv-x="600" 
d="M151 568l-52 18l-51 45l-14 41v43h81v-30l4 -9l21 -19l21 -8h25l22 8l21 19l5 9v30h81v-43l-15 -41l-51 -45l-52 -18h-46z" />
    <glyph glyph-name="dotaccent" unicode="&#x2d9;" horiz-adv-x="600" 
d="M30 579v145h140v-145h-140z" />
    <glyph glyph-name="ring" unicode="&#x2da;" horiz-adv-x="600" 
d="M138 551l-52 20l-38 44l-15 41v46l15 41l38 44l52 19h42l53 -19l38 -44l14 -41v-46l-14 -41l-38 -44l-53 -20h-42zM149 628h21l15 6l19 21l3 11v26l-3 11l-19 21l-15 5h-21l-15 -5l-19 -21l-4 -11v-27l4 -10l19 -21z" />
    <glyph glyph-name="ogonek" unicode="&#x2db;" horiz-adv-x="600" 
d="M131 -181l-59 26l-29 45l2 45l15 38l39 40l40 30l26 18l41 -50l-30 -26l-23 -21l-17 -22l-6 -14l-2 -14l7 -9l17 -6h51v-80h-72z" />
    <glyph glyph-name="tilde" unicode="&#x2dc;" horiz-adv-x="600" 
d="M284 578l-45 16l-50 31h-25l-22 -10l-14 -13l-7 -21l-89 34l19 44l41 38l56 22h51l44 -16l34 -22l22 -7h14l12 4l10 10l12 31l86 -23l-11 -42l-16 -30l-33 -26l-43 -18z" />
    <glyph glyph-name="hungarumlaut" unicode="&#x2dd;" horiz-adv-x="600" 
d="M95 559l-67 59l136 151l66 -60zM290 559l-66 59l135 151l66 -60z" />
    <glyph glyph-name="gravecomb" unicode="&#x300;" horiz-adv-x="0" 
d="M-83 559l-190 135l54 75l190 -135z" />
    <glyph glyph-name="acutecomb" unicode="&#x301;" horiz-adv-x="0" 
d="M-219 569l-54 75l190 135l54 -75z" />
    <glyph glyph-name="uni0302" unicode="&#x302;" horiz-adv-x="0" 
d="M-331 564l-58 71l151 121h56l151 -121l-57 -71l-122 100z" />
    <glyph glyph-name="tildecomb" unicode="&#x303;" horiz-adv-x="0" 
d="M-182 578l-45 16l-50 31h-25l-22 -10l-14 -13l-7 -21l-89 34l19 44l41 38l56 22h51l44 -16l34 -22l22 -7h14l12 4l10 10l12 31l86 -23l-11 -42l-16 -30l-33 -26l-43 -18z" />
    <glyph glyph-name="uni0304" unicode="&#x304;" horiz-adv-x="0" 
d="M-378 594v86h328v-86h-328z" />
    <glyph glyph-name="uni0306" unicode="&#x306;" horiz-adv-x="0" 
d="M-198 568l-52 18l-51 45l-14 41v43h81v-30l4 -9l21 -19l21 -8h25l22 8l21 19l5 9v30h81v-43l-15 -41l-51 -45l-52 -18h-46z" />
    <glyph glyph-name="uni0307" unicode="&#x307;" horiz-adv-x="0" 
d="M-170 579v145h140v-145h-140z" />
    <glyph glyph-name="uni0308" unicode="&#x308;" horiz-adv-x="0" 
d="M-380 588v131h126v-131h-126zM-161 588v131h126v-131h-126z" />
    <glyph glyph-name="uni030A" unicode="&#x30a;" horiz-adv-x="0" 
d="M-181 551l-52 20l-38 44l-15 41v46l15 41l38 44l52 19h42l53 -19l38 -44l14 -41v-46l-14 -41l-38 -44l-53 -20h-42zM-170 628h21l15 6l19 21l3 11v26l-3 11l-19 21l-15 5h-21l-15 -5l-19 -21l-4 -11v-27l4 -10l19 -21z" />
    <glyph glyph-name="uni030B" unicode="&#x30b;" horiz-adv-x="0" 
d="M-359 559l-67 59l136 151l66 -60zM-164 559l-66 59l135 151l66 -60z" />
    <glyph glyph-name="uni030C" unicode="&#x30c;" horiz-adv-x="0" 
d="M-238 567l-151 121l58 71l121 -99l121 99l58 -71l-151 -121h-56z" />
    <glyph glyph-name="uni0312" unicode="&#x312;" horiz-adv-x="0" 
d="M-201 581v99l82 130l52 -29l-44 -91l35 -15v-94h-125z" />
    <glyph glyph-name="uni0326" unicode="&#x326;" horiz-adv-x="0" 
d="M-146 -225l-52 24l34 62l-32 13v91h125v-66z" />
    <glyph glyph-name="uni0327" unicode="&#x327;" horiz-adv-x="0" 
d="M-173 -179l-45 21l30 64l29 -10h25l8 6l8 22l-75 17l34 93l62 -17l-11 -42l50 -9l26 -60l-30 -58l-66 -27h-45z" />
    <glyph glyph-name="uni0328" unicode="&#x328;" horiz-adv-x="0" 
d="M-118 -181l-59 26l-29 45l2 45l15 38l39 40l40 30l26 18l41 -50l-30 -26l-23 -21l-17 -22l-6 -14l-2 -14l7 -9l17 -6h51v-80h-72z" />
    <glyph glyph-name="uni0394" unicode="&#x394;" horiz-adv-x="682" 
d="M19 0l273 711h98l273 -711h-644zM175 107h332l-166 441z" />
    <glyph glyph-name="uni03A9" unicode="&#x3a9;" horiz-adv-x="816" 
d="M70 0v107h146q-36 33 -42 40l-48 73l-31 96v128l27 86l55 83l72 64l103 42h112l105 -42l72 -64l55 -83l27 -87v-127l-31 -96l-48 -74l-42 -39h145v-107h-274v118l80 87l42 64l19 61v101q-14 43 -17 53l-36 56l-46 43l-70 29h-73l-70 -29l-47 -44l-34 -55l-18 -52v-101
l20 -61l42 -65l79 -87v-118h-274z" />
    <glyph glyph-name="uni03BC" unicode="&#x3bc;" horiz-adv-x="585" 
d="M89 -162v689h107v-386l22 -31l49 -13h46l62 42l24 33v355h107v-527h-106v32l-5 -4l-65 -36h-79l-55 16v-170h-107z" />
    <glyph glyph-name="pi" unicode="&#x3c0;" horiz-adv-x="697" 
d="M524 -8l-74 28l-57 81v307h-130v-408h-107v408h-94v106h542v-106h-104v-274l18 -24l26 -12h33l43 11l20 -103l-58 -14h-58z" />
    <glyph glyph-name="uni0E3F" unicode="&#xe3f;" 
d="M567 303l23 -98l-24 -98l-55 -68l-84 -39h-59v-111h-109v111h-168v711h168v115h109v-115h22l96 -26l69 -76l22 -98l-20 -79l-36 -47l-20 -10l20 -11zM199 604v-173h60v173h-60zM382 604h-14v-173h35l42 28l9 12l12 43l-11 43l-29 33zM199 107h60v216h-60v-216zM464 153
l13 52l-13 59l-20 32l-44 27h-32v-216h32l40 19z" />
    <glyph glyph-name="Wgrave" unicode="&#x1e80;" horiz-adv-x="870" 
d="M515 737l-204 112l44 80l204 -113zM195 0l-182 711h112l125 -499l145 470h80l145 -470l125 499h112l-182 -711h-98l-142 460l-142 -460h-98z" />
    <glyph glyph-name="wgrave" unicode="&#x1e81;" horiz-adv-x="768" 
d="M452 559l-190 135l54 75l190 -135zM178 0l-153 527h111l93 -337l112 318h85l112 -317l92 336h112l-153 -527h-95l-111 319l-110 -319h-95z" />
    <glyph glyph-name="Wacute" unicode="&#x1e82;" horiz-adv-x="870" 
d="M355 736l-44 79l204 113l44 -80zM195 0l-182 711h112l125 -499l145 470h80l145 -470l125 499h112l-182 -711h-98l-142 460l-142 -460h-98z" />
    <glyph glyph-name="wacute" unicode="&#x1e83;" horiz-adv-x="768" 
d="M316 569l-54 75l190 135l54 -75zM178 0l-153 527h111l93 -337l112 318h85l112 -317l92 336h112l-153 -527h-95l-111 319l-110 -319h-95z" />
    <glyph glyph-name="Wdieresis" unicode="&#x1e84;" horiz-adv-x="870" 
d="M266 760v124h121v-124h-121zM482 760v124h122v-124h-122zM195 0l-182 711h112l125 -499l145 470h80l145 -470l125 499h112l-182 -711h-98l-142 460l-142 -460h-98z" />
    <glyph glyph-name="wdieresis" unicode="&#x1e85;" horiz-adv-x="768" 
d="M211 588v131h126v-131h-126zM430 588v131h126v-131h-126zM178 0l-153 527h111l93 -337l112 318h85l112 -317l92 336h112l-153 -527h-95l-111 319l-110 -319h-95z" />
    <glyph glyph-name="Ygrave" unicode="&#x1ef2;" horiz-adv-x="566" 
d="M363 737l-204 112l44 80l204 -113zM229 0v343l-230 368h129l155 -259l155 259h129l-230 -368v-343h-108z" />
    <glyph glyph-name="ygrave" unicode="&#x1ef3;" horiz-adv-x="552" 
d="M344 559l-190 135l54 75l190 -135zM109 -163l110 243l-203 447h121l140 -318l140 318h119l-311 -690h-116z" />
    <glyph glyph-name="uni2002" unicode="&#x2002;" horiz-adv-x="500" 
 />
    <glyph glyph-name="uni2003" unicode="&#x2003;" horiz-adv-x="1000" 
 />
    <glyph glyph-name="uni2004" unicode="&#x2004;" horiz-adv-x="0" 
 />
    <glyph glyph-name="uni2005" unicode="&#x2005;" horiz-adv-x="250" 
 />
    <glyph glyph-name="uni2009" unicode="&#x2009;" horiz-adv-x="135" 
 />
    <glyph glyph-name="uni200A" unicode="&#x200a;" horiz-adv-x="75" 
 />
    <glyph glyph-name="endash" unicode="&#x2013;" 
d="M70 264v89h500v-89h-500z" />
    <glyph glyph-name="emdash" unicode="&#x2014;" horiz-adv-x="1280" 
d="M70 264v89h1140v-89h-1140z" />
    <glyph glyph-name="quoteleft" unicode="&#x2018;" horiz-adv-x="279" 
d="M72 439v99l82 130l52 -29l-44 -91l35 -15v-94h-125z" />
    <glyph glyph-name="quoteright" unicode="&#x2019;" horiz-adv-x="279" 
d="M207 712v-99l-82 -130l-52 29l44 91l-35 15v94h125z" />
    <glyph glyph-name="quotesinglbase" unicode="&#x201a;" horiz-adv-x="279" 
d="M127 -134l-52 29l56 105l-49 19v120h135v-125z" />
    <glyph glyph-name="quotedblleft" unicode="&#x201c;" horiz-adv-x="468" 
d="M57 454v125l90 148l52 -29l-56 -105l49 -19v-120h-135zM246 454v125l90 148l52 -29l-56 -105l49 -19v-120h-135z" />
    <glyph glyph-name="quotedblright" unicode="&#x201d;" horiz-adv-x="468" 
d="M132 438l-52 29l56 105l-49 19v120h135v-125zM321 438l-52 29l56 105l-49 19v120h135v-125z" />
    <glyph glyph-name="quotedblbase" unicode="&#x201e;" horiz-adv-x="468" 
d="M127 -134l-52 29l56 105l-49 19v120h135v-125zM316 -134l-52 29l56 105l-49 19v120h135v-125z" />
    <glyph glyph-name="dagger" unicode="&#x2020;" horiz-adv-x="537" 
d="M214 -163v583h-151v107h151v150h108v-150h151v-107h-151v-583h-108z" />
    <glyph glyph-name="daggerdbl" unicode="&#x2021;" horiz-adv-x="537" 
d="M214 -163v177h-151v108h151v298h-151v107h151v150h108v-150h151v-107h-151v-298h151v-108h-151v-177h-108z" />
    <glyph glyph-name="bullet" unicode="&#x2022;" horiz-adv-x="358" 
d="M164 244l-20 5l-24 14l-19 19l-14 23l-5 21v29l5 20l14 24l19 19l24 14l20 5h29l21 -5l23 -14l19 -19l14 -24l5 -20v-29l-5 -21l-14 -23l-19 -19l-23 -14l-21 -5h-29z" />
    <glyph glyph-name="ellipsis" unicode="&#x2026;" horiz-adv-x="917" 
d="M80 0v139h136v-139h-136zM391 0v139h135v-139h-135zM701 0v139h135v-139h-135z" />
    <glyph glyph-name="perthousand" unicode="&#x2030;" horiz-adv-x="1321" 
d="M221 -18l501 700l-65 47l-501 -700zM199 300l-52 23l-38 39l-20 48l-9 42v75l9 41l20 47l38 39l52 23h57l51 -23l37 -39l20 -47l9 -41v-75l-9 -42l-20 -48l-37 -39l-51 -23h-57zM259 389l17 16l8 24l8 30v60l-7 29l-8 22l-20 19l-19 10h-21l-20 -10l-21 -20l-8 -21
l-7 -29v-61l8 -29l8 -24l18 -15l23 -11h20zM628 32l-52 23l-38 39l-20 48l-9 42v75l9 41l20 47l38 39l52 23h57l51 -23l37 -39l20 -47l9 -41v-75l-9 -42l-20 -48l-37 -39l-51 -23h-57zM959 32l-52 23l-38 39l-20 48l-9 42v75l9 41l20 47l38 39l52 23h57l51 -23l37 -39
l20 -47l9 -41v-75l-9 -42l-20 -48l-37 -39l-51 -23h-57zM688 121l17 16l8 24l8 30v60l-7 29l-8 22l-20 19l-19 10h-21l-20 -10l-21 -20l-8 -21l-7 -29v-61l8 -29l8 -24l18 -15l23 -11h20zM1019 121l17 16l8 24l8 30v60l-7 29l-8 22l-20 19l-19 10h-21l-20 -10l-21 -20
l-8 -21l-7 -29v-61l8 -29l8 -24l18 -15l23 -11h20z" />
    <glyph glyph-name="guilsinglleft" unicode="&#x2039;" horiz-adv-x="325" 
d="M186 81l-150 203v56l150 204l78 -63l-126 -169l126 -169z" />
    <glyph glyph-name="guilsinglright" unicode="&#x203a;" horiz-adv-x="325" 
d="M135 81l-78 62l125 169l-125 169l78 63l149 -204v-56z" />
    <glyph glyph-name="fraction" unicode="&#x2044;" horiz-adv-x="166" 
d="M-135 -18l-65 47l501 700l65 -47z" />
    <glyph glyph-name="uni2070" unicode="&#x2070;" horiz-adv-x="385" 
d="M163 451l-52 23l-38 39l-20 48l-9 42v75l9 41l20 47l38 39l52 23h57l51 -23l37 -39l20 -47l9 -41v-75l-9 -42l-20 -48l-37 -39l-51 -23h-57zM182 530h20l21 10l17 16l8 24l8 30v60l-7 29l-8 22l-20 19l-19 10h-21l-20 -10l-21 -20l-8 -21l-7 -29v-61l8 -29l8 -24l18 -15z
" />
    <glyph glyph-name="uni2074" unicode="&#x2074;" horiz-adv-x="324" 
d="M165 456v86h-151v56l164 225h69v-204h50v-77h-50v-86h-82zM116 619h49v71z" />
    <glyph glyph-name="uni2075" unicode="&#x2075;" horiz-adv-x="341" 
d="M125 451l-51 20l-43 41l57 58l30 -30l24 -10h25l27 13l12 9l7 20v16l-5 15l-14 14l-21 7h-36l-36 -10l-51 35l25 174h195v-78h-124l-6 -40h49l50 -21l38 -35l17 -46v-44l-16 -46l-37 -39l-55 -23h-61z" />
    <glyph glyph-name="uni2076" unicode="&#x2076;" horiz-adv-x="355" 
d="M145 451l-61 29l-30 43l-10 36v146l13 47l39 50l58 26h56l57 -26l38 -36l-59 -55l-31 27l-23 12h-21l-21 -11l-20 -24l-4 -17l29 11h53l59 -27l30 -42l11 -37v-47l-10 -33l-32 -44l-57 -28h-64zM162 530h29l25 14l10 28v23l-3 11l-9 14l-22 11h-21l-27 -11l-17 -13l-2 -4
v-26l6 -25l11 -11z" />
    <glyph glyph-name="uni2077" unicode="&#x2077;" horiz-adv-x="263" 
d="M20 456l137 289h-143v78h242v-52l-146 -315h-90z" />
    <glyph glyph-name="uni2078" unicode="&#x2078;" horiz-adv-x="354" 
d="M147 451l-48 14l-45 42l-10 37v54l14 41l17 15l-7 6l-17 42v40l14 42l39 30l50 14h43l49 -14l39 -30l14 -42v-40l-17 -42l-7 -6l19 -17l13 -39v-54l-11 -37l-44 -42l-49 -14h-56zM157 694h40l8 2l10 9l2 11v12l-3 10l-6 6l-22 6h-21l-24 -7l-6 -6l-2 -8v-15l2 -9l9 -8z
M162 531h27l23 6l9 10l4 12v27l-4 12l-9 9l-17 8h-38l-16 -7l-12 -10l-4 -12v-28l4 -12l8 -8z" />
    <glyph glyph-name="uni2079" unicode="&#x2079;" horiz-adv-x="356" 
d="M142 451l-58 27l-37 35l62 59l28 -31l23 -11h20l23 10l16 20l6 22l-26 -11h-57l-58 28l-30 44l-10 32v48l10 33l31 45l57 27h67l58 -27l29 -43l13 -41v-146l-14 -45l-38 -49l-57 -26h-58zM162 651h20l29 9l13 13l2 6v24l-5 21l-11 15l-19 11h-29l-22 -11l-7 -7l-7 -25
v-19l4 -13l10 -15z" />
    <glyph glyph-name="uni2080" unicode="&#x2080;" horiz-adv-x="385" 
d="M163 -93l-52 23l-38 39l-20 48l-9 42v75l9 41l20 47l38 39l52 23h57l51 -23l37 -39l20 -47l9 -41v-75l-9 -42l-20 -48l-37 -39l-51 -23h-57zM182 -14h20l21 10l17 16l8 24l8 30v60l-7 29l-8 22l-20 19l-19 10h-21l-20 -10l-21 -20l-8 -21l-7 -29v-61l8 -29l8 -24l18 -15z
" />
    <glyph glyph-name="uni2081" unicode="&#x2081;" horiz-adv-x="241" 
d="M112 -88v262l-75 -34l-35 68l150 71h43v-367h-83z" />
    <glyph glyph-name="uni2082" unicode="&#x2082;" horiz-adv-x="335" 
d="M51 -88v65l158 155l11 24v15l-15 23l-21 10h-28l-24 -10l-32 -33l-59 57l39 41l60 25h62l62 -29l39 -59v-57l-26 -50l-96 -96h127v-81h-257z" />
    <glyph glyph-name="uni2083" unicode="&#x2083;" horiz-adv-x="337" 
d="M117 -93l-54 21l-42 42l60 59l31 -33l22 -10h28l26 11l15 15l5 16v14l-3 11l-17 16l-35 13h-47v58l48 61h-101v78h214v-56l-58 -78l25 -9l38 -37l18 -43v-41l-18 -47l-33 -34l-61 -27h-61z" />
    <glyph glyph-name="uni2084" unicode="&#x2084;" horiz-adv-x="324" 
d="M165 -88v86h-151v56l164 225h69v-204h50v-77h-50v-86h-82zM116 75h49v71z" />
    <glyph glyph-name="uni2085" unicode="&#x2085;" horiz-adv-x="341" 
d="M125 -93l-51 20l-43 41l57 58l30 -30l24 -10h25l27 13l12 9l7 20v16l-5 15l-14 14l-21 7h-36l-36 -10l-51 35l25 174h195v-78h-124l-6 -40h49l50 -21l38 -35l17 -46v-44l-16 -46l-37 -39l-55 -23h-61z" />
    <glyph glyph-name="uni2086" unicode="&#x2086;" horiz-adv-x="355" 
d="M145 -93l-61 29l-30 43l-10 36v146l13 47l39 50l58 26h56l57 -26l38 -36l-59 -55l-31 27l-23 12h-21l-21 -11l-20 -24l-4 -17l29 11h53l59 -27l30 -42l11 -37v-47l-10 -33l-32 -44l-57 -28h-64zM162 -14h29l25 14l10 28v23l-3 11l-9 14l-22 11h-21l-27 -11l-17 -13l-2 -4
v-26l6 -25l11 -11z" />
    <glyph glyph-name="uni2087" unicode="&#x2087;" horiz-adv-x="263" 
d="M20 -88l137 289h-143v78h242v-52l-146 -315h-90z" />
    <glyph glyph-name="uni2088" unicode="&#x2088;" horiz-adv-x="354" 
d="M147 -93l-48 14l-45 42l-10 37v54l14 41l17 15l-7 6l-17 42v40l14 42l39 30l50 14h43l49 -14l39 -30l14 -42v-40l-17 -42l-7 -6l19 -17l13 -39v-54l-11 -37l-44 -42l-49 -14h-56zM157 150h40l8 2l10 9l2 11v12l-3 10l-6 6l-22 6h-21l-24 -7l-6 -6l-2 -8v-15l2 -9l9 -8z
M162 -13h27l23 6l9 10l4 12v27l-4 12l-9 9l-17 8h-38l-16 -7l-12 -10l-4 -12v-28l4 -12l8 -8z" />
    <glyph glyph-name="uni2089" unicode="&#x2089;" horiz-adv-x="356" 
d="M142 -93l-58 27l-37 35l62 59l28 -31l23 -11h20l23 10l16 20l6 22l-26 -11h-57l-58 28l-30 44l-10 32v48l10 33l31 45l57 27h67l58 -27l29 -43l13 -41v-146l-14 -45l-38 -49l-57 -26h-58zM162 107h20l29 9l13 13l2 6v24l-5 21l-11 15l-19 11h-29l-22 -11l-7 -7l-7 -25
v-19l4 -13l10 -15z" />
    <glyph glyph-name="uni20A9" unicode="&#x20a9;" 
d="M619 412h-47l-7 -47h54v-69h-64l-42 -296h-104l-46 296h-86l-46 -296h-104l-42 296h-60v69h50l-7 47h-43v69h33l-33 230h98l29 -230h77l28 230h126l29 -230h86l34 230h83l-33 -230h37v-69zM320 571l-14 -90h28zM161 412l6 -47h48l5 47h-59zM288 365h64l-7 47h-50z
M481 365l7 47h-67l6 -47h54zM191 172l15 124h-31zM452 171l19 125h-35z" />
    <glyph glyph-name="Euro" unicode="&#x20ac;" 
d="M343 -8l-88 44l-69 72l-36 87l-9 49h-76v94h68v36h-68v94h76l9 48l36 87l71 73l86 43h102l89 -43l67 -81l-84 -66l-51 60l-46 22h-52l-51 -26l-38 -41l-25 -61l-3 -15h197v-94h-207v-36h207v-94h-197l3 -16l25 -62l38 -41l48 -25h58l44 14l58 44l64 -83l-70 -54l-79 -29
h-97z" />
    <glyph glyph-name="uni20AE" unicode="&#x20ae;" horiz-adv-x="515" 
d="M495 604h-185v-90l119 61l44 -84l-163 -84v-39l119 61l44 -84l-163 -84v-261h-109v204l-113 -58l-45 84l158 81v39l-113 -58l-45 84l158 81v147h-181v107h475v-107z" />
    <glyph glyph-name="uni20B4" unicode="&#x20b4;" horiz-adv-x="602" 
d="M529 461h40v-69h-554v69h386l11 8l8 15l8 38l-11 40l-32 33l-49 16h-74l-81 -21l-67 -39l-58 91l77 48l113 29h106l94 -31l66 -69l28 -88zM15 276v69h554v-69h-360l-30 -16l-19 -38v-50l12 -24l18 -22l66 -26h79l79 23l38 25l27 34l78 -75l-31 -39l-60 -42l-111 -34h-116
l-111 41l-50 58l-26 55v100l12 30h-49z" />
    <glyph glyph-name="uni20B8" unicode="&#x20b8;" horiz-adv-x="515" 
d="M20 711h475v-107h-475v107zM20 444v107h475v-107h-185v-444h-109v444h-181z" />
    <glyph glyph-name="uni20B9" unicode="&#x20b9;" 
d="M581 711v-94h-105l6 -6l19 -66h80v-95h-83l-12 -44l-51 -75l-48 -24q25 -56 74.5 -167t62.5 -140h-120l-124 284h-225v104h257l51 27l23 35h-331v95h334l-2 8l-39 38l-47 16h-246v104h526z" />
    <glyph glyph-name="uni20BA" unicode="&#x20ba;" 
d="M488 262l99 -47l-50 -100l-69 -70l-115 -45h-191v180l-62 -34l-45 84l107 58v38l-62 -34l-45 84l107 58v277h108v-219l171 93l44 -84l-215 -117v-38l171 93l44 -84l-215 -117v-131h63l73 31l41 42z" />
    <glyph glyph-name="uni20BD" unicode="&#x20bd;" 
d="M577 611l30 -105l-27 -100l-51 -75l-95 -47h-198v-56h263v-94h-263v-134h-108v134h-68v94h68v56h-68v104h68v323h280l93 -24zM479 450l15 53l-14 50l-36 35l-52 16h-156v-216h170l49 26z" />
    <glyph glyph-name="uni2113" unicode="&#x2113;" horiz-adv-x="509" 
d="M441 695l25 -58v-110l-16 -57l-52 -75l-147 -109v-152l18 -24l27 -12h21l102 26l27 -104l-123 -28h-48l-74 28l-57 81v106l-49 -36l-62 82l111 81v316l58 86l87 26h41l60 -21zM361 542v75l-11 20l-32 19h-21l-28 -10l-18 -26v-208l68 50l30 41z" />
    <glyph glyph-name="uni2116" unicode="&#x2116;" horiz-adv-x="1147" 
d="M115 0v711h89l357 -521v521h108v-711h-106l-340 498v-498h-108zM875 238l-63 27l-41 43l-26 53l-11 48v85l11 49l27 55l40 40l62 27h69l61 -27l40 -40l27 -55l11 -49v-85l-11 -48l-26 -53l-41 -43l-62 -27h-67zM895 336h27l23 10l19 20l11 23l8 30v65l-8 28l-11 25
l-19 19l-23 11h-27l-23 -10l-20 -20l-11 -23l-8 -30v-65l8 -28l11 -25l19 -20zM759 90v81h298v-81h-298z" />
    <glyph glyph-name="trademark" unicode="&#x2122;" horiz-adv-x="842" 
d="M126 274v347h-98v90h287v-90h-98v-347h-91zM366 274v437h88l107 -280l107 280h87v-437h-88v203l-74 -192h-64l-74 192v-203h-89z" />
    <glyph glyph-name="uni2126" unicode="&#x2126;" horiz-adv-x="816" 
d="M70 0v107h146q-36 33 -42 40l-48 73l-31 96v128l27 86l55 83l72 64l103 42h112l105 -42l72 -64l55 -83l27 -87v-127l-31 -96l-48 -74l-42 -39h145v-107h-274v118l80 87l42 64l19 61v101q-14 43 -17 53l-36 56l-46 43l-70 29h-73l-70 -29l-47 -44l-34 -55l-18 -52v-101
l20 -61l42 -65l79 -87v-118h-274z" />
    <glyph glyph-name="estimated" unicode="&#x212e;" horiz-adv-x="585" 
d="M248 -8l-100 48l-68 92l-21 71v119l21 73l68 92l100 48h89l101 -48l67 -72l23 -67v-85h-371v-115l13 -44l33 -65l61 -30h60l88 23l63 52l13 -16l-65 -53l-92 -23h-83zM157 293h263v78l-3 28l-33 90l-61 32h-62l-60 -31l-32 -83l-12 -37v-77z" />
    <glyph glyph-name="arrowleft" unicode="&#x2190;" horiz-adv-x="850" 
d="M269 98l-193 188v49l193 187l59 -61l-108 -106h566v-89h-567l109 -106z" />
    <glyph glyph-name="arrowup" unicode="&#x2191;" horiz-adv-x="548" 
d="M226 1v566l-107 -108l-61 58l188 194h49l187 -194l-61 -58l-106 109v-567h-89z" />
    <glyph glyph-name="arrowright" unicode="&#x2192;" horiz-adv-x="850" 
d="M581 98l-59 62l109 106h-567v89h566l-108 106l59 61l193 -187v-49z" />
    <glyph glyph-name="arrowdown" unicode="&#x2193;" horiz-adv-x="548" 
d="M226 711h89v-567l106 109l61 -58l-187 -194h-49l-188 194l61 58l107 -108v566z" />
    <glyph glyph-name="uni2196" unicode="&#x2196;" horiz-adv-x="850" 
d="M633 -18l-401 399l2 -150l-85 -3l-4 269l35 35l269 -4l-2 -84l-152 1l401 -400z" />
    <glyph glyph-name="uni2197" unicode="&#x2197;" horiz-adv-x="850" 
d="M216 -18l-63 63l401 400l-152 -1l-2 84l269 4l35 -35l-4 -269l-85 3l2 150z" />
    <glyph glyph-name="uni2198" unicode="&#x2198;" horiz-adv-x="833" 
d="M216 545l401 -399l-2 150l85 3l4 -269l-35 -35l-269 4l2 84l152 -1l-401 400z" />
    <glyph glyph-name="uni2199" unicode="&#x2199;" horiz-adv-x="833" 
d="M633 545l63 -63l-401 -400l152 1l2 -84l-269 -4l-35 35l4 269l85 -3l-2 -150z" />
    <glyph glyph-name="partialdiff" unicode="&#x2202;" horiz-adv-x="571" 
d="M226 -8l-97 50l-49 70l-27 66v109l27 66l49 70l97 52h115l3 -2l-41 83l-90 69l-98 27l28 104l117 -31l127 -97l101 -203l28 -133v-114l-26 -66l-49 -70l-99 -50h-116zM252 100h65l51 25l23 35l17 39v77l-18 46l-28 29l-43 16h-66l-50 -27l-24 -33l-18 -41v-66l19 -42
l22 -32z" />
    <glyph glyph-name="uni2206" unicode="&#x2206;" horiz-adv-x="682" 
d="M19 0l273 711h98l273 -711h-644zM175 107h332l-166 441z" />
    <glyph glyph-name="product" unicode="&#x220f;" horiz-adv-x="842" 
d="M369 -16l-110 38l-96 67l-74 101l-38 112v107l38 112l74 101l96 67l110 38h105l110 -38l96 -67l74 -101l38 -112v-107l-38 -112l-74 -101l-96 -67l-110 -38h-105zM381 70h80l83 28l78 55l56 78l28 83v83l-28 83l-56 78l-78 55l-83 28h-80l-82 -28l-77 -55l-58 -78
l-28 -83v-83l28 -83l58 -78l77 -55zM302 146v419h178l55 -14l46 -46l17 -64l-15 -60l-30 -44l-58 -31h-103v-160h-90zM392 396h80l19 12l6 9l7 23l-7 18l-9 11l-20 7h-76v-80z" />
    <glyph glyph-name="summation" unicode="&#x2211;" horiz-adv-x="583" 
d="M35 -79v81l219 314q-21 30 -219 314v81h506v-107h-358l203 -288l-202 -287h357v-108h-506z" />
    <glyph glyph-name="minus" unicode="&#x2212;" horiz-adv-x="580" 
d="M66 292v95h448v-95h-448z" />
    <glyph glyph-name="radical" unicode="&#x221a;" horiz-adv-x="732" 
d="M217 -20l-191 553h114l121 -362l216 683h230v-107h-151l-245 -767h-94z" />
    <glyph glyph-name="infinity" unicode="&#x221e;" horiz-adv-x="778" 
d="M198 155l-34 7l-38 15l-40 31l-29 34l-20 39l-7 39v40l7 39l20 39l29 34l40 32l38 14l34 7h31l34 -7l38 -14l40 -32l48 -55l48 55l40 32l38 14l34 7h31l35 -7l37 -14l40 -32l29 -34l20 -39l7 -39v-40l-7 -39l-20 -39l-29 -34l-40 -31l-37 -15l-35 -7h-31l-34 7l-38 15
l-40 31l-48 55l-48 -55l-40 -31l-38 -15l-34 -7h-31zM208 258h11l16 3l16 6l20 16l50 57l-52 58l-18 16l-16 5l-16 3h-11l-16 -3l-17 -5l-18 -16l-14 -18l-5 -12l-4 -17v-22l4 -17l5 -14l14 -16l19 -15l16 -6zM559 258h11l16 3l16 6l19 15l14 18l6 12l3 17v22l-3 17l-6 14
l-14 16l-19 16l-17 6l-15 2h-11l-15 -3l-18 -5l-17 -15l-52 -59l49 -57l21 -16l18 -7z" />
    <glyph glyph-name="integral" unicode="&#x222b;" horiz-adv-x="596" 
d="M90 -119l-78 28l36 100l61 -21h28l26 16l25 34l102 603l44 74l78 47h70l89 -19l-25 -106l-78 17h-25l-30 -19l-19 -33q-19 -112 -53.5 -321.5t-46.5 -278.5l-54 -80l-79 -41h-71z" />
    <glyph glyph-name="approxequal" unicode="&#x2248;" horiz-adv-x="660" 
d="M109 365l-46 88l70 37l67 17h45l67 -11l62 -21l39 -10h39l40 11l59 31l49 -87l-70 -38l-69 -16h-55l-55 12l-65 22l-48 8h-23l-49 -13zM109 192l-46 88l70 37l67 17h45l67 -11l62 -21l39 -10h39l40 10l59 32l49 -87l-70 -38l-69 -16h-55l-55 12l-65 22l-48 7h-23l-49 -12
z" />
    <glyph glyph-name="notequal" unicode="&#x2260;" horiz-adv-x="580" 
d="M514 372h-157l-46 -66h203v-95h-269l-75 -108l-64 44l44 64h-84v95h150l46 66h-196v95h262l75 108l64 -44l-44 -64h91v-95z" />
    <glyph glyph-name="lessequal" unicode="&#x2264;" horiz-adv-x="520" 
d="M395 131l-351 208v81l351 208l46 -78l-286 -171l286 -169zM42 0v95h413v-95h-413z" />
    <glyph glyph-name="greaterequal" unicode="&#x2265;" horiz-adv-x="520" 
d="M126 131l-45 79l286 170l-286 170l45 78l352 -208v-81zM67 0v95h412v-95h-412z" />
    <glyph glyph-name="uni2460" unicode="&#x2460;" horiz-adv-x="842" 
d="M367 -16l-107 37l-98 67l-75 103l-37 109v111l37 109l75 103l98 67l107 37h108l107 -37l98 -67l75 -103l37 -109v-111l-37 -109l-75 -103l-98 -67l-107 -37h-108zM381 62h80l87 30l78 54l58 79l30 89v83l-30 89l-58 79l-78 54l-87 30h-80l-87 -30l-78 -54l-58 -79
l-30 -89v-83l30 -89l58 -79l78 -54zM398 187v262l-75 -34l-35 68l150 71h43v-367h-83z" />
    <glyph glyph-name="uni2461" unicode="&#x2461;" horiz-adv-x="842" 
d="M367 -16l-107 37l-98 67l-75 103l-37 109v111l37 109l75 103l98 67l107 37h108l107 -37l98 -67l75 -103l37 -109v-111l-37 -109l-75 -103l-98 -67l-107 -37h-108zM381 62h80l87 30l78 54l58 79l30 89v83l-30 89l-58 79l-78 54l-87 30h-80l-87 -30l-78 -54l-58 -79
l-30 -89v-83l30 -89l58 -79l78 -54zM292 185v65l158 155l11 24v15l-15 23l-21 10h-28l-24 -10l-32 -33l-59 57l39 41l60 25h62l62 -29l39 -59v-57l-26 -50l-96 -96h127v-81h-257z" />
    <glyph glyph-name="uni2462" unicode="&#x2462;" horiz-adv-x="842" 
d="M367 -16l-107 37l-98 67l-75 103l-37 109v111l37 109l75 103l98 67l107 37h108l107 -37l98 -67l75 -103l37 -109v-111l-37 -109l-75 -103l-98 -67l-107 -37h-108zM381 62h80l87 30l78 54l58 79l30 89v83l-30 89l-58 79l-78 54l-87 30h-80l-87 -30l-78 -54l-58 -79
l-30 -89v-83l30 -89l58 -79l78 -54zM380 174l-54 21l-42 42l60 59l31 -33l22 -10h28l26 11l15 15l5 16v14l-3 11l-17 16l-35 13h-47v58l48 61h-101v78h214v-56l-58 -78l25 -9l38 -37l18 -43v-41l-18 -47l-33 -34l-61 -27h-61z" />
    <glyph glyph-name="uni2463" unicode="&#x2463;" horiz-adv-x="842" 
d="M367 -16l-107 37l-98 67l-75 103l-37 109v111l37 109l75 103l98 67l107 37h108l107 -37l98 -67l75 -103l37 -109v-111l-37 -109l-75 -103l-98 -67l-107 -37h-108zM381 62h80l87 30l78 54l58 79l30 89v83l-30 89l-58 79l-78 54l-87 30h-80l-87 -30l-78 -54l-58 -79
l-30 -89v-83l30 -89l58 -79l78 -54zM404 187v86h-151v56l164 225h69v-204h50v-77h-50v-86h-82zM355 350h49v71z" />
    <glyph glyph-name="uni2464" unicode="&#x2464;" horiz-adv-x="842" 
d="M367 -16l-107 37l-98 67l-75 103l-37 109v111l37 109l75 103l98 67l107 37h108l107 -37l98 -67l75 -103l37 -109v-111l-37 -109l-75 -103l-98 -67l-107 -37h-108zM381 62h80l87 30l78 54l58 79l30 89v83l-30 89l-58 79l-78 54l-87 30h-80l-87 -30l-78 -54l-58 -79
l-30 -89v-83l30 -89l58 -79l78 -54zM376 184l-51 20l-43 41l57 58l30 -30l24 -10h25l27 13l12 9l7 20v16l-5 15l-14 14l-21 7h-36l-36 -10l-51 35l25 174h195v-78h-124l-6 -40h49l50 -21l38 -35l17 -46v-44l-16 -46l-37 -39l-55 -23h-61z" />
    <glyph glyph-name="uni2465" unicode="&#x2465;" horiz-adv-x="842" 
d="M367 -16l-107 37l-98 67l-75 103l-37 109v111l37 109l75 103l98 67l107 37h108l107 -37l98 -67l75 -103l37 -109v-111l-37 -109l-75 -103l-98 -67l-107 -37h-108zM381 62h80l87 30l78 54l58 79l30 89v83l-30 89l-58 79l-78 54l-87 30h-80l-87 -30l-78 -54l-58 -79
l-30 -89v-83l30 -89l58 -79l78 -54zM389 182l-61 29l-30 43l-10 36v146l13 47l39 50l58 26h56l57 -26l38 -36l-59 -55l-31 27l-23 12h-21l-21 -11l-20 -24l-4 -17l29 11h53l59 -27l30 -42l11 -37v-47l-10 -33l-32 -44l-57 -28h-64zM406 261h29l25 14l10 28v23l-3 11l-9 14
l-22 11h-21l-27 -11l-17 -13l-2 -4v-26l6 -25l11 -11z" />
    <glyph glyph-name="uni2466" unicode="&#x2466;" horiz-adv-x="842" 
d="M367 -16l-107 37l-98 67l-75 103l-37 109v111l37 109l75 103l98 67l107 37h108l107 -37l98 -67l75 -103l37 -109v-111l-37 -109l-75 -103l-98 -67l-107 -37h-108zM381 62h80l87 30l78 54l58 79l30 89v83l-30 89l-58 79l-78 54l-87 30h-80l-87 -30l-78 -54l-58 -79
l-30 -89v-83l30 -89l58 -79l78 -54zM312 177l137 289h-143v78h242v-52l-146 -315h-90z" />
    <glyph glyph-name="uni2467" unicode="&#x2467;" horiz-adv-x="842" 
d="M367 -16l-107 37l-98 67l-75 103l-37 109v111l37 109l75 103l98 67l107 37h108l107 -37l98 -67l75 -103l37 -109v-111l-37 -109l-75 -103l-98 -67l-107 -37h-108zM381 62h80l87 30l78 54l58 79l30 89v83l-30 89l-58 79l-78 54l-87 30h-80l-87 -30l-78 -54l-58 -79
l-30 -89v-83l30 -89l58 -79l78 -54zM391 172l-48 14l-45 42l-10 37v54l14 41l17 15l-7 6l-17 42v40l14 42l39 30l50 14h43l49 -14l39 -30l14 -42v-40l-17 -42l-7 -6l19 -17l13 -39v-54l-11 -37l-44 -42l-49 -14h-56zM401 415h40l8 2l10 9l2 11v12l-3 10l-6 6l-22 6h-21
l-24 -7l-6 -6l-2 -8v-15l2 -9l9 -8zM406 252h27l23 6l9 10l4 12v27l-4 12l-9 9l-17 8h-38l-16 -7l-12 -10l-4 -12v-28l4 -12l8 -8z" />
    <glyph glyph-name="uni2468" unicode="&#x2468;" horiz-adv-x="842" 
d="M367 -16l-107 37l-98 67l-75 103l-37 109v111l37 109l75 103l98 67l107 37h108l107 -37l98 -67l75 -103l37 -109v-111l-37 -109l-75 -103l-98 -67l-107 -37h-108zM381 62h80l87 30l78 54l58 79l30 89v83l-30 89l-58 79l-78 54l-87 30h-80l-87 -30l-78 -54l-58 -79
l-30 -89v-83l30 -89l58 -79l78 -54zM385 182l-58 27l-37 35l62 59l28 -31l23 -11h20l23 10l16 20l6 22l-26 -11h-57l-58 28l-30 44l-10 32v48l10 33l31 45l57 27h67l58 -27l29 -43l13 -41v-146l-14 -45l-38 -49l-57 -26h-58zM405 382h20l29 9l13 13l2 6v24l-5 21l-11 15
l-19 11h-29l-22 -11l-7 -7l-7 -25v-19l4 -13l10 -15z" />
    <glyph glyph-name="lozenge" unicode="&#x25ca;" horiz-adv-x="562" 
d="M231 0l-197 355l197 356h100l198 -356l-198 -355h-100zM281 124l126 231l-126 231l-126 -232z" />
    <glyph glyph-name="circle" unicode="&#x25cb;" horiz-adv-x="842" 
d="M367 -16l-107 37l-98 67l-75 103l-37 109v111l37 109l75 103l98 67l107 37h108l107 -37l98 -67l75 -103l37 -109v-111l-37 -109l-75 -103l-98 -67l-107 -37h-108zM381 62h80l87 30l78 54l58 79l30 89v83l-30 89l-58 79l-78 54l-87 30h-80l-87 -30l-78 -54l-58 -79
l-30 -89v-83l30 -89l58 -79l78 -54z" />
    <glyph glyph-name="uni2776" unicode="&#x2776;" horiz-adv-x="842" 
d="M367 -16l-107 37l-98 67l-75 103l-37 109v111l37 109l75 103l98 67l107 37h108l107 -37l98 -67l75 -103l37 -109v-111l-37 -109l-75 -103l-98 -67l-107 -37h-108zM398 187h83v367h-43l-150 -71l35 -68l75 34v-262z" />
    <glyph glyph-name="uni2777" unicode="&#x2777;" horiz-adv-x="842" 
d="M367 -16l-107 37l-98 67l-75 103l-37 109v111l37 109l75 103l98 67l107 37h108l107 -37l98 -67l75 -103l37 -109v-111l-37 -109l-75 -103l-98 -67l-107 -37h-108zM292 185h257v81h-127l96 96l26 50v57l-39 59l-62 29h-62l-60 -25l-39 -41l59 -57l32 33l24 10h28l21 -10
l15 -23v-15l-11 -24l-158 -155v-65z" />
    <glyph glyph-name="uni2778" unicode="&#x2778;" horiz-adv-x="842" 
d="M367 -16l-107 37l-98 67l-75 103l-37 109v111l37 109l75 103l98 67l107 37h108l107 -37l98 -67l75 -103l37 -109v-111l-37 -109l-75 -103l-98 -67l-107 -37h-108zM380 184h61l61 27l33 34l18 47v41l-18 43l-38 37l-25 9l58 78v56h-214v-78h101l-48 -61v-58h47l35 -13
l17 -16l3 -11v-14l-5 -16l-15 -15l-26 -11h-28l-22 10l-31 33l-60 -59l42 -42z" />
    <glyph glyph-name="uni2779" unicode="&#x2779;" horiz-adv-x="842" 
d="M367 -16l-107 37l-98 67l-75 103l-37 109v111l37 109l75 103l98 67l107 37h108l107 -37l98 -67l75 -103l37 -109v-111l-37 -109l-75 -103l-98 -67l-107 -37h-108zM404 187h82v86h50v77h-50v204h-69l-164 -225v-56h151v-86zM355 350l49 71v-71h-49z" />
    <glyph glyph-name="uni277A" unicode="&#x277a;" horiz-adv-x="842" 
d="M367 -16l-107 37l-98 67l-75 103l-37 109v111l37 109l75 103l98 67l107 37h108l107 -37l98 -67l75 -103l37 -109v-111l-37 -109l-75 -103l-98 -67l-107 -37h-108zM376 184h61l55 23l37 39l16 46v44l-17 46l-38 35l-50 21h-49l6 40h124v78h-195l-25 -174l51 -35l36 10h36
l21 -7l14 -14l5 -15v-16l-7 -20l-12 -9l-27 -13h-25l-24 10l-30 30l-57 -58l43 -41z" />
    <glyph glyph-name="uni277B" unicode="&#x277b;" horiz-adv-x="842" 
d="M367 -16l-107 37l-98 67l-75 103l-37 109v111l37 109l75 103l98 67l107 37h108l107 -37l98 -67l75 -103l37 -109v-111l-37 -109l-75 -103l-98 -67l-107 -37h-108zM389 182h64l57 28l32 44l10 33v47l-11 37l-30 42l-59 27h-53l-29 -11l4 17l20 24l21 11h21l23 -12l31 -27
l59 55l-38 36l-57 26h-56l-58 -26l-39 -50l-13 -47v-146l10 -36l30 -43zM406 261l-20 11l-11 11l-6 25v26l2 4l17 13l27 11h21l22 -11l9 -14l3 -11v-23l-10 -28l-25 -14h-29z" />
    <glyph glyph-name="uni277C" unicode="&#x277c;" horiz-adv-x="842" 
d="M367 -16l-107 37l-98 67l-75 103l-37 109v111l37 109l75 103l98 67l107 37h108l107 -37l98 -67l75 -103l37 -109v-111l-37 -109l-75 -103l-98 -67l-107 -37h-108zM312 187h90l146 315v52h-242v-78h143z" />
    <glyph glyph-name="uni277D" unicode="&#x277d;" horiz-adv-x="842" 
d="M367 -16l-107 37l-98 67l-75 103l-37 109v111l37 109l75 103l98 67l107 37h108l107 -37l98 -67l75 -103l37 -109v-111l-37 -109l-75 -103l-98 -67l-107 -37h-108zM391 182h56l49 14l44 42l11 37v54l-13 39l-19 17l7 6l17 42v40l-14 42l-39 30l-49 14h-43l-50 -14l-39 -30
l-14 -42v-40l17 -42l7 -6l-17 -15l-14 -41v-54l10 -37l45 -42zM401 425l-13 3l-9 8l-2 9v15l2 8l6 6l24 7h21l22 -6l6 -6l3 -10v-12l-2 -11l-10 -9l-8 -2h-40zM406 262l-25 7l-8 8l-4 12v28l4 12l12 10l16 7h38l17 -8l9 -9l4 -12v-27l-4 -12l-9 -10l-23 -6h-27z" />
    <glyph glyph-name="uni277E" unicode="&#x277e;" horiz-adv-x="842" 
d="M367 -16l-107 37l-98 67l-75 103l-37 109v111l37 109l75 103l98 67l107 37h108l107 -37l98 -67l75 -103l37 -109v-111l-37 -109l-75 -103l-98 -67l-107 -37h-108zM385 182h58l57 26l38 49l14 45v146l-13 41l-29 43l-58 27h-67l-57 -27l-31 -45l-10 -33v-48l10 -32l30 -44
l58 -28h57l26 11l-6 -22l-16 -20l-23 -10h-20l-23 11l-28 31l-62 -59l37 -35zM405 382l-22 9l-10 15l-4 13v19l7 25l7 7l22 11h29l19 -11l11 -15l5 -21v-24l-2 -6l-13 -13l-29 -9h-20z" />
    <glyph glyph-name="uniF8FF" unicode="&#xf8ff;" horiz-adv-x="1480" 
d="M501 -191v304l-78 -188l-72 29l78 188l-215 -215l-56 56l215 215l-188 -78l-29 72l189 78h-305v78h305l-189 78l29 72l188 -78l-215 215l56 56l215 -215l-78 188l72 29l78 -189v305h78v-305l78 189l72 -29l-78 -188l215 215l56 -56l-215 -215l188 78l29 -72l-189 -78h705
v-78h-705l189 -78l-29 -72l-188 78l215 -215l-56 -56l-215 215l78 -188l-72 -29l-78 188v-304h-78z" />
    <glyph glyph-name="Jacute" horiz-adv-x="503" 
d="M285 736l-44 79l204 113l44 -80zM179 -8l-70 28l-75 73l-24 103l106 29l16 -75l39 -41l27 -9h34l25 10l41 41l13 54v506h108v-524l-24 -94l-72 -73l-70 -28h-74z" />
    <glyph glyph-name="jacute" horiz-adv-x="273" 
d="M69 569l-54 75l190 135l54 -75zM9 -162l-65 16l27 103l49 -12h22l28 9l18 29v544h107v-576l-53 -83l-87 -30h-46z" />
    <glyph glyph-name="zero.zero" 
d="M569 517l16 -90v-143l-16 -90l-36 -87l-71 -71l-93 -44h-98l-94 44l-70 71l-36 87l-16 90v143l16 90l36 87l70 71l94 44h98l93 -44l71 -71zM163 419v-123l14 -72l1 -1l245 338l-25 24l-53 26h-50l-54 -26l-43 -43l-21 -56zM477 296v123l-14 67l-2 5l-245 -338l26 -28
l52 -25h51l52 25l44 45l21 54z" />
    <glyph glyph-name="zero.tf" 
d="M271 -8l-94 44l-70 71l-36 87l-16 90v143l16 90l36 87l70 71l94 44h98l93 -44l71 -71l36 -87l16 -90v-143l-16 -90l-36 -87l-71 -71l-93 -44h-98zM294 100h51l52 25l44 45l21 54l15 72v123l-14 67l-21 56l-44 43l-53 26h-50l-54 -26l-43 -43l-21 -56l-14 -67v-123l14 -72
l22 -53l43 -46z" />
    <glyph glyph-name="one.tf" 
d="M118 0v106h176v463l-153 -78l-47 95l247 125h60v-605h162v-106h-445z" />
    <glyph glyph-name="two.tf" 
d="M102 0v90l301 339l27 54v45l-33 55l-59 28h-61l-64 -30l-42 -44l-77 77l55 58l105 47h110l108 -53l67 -106v-100l-44 -90l-237 -263h288v-107h-444z" />
    <glyph glyph-name="three.tf" 
d="M248 -8l-100 43l-61 57l78 78l45 -45l59 -25h64l68 30l33 35l17 41v42l-15 39l-37 38l-78 32h-74v82l119 165h-226v107h375v-82l-135 -183l80 -31l69 -69l31 -81v-74l-30 -81l-67 -71l-106 -47h-109z" />
    <glyph glyph-name="four.tf" 
d="M370 0v177h-308v79l319 455h97v-427h103v-107h-103v-177h-108zM205 284h165v226z" />
    <glyph glyph-name="five.tf" 
d="M246 -8l-100 43l-61 57l77 78l45 -45l60 -25h64l68 30l33 36l17 41v49l-14 37l-42 42l-51 20h-85l-63 -22l-78 57l44 321h350v-107h-256l-22 -144l8 2h123l94 -36l70 -70l31 -82v-83l-30 -81l-67 -71l-106 -47h-109z" />
    <glyph glyph-name="six.tf" 
d="M271 -8l-104 52l-54 78l-22 78v288l25 90l68 91l106 50h102l102 -48l54 -52l-77 -77l-39 39l-65 30h-52l-59 -28q-6 -9 -20 -26t-21 -26l-16 -60v-42l9 9l86 35h95l106 -53l53 -77l18 -66v-87l-19 -71l-53 -74l-105 -53h-118zM296 100h69l56 28l22 31l15 45v60l-11 35
l-27 38l-54 29h-53l-61 -26l-41 -34l-12 -19v-73l14 -49l27 -37z" />
    <glyph glyph-name="seven.tf" 
d="M144 0l274 604h-304v107h434v-76l-282 -635h-122z" />
    <glyph glyph-name="eight.tf" 
d="M275 -8l-98 30l-70 68l-23 79v92l25 77l51 49l-32 28l-28 72v73l25 78l64 53l94 28h76l94 -28l63 -53l26 -78v-73l-29 -72l-32 -29l51 -48l25 -77v-94l-23 -77l-70 -68l-98 -30h-91zM280 437h83l33 11l28 28l9 28v42l-11 31l-24 20l-53 14h-49l-53 -14l-24 -20l-11 -31
v-42l10 -29l27 -28zM287 100h67l52 16l33 33l10 35v63l-11 34l-34 36l-38 14h-91l-37 -14l-35 -35l-10 -34v-62l9 -37l34 -33z" />
    <glyph glyph-name="nine.tf" 
d="M248 -8l-102 48l-53 52l77 78l39 -40l64 -30h53l58 26q33 39 41 51l16 58v49l-10 -9l-82 -34h-98l-107 53l-51 77l-19 66v84l19 71l53 74l105 53h118l104 -52l54 -78l22 -78v-293l-25 -88l-69 -91l-104 -47h-103zM274 348h56l61 25l40 35l10 20v69l-14 48q-2 4 -26 38
l-57 28h-69l-56 -28l-23 -32l-13 -44v-58l10 -34l27 -38z" />
    <glyph glyph-name="zero.tf.zero" 
d="M569 517l16 -90v-143l-16 -90l-36 -87l-71 -71l-93 -44h-98l-94 44l-70 71l-36 87l-16 90v143l16 90l36 87l70 71l94 44h98l93 -44l71 -71zM163 419v-123l14 -72l1 -1l245 338l-25 24l-53 26h-50l-54 -26l-43 -43l-21 -56zM477 296v123l-14 67l-2 5l-245 -338l26 -28
l52 -25h51l52 25l44 45l21 54z" />
    <glyph glyph-name="dollar.tf" 
d="M269 -111v103h-5l-96 34l-60 42l-33 40l86 67l24 -29l35 -26l59 -20h83l64 25l18 22l12 25v52l-14 31l-39 27l-200 57l-72 52l-34 54l-14 86l27 88l67 69l92 30v108h110v-111l96 -27l75 -46l-58 -94l-63 41l-79 22h-63l-51 -16l-31 -33l-12 -40l8 -39l9 -16l46 -31
l195 -56l81 -55l32 -79v-100l-26 -55l-50 -58l-111 -41v-103h-108z" />
    <glyph glyph-name="cent.tf" 
d="M284 -107v99l-104 50l-65 89l-23 77v115l23 80l65 89l104 50v96h108v-97l81 -25l74 -77l-79 -73l-57 57l-34 12h-75l-48 -25l-19 -24l-23 -33l-12 -42v-89l14 -43l39 -54l56 -25h69l33 11l58 59l78 -78l-73 -73l-82 -26v-100h-108z" />
    <glyph glyph-name="sterling.tf" 
d="M102 -9l-24 103l51 13l48 35l30 56v51l-21 58h-113v98h75l-12 33l-14 85l18 100l64 65l93 31h99l79 -49l57 -80l-90 -59l-42 59l-34 21h-57l-44 -16l-25 -26l-8 -47l10 -60l21 -57h185v-98h-148l15 -39v-96l-28 -51l39 -21h66l63 13l62 30l49 -98l-80 -37l-83 -16h-103
l-86 47l-45 -32z" />
    <glyph glyph-name="florin.tf" 
d="M119 -119l-78 28l36 98l60 -21h28l26 16l24 34l59 330h-112v97h128l32 180l43 73l77 46h69l88 -19l-25 -104l-77 17h-25l-29 -19l-19 -32l-25 -142h122v-97h-138l-64 -366l-53 -78l-77 -41h-70z" />
    <glyph glyph-name="yen.tf" 
d="M604 711l-158 -253h89v-94h-148l-13 -21v-21h161v-94h-161v-228h-108v228h-162v94h162v21l-13 21h-149v94h90l-158 253h129l155 -259l155 259h129z" />
    <glyph glyph-name="Euro.tf" 
d="M330 -8l-88 44l-69 72l-36 87l-9 49h-76v94h68v36h-68v94h76l9 48l36 87l71 73l86 43h102l89 -43l67 -81l-84 -66l-51 60l-46 22h-52l-51 -26l-38 -41l-25 -61l-3 -15h197v-94h-207v-36h207v-94h-197l3 -16l25 -62l38 -41l48 -25h58l44 14l58 44l64 -83l-70 -54l-79 -29
h-97z" />
    <glyph glyph-name="a.sups" horiz-adv-x="342" 
d="M244 376l-22 31l-49 -25h-37l-29 9l-35 20l-31 45v36l7 37l44 35l52 13h36l26 -9v18l-2 4l-13 9l-22 6h-26l-14 -2l-17 -8l-23 -17l-45 47l24 23l32 22l29 8h52l39 -8l44 -32l15 -40v-143q3 -5 13 -18.5t13 -18.5zM150 445h8l30 11l16 11l2 9v23l-3 4l-9 5l-24 7h-15
l-27 -8l-11 -11l-4 -16v-6l12 -20l4 -3z" />
    <glyph glyph-name="b.sups" horiz-adv-x="345" 
d="M147 382l-21 8v-4h-72v398h72v-118l19 12h51l59 -28l37 -50l11 -37v-65l-11 -38l-37 -50l-57 -28h-51zM163 455h22l21 11l19 26l5 20v37l-5 19l-19 27l-22 10h-26l-22 -17l-10 -14v-100l6 -5l13 -9z" />
    <glyph glyph-name="c.sups" horiz-adv-x="312" 
d="M140 377l-55 26l-38 50l-10 37v63l10 38l38 49l55 27h48l39 -12l48 -47l-51 -49l-31 29l-20 7h-20l-20 -10l-19 -25l-5 -18v-38l5 -20l20 -26l20 -10h19l20 7l31 30l51 -50l-48 -46l-39 -12h-48z" />
    <glyph glyph-name="d.sups" horiz-adv-x="345" 
d="M141 382l-59 28l-37 50l-11 37v65l11 38l37 50l57 28h51l21 -8v114h73v-398h-73v8l-18 -12h-52zM154 455h23l25 19l9 11v100l-4 5l-13 9l-20 7h-22l-19 -11l-22 -25l-5 -20v-39l5 -19l21 -27z" />
    <glyph glyph-name="e.sups" horiz-adv-x="340" 
d="M141 382l-56 28l-38 50l-10 37v65l10 38l38 50l56 28h50l57 -28l37 -51l11 -33v-72h-182l21 -29l21 -10h21l29 7l38 23l39 -59l-50 -33l-45 -11h-47zM114 566h104v2l-20 26l-21 11h-23l-20 -10l-19 -25z" />
    <glyph glyph-name="f.sups" horiz-adv-x="265" 
d="M81 381v205h-45v71h45v55l32 48l46 15h27l59 -14l-18 -72l-52 14h-6l-9 -2l-7 -10v-34h64v-71h-64v-205h-72z" />
    <glyph glyph-name="g.sups" horiz-adv-x="349" 
d="M138 301l-35 9l-30 20l-24 24l49 44l23 -19l28 -8h26l34 19l3 5v8l-20 -11h-48l-57 21l-39 51l-11 37v52l10 38l38 49l55 27h51l21 -8v4h71v-277l-15 -45l-41 -26l-42 -14h-47zM153 464h25l24 17l10 12v83l-6 6l-12 7l-19 7h-23l-19 -10l-19 -26l-5 -18v-28l5 -18l17 -24
z" />
    <glyph glyph-name="h.sups" horiz-adv-x="337" 
d="M54 386v398h72v-119l23 13h54l45 -13l37 -49v-230h-73v204l-6 8l-20 7h-24l-25 -17l-11 -14v-188h-72z" />
    <glyph glyph-name="i.sups" horiz-adv-x="198" 
d="M53 690v94h90v-94h-90zM61 386v268h73v-268h-73z" />
    <glyph glyph-name="j.sups" horiz-adv-x="210" 
d="M63 690v94h91v-94h-91zM38 308l-42 11l19 72l32 -10h9l11 4l5 8v261h73v-279l-29 -48l-51 -19h-27z" />
    <glyph glyph-name="k.sups" horiz-adv-x="328" 
d="M54 381v391h72v-191l82 82h101l-120 -118l117 -164h-87l-81 114l-12 -12v-102h-72z" />
    <glyph glyph-name="l.sups" horiz-adv-x="179" 
d="M52 386v398h72v-398h-72z" />
    <glyph glyph-name="m.sups" horiz-adv-x="495" 
d="M49 386v288h73v-11l25 15h52l45 -13l11 -15l8 6l39 22h54l45 -13l35 -49v-230h-73v206l-5 6l-18 7h-21l-30 -19l-9 -12v-188h-74v202l-7 12l-17 5h-22l-28 -19l-10 -11v-189h-73z" />
    <glyph glyph-name="n.sups" horiz-adv-x="335" 
d="M48 386v288h72v-11l25 15h53l47 -13l37 -49v-230h-73v204l-6 8l-21 7h-23l-29 -19l-10 -11v-189h-72z" />
    <glyph glyph-name="o.sups" horiz-adv-x="333" 
d="M134 382l-57 28l-29 42l-10 46v63l10 46l29 43l57 28h58l57 -28l29 -43l9 -46v-63l-9 -46l-29 -42l-57 -28h-58zM147 455h31l20 10l10 14l6 28v48l-6 27l-10 12l-20 11h-31l-21 -12l-9 -12l-7 -26v-48l7 -29l9 -12z" />
    <glyph glyph-name="p.sups" horiz-adv-x="345" 
d="M54 304v359h71v-7l20 11h49l59 -27l37 -49l9 -37v-64l-9 -37l-37 -50l-57 -26h-50l-20 7v-80h-72zM161 448h23l19 11l19 23l5 20v40l-5 18l-18 24l-22 11h-24l-23 -15l-9 -14v-98l6 -6l12 -9z" />
    <glyph glyph-name="q.sups" horiz-adv-x="345" 
d="M210 304v85l-20 -12h-50l-58 26l-37 50l-10 37v63l10 38l37 49l56 27h49l23 -8v4h71v-359h-71zM152 448h23l25 19l10 11v99l-6 5l-12 7l-19 7h-23l-19 -10l-20 -26l-5 -18v-39l5 -19l20 -26z" />
    <glyph glyph-name="r.sups" horiz-adv-x="248" 
d="M46 386v288h74v-12l32 16h39l39 -11l-17 -71l-33 9h-17l-17 -8l-17 -19l-9 -18v-174h-74z" />
    <glyph glyph-name="s.sups" horiz-adv-x="300" 
d="M122 382l-45 11l-26 21l-25 27l53 50l18 -23l7 -6l27 -7h28l17 5l7 5l3 11l-3 8l-8 6l-68 10l-41 25l-23 36v53l19 33l26 22l34 9h48l43 -10l45 -33l-39 -58l-31 21l-27 8h-28l-15 -7l-4 -5v-11l11 -9l75 -14l35 -24l23 -37v-50l-22 -35l-33 -23l-31 -9h-50z" />
    <glyph glyph-name="t.sups" horiz-adv-x="273" 
d="M154 382l-43 16l-32 46v151h-46v73h46v88h72v-88h67v-73h-67v-127l8 -10l7 -3h11l48 12l17 -71l-60 -14h-28z" />
    <glyph glyph-name="u.sups" horiz-adv-x="332" 
d="M132 377l-46 12l-40 50v224h72v-199l8 -11l18 -5h21l27 19l10 11v185h72v-282h-72v8l-23 -12h-47z" />
    <glyph glyph-name="v.sups" horiz-adv-x="326" 
d="M129 381l-113 282h79l63 -164l64 164h78l-113 -282h-58z" />
    <glyph glyph-name="w.sups" horiz-adv-x="445" 
d="M104 386l-83 288h78l40 -148l50 139h56l49 -136l41 145h79l-83 -288h-64l-50 142l-49 -142h-64z" />
    <glyph glyph-name="x.sups" horiz-adv-x="325" 
d="M5 386l108 145l-107 143h92l61 -84l61 84h92l-107 -143l108 -145h-92l-62 85l-61 -85h-93z" />
    <glyph glyph-name="y.sups" horiz-adv-x="325" 
d="M62 308l58 127l-106 239h79l66 -149l67 149h80l-167 -366h-77z" />
    <glyph glyph-name="z.sups" horiz-adv-x="316" 
d="M41 381v52l120 159h-113v71h214v-53l-119 -159h122v-70h-224z" />
    <glyph glyph-name="zero.osf" horiz-adv-x="643" 
d="M264 -8l-82 32l-62 56l-38 66l-17 68v99l17 68l38 66l62 56l82 32h115l82 -32l62 -56l38 -66l17 -68v-99l-17 -68l-38 -66l-62 -56l-82 -32h-115zM281 98h80l42 17l37 34l19 33l12 46v71l-12 48l-19 31l-36 35l-42 16h-81l-42 -16l-36 -35l-19 -31l-12 -48v-71l12 -46
l19 -33l36 -34z" />
    <glyph glyph-name="one.osf" horiz-adv-x="395" 
d="M205 0v385l-153 -78l-47 95l248 125h59v-527h-107z" />
    <glyph glyph-name="two.osf" horiz-adv-x="505" 
d="M37 0v115l270 183l25 41v23l-31 40l-51 27h-41l-61 -30l-40 -40l-79 72l54 57l103 47h90l96 -52l67 -85v-87l-52 -88l-184 -117h248v-106h-414z" />
    <glyph glyph-name="three.osf" horiz-adv-x="541" 
d="M182 -167l-98 42l-61 56l77 77l45 -44l58 -25h64l66 30l33 34l17 41v50l-15 38l-37 38l-77 32h-73v82l115 137h-221v106h370v-81l-129 -157l75 -30l69 -68l30 -80v-82l-29 -80l-67 -70l-104 -46h-108z" />
    <glyph glyph-name="four.osf" horiz-adv-x="551" 
d="M318 -163v174h-304v78l315 438h96v-410h101v-106h-101v-174h-107zM159 117h159v220z" />
    <glyph glyph-name="five.osf" horiz-adv-x="566" 
d="M193 -168l-99 42l-60 56l77 77l44 -44l59 -25h63l67 30l32 35l17 41v58l-14 36l-40 42l-52 20h-83l-62 -22l-77 56l44 293h344v-106h-252l-21 -118l7 3h121l93 -36l69 -69l30 -81v-92l-29 -80l-66 -70l-104 -46h-108z" />
    <glyph glyph-name="six.osf" horiz-adv-x="580" 
d="M241 -8l-104 52l-54 78l-22 78v288l25 90l68 91l106 50h102l102 -48l54 -52l-77 -77l-39 39l-65 30h-52l-59 -28q-7 -9 -21 -26t-20 -26l-16 -60v-42l9 9l86 35h95l106 -53l53 -77l18 -66v-87l-19 -71l-53 -74l-105 -53h-118zM266 100h69l56 28l22 31l15 45v60l-11 35
l-27 38l-54 29h-53l-61 -26l-41 -34l-12 -19v-73l14 -49l27 -37z" />
    <glyph glyph-name="seven.osf" horiz-adv-x="467" 
d="M55 -162l272 583h-299v106h427v-75l-281 -614h-119z" />
    <glyph glyph-name="eight.osf" horiz-adv-x="583" 
d="M246 -8l-98 30l-70 68l-23 79v92l25 77l51 49l-32 28l-28 72v73l25 78l64 53l94 28h76l94 -28l63 -53l26 -78v-73l-29 -72l-32 -29l51 -48l25 -77v-94l-23 -77l-70 -68l-98 -30h-91zM251 437h83l33 11l28 28l9 28v42l-11 31l-24 20l-53 14h-49l-53 -14l-24 -20l-11 -31
v-42l10 -29l27 -28zM258 100h67l52 16l33 33l10 35v63l-11 34l-34 36l-38 14h-91l-37 -14l-35 -35l-10 -34v-62l9 -37l34 -33z" />
    <glyph glyph-name="nine.osf" horiz-adv-x="580" 
d="M218 -167l-102 48l-53 52l77 78l39 -40l64 -30h53l58 26q32 39 41 51l16 58v26l-10 -9l-82 -34h-98l-107 53l-51 77l-19 66v82l19 71l53 74l105 53h118l104 -52l54 -78l22 -78v-268l-25 -88l-69 -91l-104 -47h-103zM244 166h56l61 25l40 35l10 20v67l-14 48q-2 4 -26 38
l-57 28h-69l-56 -28l-23 -32l-13 -44v-56l10 -34l27 -38z" />
    <glyph glyph-name="zero.osf.zero" horiz-adv-x="643" 
d="M561 381l17 -68v-99l-17 -68l-38 -66l-62 -56l-82 -32h-115l-82 32l-62 56l-38 66l-17 68v99l17 68l38 66l62 56l82 32h115l82 -32l62 -56zM172 299v-71l12 -46l6 -10l221 234l-7 7l-42 16h-81l-42 -16l-36 -35l-19 -31zM471 228v71l-12 48l-7 11l-222 -234l9 -9l42 -17
h80l42 17l37 34l19 33z" />
    <glyph glyph-name="zero.tosf" 
d="M262 -8l-82 32l-62 56l-38 66l-17 68v99l17 68l38 66l62 56l82 32h115l82 -32l62 -56l38 -66l17 -68v-99l-17 -68l-38 -66l-62 -56l-82 -32h-115zM279 98h80l42 17l37 34l19 33l12 46v71l-12 48l-19 31l-36 35l-42 16h-81l-42 -16l-36 -35l-19 -31l-12 -48v-71l12 -46
l19 -33l36 -34z" />
    <glyph glyph-name="one.tosf" 
d="M118 0v106h176v279l-153 -78l-47 95l247 125h60v-421h162v-106h-445z" />
    <glyph glyph-name="two.tosf" 
d="M111 0v115l270 183l25 41v23l-31 40l-51 27h-41l-61 -30l-40 -40l-79 72l54 57l103 47h90l96 -52l67 -85v-87l-52 -88l-186 -117h250v-106h-414z" />
    <glyph glyph-name="three.tosf" 
d="M242 -167l-98 42l-61 56l77 77l45 -44l58 -25h64l66 30l33 34l17 41v50l-15 38l-37 38l-77 32h-73v82l115 137h-221v106h370v-81l-129 -157l75 -30l69 -68l30 -80v-82l-29 -80l-67 -70l-104 -46h-108z" />
    <glyph glyph-name="four.tosf" 
d="M369 -163v174h-304v78l315 438h96v-410h101v-106h-101v-174h-107zM210 117h159v220z" />
    <glyph glyph-name="five.tosf" 
d="M245 -168l-99 42l-60 56l77 77l44 -44l59 -25h63l67 30l32 35l17 41v58l-14 36l-40 42l-52 20h-83l-62 -22l-77 56l44 293h344v-106h-252l-21 -118l7 3h121l93 -36l69 -69l30 -81v-92l-29 -80l-66 -70l-104 -46h-108z" />
    <glyph glyph-name="six.tosf" 
d="M275 -8l-104 52l-54 78l-22 78v288l25 90l68 91l106 50h102l102 -48l54 -52l-77 -77l-39 39l-65 30h-52l-59 -28q-6 -9 -20 -26t-21 -26l-16 -60v-42l9 9l86 35h95l106 -53l53 -77l18 -66v-87l-19 -71l-53 -74l-105 -53h-118zM300 100h69l56 28l22 31l15 45v60l-11 35
l-27 38l-54 29h-53l-61 -26l-41 -34l-12 -19v-73l14 -49l27 -37z" />
    <glyph glyph-name="seven.tosf" 
d="M145 -162l272 583h-299v106h427v-75l-281 -614h-119z" />
    <glyph glyph-name="eight.tosf" 
d="M275 -8l-98 30l-70 68l-23 79v92l25 77l51 49l-32 28l-28 72v73l25 78l64 53l94 28h76l94 -28l63 -53l26 -78v-73l-29 -72l-32 -29l51 -48l25 -77v-94l-23 -77l-70 -68l-98 -30h-91zM280 437h83l33 11l28 28l9 28v42l-11 31l-24 20l-53 14h-49l-53 -14l-24 -20l-11 -31
v-42l10 -29l27 -28zM287 100h67l52 16l33 33l10 35v63l-11 34l-34 36l-38 14h-91l-37 -14l-35 -35l-10 -34v-62l9 -37l34 -33z" />
    <glyph glyph-name="nine.tosf" 
d="M253 -168l-102 48l-53 52l77 78l39 -40l64 -30h53l58 26q32 39 41 51l16 58v26l-10 -9l-82 -34h-98l-107 53l-51 77l-19 66v82l19 71l53 74l105 53h118l104 -52l54 -78l22 -78v-268l-25 -88l-69 -91l-104 -47h-103zM279 165h56l61 25l40 35l10 20v67l-14 48q-2 4 -26 38
l-57 28h-69l-56 -28l-23 -32l-13 -44v-56l10 -34l27 -38z" />
    <glyph glyph-name="zero.tosf.zero" 
d="M559 381l17 -68v-99l-17 -68l-38 -66l-62 -56l-82 -32h-115l-82 32l-62 56l-38 66l-17 68v99l17 68l38 66l62 56l82 32h115l82 -32l62 -56zM170 299v-71l12 -46l6 -10l221 234l-7 7l-42 16h-81l-42 -16l-36 -35l-19 -31zM469 228v71l-12 48l-7 11l-222 -234l9 -9l42 -17
h80l42 17l37 34l19 33z" />
    <glyph glyph-name="zero.dnom" horiz-adv-x="385" 
d="M163 -5l-52 23l-38 39l-20 48l-9 42v75l9 41l20 47l38 39l52 23h57l51 -23l37 -39l20 -47l9 -41v-75l-9 -42l-20 -48l-37 -39l-51 -23h-57zM182 74h20l21 10l17 16l8 24l8 30v60l-7 29l-8 22l-20 19l-19 10h-21l-20 -10l-21 -20l-8 -21l-7 -29v-61l8 -29l8 -24l18 -15z
" />
    <glyph glyph-name="one.dnom" horiz-adv-x="241" 
d="M112 0v262l-75 -34l-35 68l150 71h43v-367h-83z" />
    <glyph glyph-name="two.dnom" horiz-adv-x="335" 
d="M51 0v65l158 155l11 24v15l-15 23l-21 10h-28l-24 -10l-32 -33l-59 57l39 41l60 25h62l62 -29l39 -59v-57l-26 -50l-96 -96h127v-81h-257z" />
    <glyph glyph-name="three.dnom" horiz-adv-x="337" 
d="M117 -5l-54 21l-42 42l60 59l31 -33l22 -10h28l26 11l15 15l5 16v14l-3 11l-17 16l-35 13h-47v58l48 61h-101v78h214v-56l-58 -78l25 -9l38 -37l18 -43v-41l-18 -47l-33 -34l-61 -27h-61z" />
    <glyph glyph-name="four.dnom" horiz-adv-x="324" 
d="M165 0v86h-151v56l164 225h69v-204h50v-77h-50v-86h-82zM116 163h49v71z" />
    <glyph glyph-name="five.dnom" horiz-adv-x="341" 
d="M125 -5l-51 20l-43 41l57 58l30 -30l24 -10h25l27 13l12 9l7 20v16l-5 15l-14 14l-21 7h-36l-36 -10l-51 35l25 174h195v-78h-124l-6 -40h49l50 -21l38 -35l17 -46v-44l-16 -46l-37 -39l-55 -23h-61z" />
    <glyph glyph-name="six.dnom" horiz-adv-x="355" 
d="M145 -5l-61 29l-30 43l-10 36v146l13 47l39 50l58 26h56l57 -26l38 -36l-59 -55l-31 27l-23 12h-21l-21 -11l-20 -24l-4 -17l29 11h53l59 -27l30 -42l11 -37v-47l-10 -33l-32 -44l-57 -28h-64zM162 74h29l25 14l10 28v23l-3 11l-9 14l-22 11h-21l-27 -11l-17 -13l-2 -4
v-26l6 -25l11 -11z" />
    <glyph glyph-name="seven.dnom" horiz-adv-x="263" 
d="M20 0l137 289h-143v78h242v-52l-146 -315h-90z" />
    <glyph glyph-name="eight.dnom" horiz-adv-x="354" 
d="M147 -5l-48 14l-45 42l-10 37v54l14 41l17 15l-7 6l-17 42v40l14 42l39 30l50 14h43l49 -14l39 -30l14 -42v-40l-17 -42l-7 -6l19 -17l13 -39v-54l-11 -37l-44 -42l-49 -14h-56zM157 238h40l8 2l10 9l2 11v12l-3 10l-6 6l-22 6h-21l-24 -7l-6 -6l-2 -8v-15l2 -9l9 -8z
M162 75h27l23 6l9 10l4 12v27l-4 12l-9 9l-17 8h-38l-16 -7l-12 -10l-4 -12v-28l4 -12l8 -8z" />
    <glyph glyph-name="nine.dnom" horiz-adv-x="356" 
d="M142 -5l-58 27l-37 35l62 59l28 -31l23 -11h20l23 10l16 20l6 22l-26 -11h-57l-58 28l-30 44l-10 32v48l10 33l31 45l57 27h67l58 -27l29 -43l13 -41v-146l-14 -45l-38 -49l-57 -26h-58zM162 195h20l29 9l13 13l2 6v24l-5 21l-11 15l-19 11h-29l-22 -11l-7 -7l-7 -25v-19
l4 -13l10 -15z" />
    <glyph glyph-name="zero.numr" horiz-adv-x="385" 
d="M163 338l-52 23l-38 39l-20 48l-9 42v75l9 41l20 47l38 39l52 23h57l51 -23l37 -39l20 -47l9 -41v-75l-9 -42l-20 -48l-37 -39l-51 -23h-57zM182 417h20l21 10l17 16l8 24l8 30v60l-7 29l-8 22l-20 19l-19 10h-21l-20 -10l-21 -20l-8 -21l-7 -29v-61l8 -29l8 -24l18 -15z
" />
    <glyph glyph-name="one.numr" horiz-adv-x="241" 
d="M112 348v262l-75 -34l-35 68l150 71h43v-367h-83z" />
    <glyph glyph-name="two.numr" horiz-adv-x="335" 
d="M51 343v65l158 155l11 24v15l-15 23l-21 10h-28l-24 -10l-32 -33l-59 57l39 41l60 25h62l62 -29l39 -59v-57l-26 -50l-96 -96h127v-81h-257z" />
    <glyph glyph-name="three.numr" horiz-adv-x="337" 
d="M117 338l-54 21l-42 42l60 59l31 -33l22 -10h28l26 11l15 15l5 16v14l-3 11l-17 16l-35 13h-47v58l48 61h-101v78h214v-56l-58 -78l25 -9l38 -37l18 -43v-41l-18 -47l-33 -34l-61 -27h-61z" />
    <glyph glyph-name="four.numr" horiz-adv-x="324" 
d="M165 343v86h-151v56l164 225h69v-204h50v-77h-50v-86h-82zM116 506h49v71z" />
    <glyph glyph-name="five.numr" horiz-adv-x="341" 
d="M125 338l-51 20l-43 41l57 58l30 -30l24 -10h25l27 13l12 9l7 20v16l-5 15l-14 14l-21 7h-36l-36 -10l-51 35l25 174h195v-78h-124l-6 -40h49l50 -21l38 -35l17 -46v-44l-16 -46l-37 -39l-55 -23h-61z" />
    <glyph glyph-name="six.numr" horiz-adv-x="355" 
d="M145 338l-61 29l-30 43l-10 36v146l13 47l39 50l58 26h56l57 -26l38 -36l-59 -55l-31 27l-23 12h-21l-21 -11l-20 -24l-4 -17l29 11h53l59 -27l30 -42l11 -37v-47l-10 -33l-32 -44l-57 -28h-64zM162 417h29l25 14l10 28v23l-3 11l-9 14l-22 11h-21l-27 -11l-17 -13l-2 -4
v-26l6 -25l11 -11z" />
    <glyph glyph-name="seven.numr" horiz-adv-x="263" 
d="M20 343l137 289h-143v78h242v-52l-146 -315h-90z" />
    <glyph glyph-name="eight.numr" horiz-adv-x="354" 
d="M147 338l-48 14l-45 42l-10 37v54l14 41l17 15l-7 6l-17 42v40l14 42l39 30l50 14h43l49 -14l39 -30l14 -42v-40l-17 -42l-7 -6l19 -17l13 -39v-54l-11 -37l-44 -42l-49 -14h-56zM157 581h40l8 2l10 9l2 11v12l-3 10l-6 6l-22 6h-21l-24 -7l-6 -6l-2 -8v-15l2 -9l9 -8z
M162 418h27l23 6l9 10l4 12v27l-4 12l-9 9l-17 8h-38l-16 -7l-12 -10l-4 -12v-28l4 -12l8 -8z" />
    <glyph glyph-name="nine.numr" horiz-adv-x="356" 
d="M142 338l-58 27l-37 35l62 59l28 -31l23 -11h20l23 10l16 20l6 22l-26 -11h-57l-58 28l-30 44l-10 32v48l10 33l31 45l57 27h67l58 -27l29 -43l13 -41v-146l-14 -45l-38 -49l-57 -26h-58zM162 538h20l29 9l13 13l2 6v24l-5 21l-11 15l-19 11h-29l-22 -11l-7 -7l-7 -25
v-19l4 -13l10 -15z" />
    <glyph glyph-name="colon.case" horiz-adv-x="309" 
d="M87 438v139h135v-139h-135zM87 0v139h135v-139h-135z" />
    <glyph glyph-name="exclamdown.case" horiz-adv-x="359" 
d="M108 564v147h142v-147h-142zM125 0v500h108v-500h-108z" />
    <glyph glyph-name="questiondown.case" horiz-adv-x="562" 
d="M215 572v147h142v-147h-142zM236 0l-85 33l-58 57l-20 88l13 74l30 59l77 64l39 60v73h108v-109l-58 -90l-78 -61l-13 -29l-8 -37l10 -39l17 -19l44 -16h44l47 13l22 19l7 14l9 60l107 -17l-13 -77l-23 -48l-60 -49l-80 -23h-78z" />
    <glyph glyph-name="semicolon.case" horiz-adv-x="309" 
d="M87 438v139h135v-139h-135zM132 -134l-52 29l56 105l-49 19v120h135v-125z" />
    <glyph glyph-name="underscore.case" horiz-adv-x="580" 
d="M47 -90v90h486v-90h-486z" />
    <glyph glyph-name="colon.tf" horiz-adv-x="320" 
d="M92 380v139h135v-139h-135zM92 0v139h135v-139h-135z" />
    <glyph glyph-name="comma.tf" horiz-adv-x="320" 
d="M141 -134l-52 29l56 105l-49 19v120h135v-125z" />
    <glyph glyph-name="period.tf" horiz-adv-x="320" 
d="M92 0v139h135v-139h-135z" />
    <glyph glyph-name="semicolon.tf" horiz-adv-x="320" 
d="M96 380v139h135v-139h-135zM141 -134l-52 29l56 105l-49 19v120h135v-125z" />
    <glyph glyph-name="slash.tf" 
d="M256 -16l-96 31l223 712l96 -31z" />
    <glyph glyph-name="underscore.tf" 
d="M27 -117v90h586v-90h-586z" />
    <glyph glyph-name="braceleft.case" horiz-adv-x="413" 
d="M224 -157l-64 35l-35 66v291l-93 95v46l93 95v254l35 67l64 34h137v-105h-105l-16 -10l-8 -17v-263l-75 -76l75 -76v-303l8 -18l16 -9h105v-106h-137z" />
    <glyph glyph-name="braceright.case" horiz-adv-x="413" 
d="M52 -157v106h105l16 9l8 18v303l75 76l-75 76v263l-8 17l-16 10h-105v105h137l64 -34l35 -67v-254l93 -95v-46l-93 -95v-291l-35 -66l-64 -35h-137z" />
    <glyph glyph-name="bracketleft.case" horiz-adv-x="346" 
d="M48 -157v982h236v-105h-129v-771h129v-106h-236z" />
    <glyph glyph-name="bracketright.case" horiz-adv-x="346" 
d="M62 -157v106h129v771h-129v105h236v-982h-236z" />
    <glyph glyph-name="parenleft.case" horiz-adv-x="348" 
d="M205 -133l-73 105l-52 127l-33 172v155l33 173l53 121l73 104l87 -59l-62 -91l-45 -108l-31 -154v-127l30 -152l45 -115l62 -91z" />
    <glyph glyph-name="parenright.case" horiz-adv-x="348" 
d="M146 -127l-87 60l62 91l41 107l31 154v127l-30 152l-42 107l-62 91l87 59l73 -104l49 -118l33 -173v-155l-33 -172l-49 -121z" />
    <glyph glyph-name="parenleft.tf" 
d="M355 -178l-73 105l-52 127l-33 172v155l33 173l53 121l73 104l87 -59l-62 -91l-45 -108l-31 -154v-127l30 -152l45 -115l62 -91z" />
    <glyph glyph-name="parenright.tf" 
d="M286 -172l-87 60l62 91l41 107l31 154v127l-30 152l-42 107l-62 91l87 59l73 -104l49 -118l33 -173v-155l-33 -172l-49 -121z" />
    <glyph glyph-name="emdash.case" horiz-adv-x="1280" 
d="M70 310v89h1140v-89h-1140z" />
    <glyph glyph-name="endash.case" 
d="M70 310v89h500v-89h-500z" />
    <glyph glyph-name="hyphen.case" horiz-adv-x="480" 
d="M70 307v95h340v-95h-340z" />
    <glyph glyph-name="hyphen.tf" 
d="M100 261v95h440v-95h-440z" />
    <glyph glyph-name="guillemotleft.case" horiz-adv-x="538" 
d="M187 125l-149 203v56l149 204l78 -63l-125 -169l125 -169zM395 125l-150 203v56l150 204l77 -63l-125 -169l125 -169z" />
    <glyph glyph-name="guillemotright.case" horiz-adv-x="538" 
d="M136 125l-78 62l126 169l-126 169l78 63l150 -204v-56zM343 125l-78 62l126 169l-126 169l78 63l150 -204v-56z" />
    <glyph glyph-name="guilsinglleft.case" horiz-adv-x="325" 
d="M186 125l-150 203v56l150 204l78 -63l-126 -169l126 -169z" />
    <glyph glyph-name="guilsinglright.case" horiz-adv-x="325" 
d="M135 125l-78 62l125 169l-125 169l78 63l149 -204v-56z" />
    <glyph glyph-name="parenleft.dnom" horiz-adv-x="189" 
d="M120 -36l-38 56l-24 57l-15 72v71l15 73l24 56l38 55l62 -41l-33 -48l-16 -43l-13 -62v-53l13 -61l16 -43l33 -48z" />
    <glyph glyph-name="parenright.dnom" horiz-adv-x="189" 
d="M67 -36l-61 41l32 48l17 43l12 61v53l-12 62l-17 43l-32 48l61 41l39 -55l23 -56l15 -73v-71l-15 -72l-23 -57z" />
    <glyph glyph-name="parenleft.numr" horiz-adv-x="189" 
d="M120 306l-38 56l-24 57l-15 72v71l15 73l24 56l38 55l62 -41l-33 -48l-16 -43l-13 -62v-53l13 -61l16 -43l33 -48z" />
    <glyph glyph-name="parenright.numr" horiz-adv-x="189" 
d="M67 307l-61 41l32 48l17 43l12 61v53l-12 62l-17 43l-32 48l61 41l39 -55l23 -56l15 -73v-71l-15 -72l-23 -57z" />
    <glyph glyph-name="uni0E3F.tf" 
d="M552 303l23 -98l-24 -98l-55 -68l-84 -39h-59v-111h-109v111h-168v711h168v115h109v-115h22l96 -26l69 -76l22 -98l-20 -79l-36 -47l-20 -10l20 -11zM184 604v-173h60v173h-60zM367 604h-14v-173h35l42 28l9 12l12 43l-11 43l-29 33zM184 107h60v216h-60v-216zM449 153
l13 52l-13 59l-20 32l-44 27h-32v-216h32l40 19z" />
    <glyph glyph-name="currency.tf" 
d="M116 85l-70 70l72 72l-25 34l-20 66v62l20 66l25 34l-72 72l70 70l72 -72l31 23l69 21h63l69 -21l31 -23l72 72l70 -70l-72 -72l25 -34l21 -66v-62l-21 -66l-25 -34l72 -72l-70 -70l-72 72q-4 -2 -14.5 -11t-16.5 -12l-69 -21h-63l-69 21l-31 23zM307 212h25l47 14l40 27
l34 44l13 45v31l-13 46l-33 43l-41 27l-47 15h-25l-47 -15l-40 -26l-34 -44l-13 -46v-31l13 -45l33 -43l41 -28z" />
    <glyph glyph-name="uni20B4.tf" 
d="M557 461h40v-69h-554v69h386l11 8l8 15l8 38l-11 40l-32 33l-49 16h-74l-81 -21l-67 -39l-58 91l77 48l113 29h106l94 -31l66 -69l28 -88zM43 276v69h554v-69h-360l-30 -16l-19 -38v-50l12 -24l18 -22l66 -26h79l79 23l38 25l27 34l78 -75l-31 -39l-60 -42l-111 -34h-116
l-111 41l-50 58l-26 55v100l12 30h-49z" />
    <glyph glyph-name="uni20BA.tf" 
d="M487 262l99 -47l-50 -100l-69 -70l-115 -45h-191v180l-62 -34l-45 84l107 58v38l-62 -34l-45 84l107 58v277h108v-219l171 93l44 -84l-215 -117v-38l171 93l44 -84l-215 -117v-131h63l73 31l41 42z" />
    <glyph glyph-name="uni20BD.tf" 
d="M563 611l30 -105l-27 -100l-51 -75l-95 -47h-198v-56h263v-94h-263v-134h-108v134h-68v94h68v56h-68v104h68v323h280l93 -24zM465 450l15 53l-14 50l-36 35l-52 16h-156v-216h170l49 26z" />
    <glyph glyph-name="uni20B9.tf" 
d="M583 711v-94h-105l6 -6l19 -66h80v-95h-83l-12 -44l-51 -75l-48 -24q25 -56 74.5 -167t62.5 -140h-120l-124 284h-225v104h257l51 27l23 35h-331v95h334l-2 8l-39 38l-47 16h-246v104h526z" />
    <glyph glyph-name="uni20B8.tf" 
d="M82 711h475v-107h-475v107zM82 444v107h475v-107h-185v-444h-109v444h-181z" />
    <glyph glyph-name="uni20AE.tf" 
d="M557 604h-185v-90l119 61l44 -84l-163 -84v-39l119 61l44 -84l-163 -84v-261h-109v204l-113 -58l-45 84l158 81v39l-113 -58l-45 84l158 81v147h-181v107h475v-107z" />
    <glyph glyph-name="uni20A9.tf" 
d="M617 412h-47l-7 -47h54v-69h-64l-42 -296h-104l-46 296h-86l-46 -296h-104l-42 296h-60v69h50l-7 47h-43v69h33l-33 230h98l29 -230h77l28 230h126l29 -230h86l34 230h83l-33 -230h37v-69zM318 571l-14 -90h28zM159 412l6 -47h48l5 47h-59zM286 365h64l-7 47h-50z
M479 365l7 47h-67l6 -47h54zM189 172l15 124h-31zM450 171l19 125h-35z" />
    <glyph glyph-name="plus.case" horiz-adv-x="580" 
d="M242 122v186h-176v95h176v186h96v-186h176v-95h-176v-186h-96z" />
    <glyph glyph-name="minus.case" horiz-adv-x="580" 
d="M66 308v95h448v-95h-448z" />
    <glyph glyph-name="multiply.case" horiz-adv-x="580" 
d="M134 133l-67 67l156 155l-156 156l67 67l156 -155l156 155l67 -67l-156 -156l156 -155l-67 -67l-156 155z" />
    <glyph glyph-name="divide.case" horiz-adv-x="580" 
d="M222 455v133h135v-133h-135zM66 308v95h448v-95h-448zM222 122v133h135v-133h-135z" />
    <glyph glyph-name="equal.case" horiz-adv-x="580" 
d="M66 388v95h448v-95h-448zM66 227v95h448v-95h-448z" />
    <glyph glyph-name="notequal.case" horiz-adv-x="580" 
d="M514 388h-160l-46 -66h206v-95h-272l-75 -108l-49 34l51 74h-103v95h169l46 66h-215v95h281l65 93l49 -34l-41 -59h94v-95z" />
    <glyph glyph-name="greater.case" horiz-adv-x="500" 
d="M104 106l-46 79l286 170l-286 170l46 78l351 -208v-81z" />
    <glyph glyph-name="less.case" horiz-adv-x="500" 
d="M389 106l-351 208v81l351 208l46 -78l-286 -171l286 -169z" />
    <glyph glyph-name="greaterequal.case" horiz-adv-x="520" 
d="M126 181l-45 79l286 170l-286 170l45 78l352 -208v-81zM67 50v95h412v-95h-412z" />
    <glyph glyph-name="lessequal.case" horiz-adv-x="520" 
d="M395 181l-351 208v81l351 208l46 -78l-286 -171l286 -169zM42 50v95h413v-95h-413z" />
    <glyph glyph-name="plusminus.case" horiz-adv-x="580" 
d="M242 185v157h-176v95h176v176h96v-176h176v-95h-176v-157h-96zM66 50v95h448v-95h-448z" />
    <glyph glyph-name="approxequal.case" horiz-adv-x="660" 
d="M109 371l-46 88l70 37l67 17h45l67 -11l62 -21l39 -10h39l40 11l59 31l49 -87l-70 -38l-69 -16h-55l-55 12l-65 22l-48 8h-23l-49 -13zM109 198l-46 88l70 37l67 17h45l67 -11l62 -21l39 -10h39l40 10l59 32l49 -87l-70 -38l-69 -16h-55l-55 12l-65 22l-48 7h-23l-49 -12
z" />
    <glyph glyph-name="logicalnot.case" horiz-adv-x="600" 
d="M420 90v216h-352v95h448v-311h-96z" />
    <glyph glyph-name="arrowup.case" horiz-adv-x="548" 
d="M226 1v566l-107 -108l-61 58l188 194h49l187 -194l-61 -58l-106 109v-567h-89z" />
    <glyph glyph-name="uni2197.case" horiz-adv-x="850" 
d="M216 42l-63 63l401 400l-152 -1l-2 84l269 4l35 -35l-4 -269l-85 3l2 150z" />
    <glyph glyph-name="arrowright.case" horiz-adv-x="850" 
d="M581 167l-59 62l109 106h-567v89h566l-108 106l59 61l193 -187v-49z" />
    <glyph glyph-name="uni2198.case" horiz-adv-x="833" 
d="M216 590l401 -399l-2 150l85 3l4 -269l-35 -35l-269 4l2 84l152 -1l-401 400z" />
    <glyph glyph-name="arrowdown.case" horiz-adv-x="548" 
d="M226 711h89v-567l106 109l61 -58l-187 -194h-49l-188 194l61 58l107 -108v566z" />
    <glyph glyph-name="uni2199.case" horiz-adv-x="833" 
d="M633 590l63 -63l-401 -400l152 1l2 -84l-269 -4l-35 35l4 269l85 -3l-2 -150z" />
    <glyph glyph-name="arrowleft.case" horiz-adv-x="850" 
d="M269 167l-193 188v49l193 187l59 -61l-108 -106h566v-89h-567l109 -106z" />
    <glyph glyph-name="uni2196.case" horiz-adv-x="850" 
d="M633 42l-401 399l2 -150l-85 -3l-4 269l35 35l269 -4l-2 -84l-152 1l401 -400z" />
    <glyph glyph-name="at.case" horiz-adv-x="840" 
d="M368 -16l-110 38l-96 67l-74 101l-38 112v107l38 112l74 101l96 67l110 38h126l106 -27l91 -62l70 -98l30 -113v-127l-52 -111l-78 -60h-62l-55 32l-20 29l-8 -11l-73 -35h-53l-51 16l-38 22l-45 65v52l11 49l61 60l73 20h50l50 -16l5 -3v31l-7 18l-24 17l-31 7h-51
l-23 -7l-28 -17l-17 -17l-60 61l25 23l44 28l45 14h73l58 -14l59 -39l22 -56v-211l24 -32h24l33 28l33 73v93l-24 95l-50 70q-12 8 -34.5 24t-33.5 24l-85 19h-98l-82 -28l-77 -55l-58 -78l-28 -83v-83l28 -83q46 -64 58 -78q11 -7 36.5 -26t40.5 -29l82 -28h80l90 33
l38 -77l-115 -42h-105zM404 230h25l37 16l34 30l6 10v27l-7 7l-25 14l-33 9h-27l-43 -11l-26 -28l-4 -14v-18l18 -25l15 -7z" />
    <glyph glyph-name="bar.case" horiz-adv-x="313" 
d="M111 -136v954h91v-954h-91z" />
    <glyph glyph-name="brokenbar.case" horiz-adv-x="313" 
d="M111 818h91v-399h-91v399zM111 -137v399h91v-399h-91z" />
    <glyph glyph-name="bar.tf" horiz-adv-x="320" 
d="M114 -181v954h91v-954h-91z" />
    <glyph glyph-name="plus.dnom" horiz-adv-x="264" 
d="M97 62v88h-83v67h83v88h67v-88h83v-67h-83v-88h-67z" />
    <glyph glyph-name="minus.dnom" horiz-adv-x="264" 
d="M14 150v67h233v-67h-233z" />
    <glyph glyph-name="equal.dnom" horiz-adv-x="264" 
d="M14 203v67h233v-67h-233zM14 97v67h233v-67h-233z" />
    <glyph glyph-name="plus.numr" horiz-adv-x="264" 
d="M97 405v88h-83v67h83v88h67v-88h83v-67h-83v-88h-67z" />
    <glyph glyph-name="minus.numr" horiz-adv-x="264" 
d="M14 494v67h233v-67h-233z" />
    <glyph glyph-name="equal.numr" horiz-adv-x="264" 
d="M14 546v67h233v-67h-233zM14 440v67h233v-67h-233z" />
    <glyph glyph-name="uni0308.case" horiz-adv-x="0" 
d="M-375 760v124h121v-124h-121zM-159 760v124h122v-124h-122z" />
    <glyph glyph-name="uni0307.case" horiz-adv-x="0" 
d="M-166 768v137h134v-137h-134z" />
    <glyph glyph-name="gravecomb.case" horiz-adv-x="0" 
d="M-80 737l-204 112l44 80l204 -113z" />
    <glyph glyph-name="acutecomb.case" horiz-adv-x="0" 
d="M-234 736l-44 79l204 113l44 -80z" />
    <glyph glyph-name="uni030B.case" horiz-adv-x="0" 
d="M-356 736l-66 58l134 150l66 -59zM-168 736l-66 58l134 150l66 -59z" />
    <glyph glyph-name="uni0302.case" horiz-adv-x="0" 
d="M-339 738l-58 70l153 123h58l153 -123l-58 -70l-124 102z" />
    <glyph glyph-name="uni030C.case" horiz-adv-x="0" 
d="M-244 747l-153 124l58 70l124 -102l124 102l58 -70l-153 -124h-58z" />
    <glyph glyph-name="uni0306.case" horiz-adv-x="0" 
d="M-197 739l-52 18l-50 45l-15 41v42h85v-26l6 -16l20 -16l23 -8h12l21 7l22 20l5 12v27h85v-42l-15 -41l-50 -45l-52 -18h-45z" />
    <glyph glyph-name="uni030A.case" horiz-adv-x="0" 
d="M-167 733l-44 16l-37 41l-13 39v37l13 39l37 41l44 16h38l44 -16l36 -41l14 -39v-37l-14 -39l-36 -41l-44 -16h-38zM-155 801h14l19 7l12 12l7 20v15l-7 19l-13 13l-18 7h-14l-20 -7l-11 -12l-7 -20v-15l7 -20l12 -12z" />
    <glyph glyph-name="tildecomb.case" horiz-adv-x="0" 
d="M-335 747l-81 27l12 38l19 31l24 18l52 24h44l49 -20l34 -21l21 -3l20 8l16 14l7 24l81 -27l-12 -38l-19 -32l-25 -18l-52 -23h-39l-39 15l-43 26l-14 4h-13l-19 -5l-15 -17z" />
    <glyph glyph-name="uni0304.case" horiz-adv-x="0" 
d="M-454 761v86h328v-86h-328z" />
    <glyph glyph-name="uni0307.i" horiz-adv-x="0" 
d="M-170 609v145h140v-145h-140z" />
    <glyph glyph-name="__quoteright" horiz-adv-x="134" 
d="M134 712v-99l-82 -130l-52 29l44 91l-35 15v94h125z" />
    <glyph glyph-name="__periodcentered" horiz-adv-x="135" 
d="M0 278v139h135v-139h-135z" />
    <glyph glyph-name="circleinvert" horiz-adv-x="842" 
d="M367 -16l-107 37l-98 67l-75 103l-37 109v111l37 109l75 103l98 67l107 37h108l107 -37l98 -67l75 -103l37 -109v-111l-37 -109l-75 -103l-98 -67l-107 -37h-108z" />
    <glyph glyph-name="Bitcoin.tf" 
d="M546 303l23 -98l-24 -98l-55 -68l-84 -39h-3v-111h-99v111h-61v-111h-99v111h-74v711h74v115h99v-115h61v115h99v-124l62 -17l69 -76l22 -98l-20 -79l-36 -47l-20 -10l20 -11zM434 557l-29 33l-44 14h-183v-173h204l42 28l9 12l12 43zM443 153l13 52l-13 59l-20 32
l-44 27h-201v-216h201l40 19z" />
    <glyph glyph-name="Bitcoin" 
d="M561 303l23 -98l-24 -98l-55 -68l-84 -39h-3v-111h-99v111h-61v-111h-99v111h-74v711h74v115h99v-115h61v115h99v-124l62 -17l69 -76l22 -98l-20 -79l-36 -47l-20 -10l20 -11zM449 557l-29 33l-44 14h-183v-173h204l42 28l9 12l12 43zM458 153l13 52l-13 59l-20 32
l-44 27h-201v-216h201l40 19z" />
    <glyph glyph-name="hookcomb" horiz-adv-x="586" 
d="M511 74v-122l-54 -84l-82 -30h-46l-74 20l28 102l54 -15h25l25 10l17 28v91h107z" />
    </font>
</defs>
</svg>
