<svg width="11" height="8" viewBox="0 0 11 8" fill="none" xmlns="http://www.w3.org/2000/svg">
<path d="M5.3044 3.62441C7.43302 2.0941 9.56164 2.68091 10.6777 3.19868C10.8158 3.26772 10.9539 3.12965 10.9078 2.99157C10.321 1.27717 8.13489 0.011506 5.5 0C2.73855 1.21321e-07 0.425833 1.41524 0.0116149 3.27922C-0.0344093 3.50935 0.0576389 3.73947 0.264748 3.85453C1.07017 4.29176 3.16427 5.16622 5.3044 3.62441Z" fill="#262829"/>
<path d="M5.6956 4.15367C4.67156 4.90157 3.64753 5.14319 2.73855 5.13169C1.74903 5.13169 0.909085 4.84404 0.322277 4.5794C0.184204 4.51036 0.0461314 4.64843 0.0921556 4.78651C0.678964 6.50091 2.86511 7.76657 5.5 7.77808C8.26145 7.77808 10.5742 6.36284 10.9884 4.49886C11.0344 4.26873 10.9424 4.03861 10.7353 3.92355C9.92983 3.48632 7.83573 2.61186 5.6956 4.15367Z" fill="#262829"/>
</svg>
